<svg xmlns="http://www.w3.org/2000/svg" width="127.358" height="178.381" viewBox="0 0 127.358 178.381"><path d="M700.04,0l-.8.275-.745,1.39L697,3.174l-1.69,1.214-3.049,1.07-1.784,1.333L687.7,9.565l-.883,1.164-.551.538-1.315.488-5.884,4.626-.9.469-4.851,2.085L668.6,22.2l-1.189.507-7.894,1.74-3.631.269-.807.269-.745.413-9.227,7.424-1.1.607-1.183.357-1.252-.013-.989-.369-1.915-1.052-1.108-.219-1.452.657-1.628.319h-6.153l-1.59.363-1.258,1.108-.826.576-.983.25-.626.394-1.872,1.8-.858.457-.526-.019-1.014-.244-.563-.056-.513.094-.951.451-1.4.382-.751.645-1.058,1.34L608.9,43.806l-1.171,1.459-.025.088-1.771,2.4-.119.2-.094.219-.081.232-.257,1.321-.563,1.371-.169,1.014-.1.363-.125.269-.238.363-.125.357-.106.5-.125,1-.338,1.383-.282,3.405.019.426.282,1.108.238.5.125.188.432.826.444.507.52.77.219.407.038.52-.019.757-.313,2.416-.144.495-.113.2-.081.244-.207,1.315-.075.219-.113.194-.62.651-.576.369-.144.163-.106.244-.194,1.127-.426,1.089-.182.213-.207.163-.964.376-.188.1-.163.457-.131.72-.119,1.653-.119.726-.15.463-1.715,1.427-.595.351-.914.388-.2.119-.175.138-.156.156-.532.714-.613.62-.188.144-.451.213-.213.144-.106.313-.225.858-.7,1.684-.207.833-.369,2.98-.194.426-.219.275-.826.476-.526.463-.864,1.146-1.333,1.333-.288.376-.25.426-.282.388-.338.332-.776.563-.657.369-.194.131-.094.257.006.357.413.983.288.495.081.338.044.438-.031.8-.144.833-.163.513-.482,2.3.031.332.1.319.232.463.138.413.088,2.216-.044.319-.588,1.121-.069.263-.025.282.125,1.44-.031.307-.05.294-.088.257-.119.219-.313.357-.106.338-.056.482.075.939-.169,1.2v.388l.063.526-.019.382-.038.332-.138.557-.013.463.094,1.6-.031.526-.063.394-.119.394-.019.9-.05.332-.081.307-.25.444-1.039,1.321-.063.244.025.25.282.307.3.138,2.416.463,1.027.344.225.119.194.15.169.169.282.369.338.338.207.125.232.113.526.169.582.119.507.15.169.031.2-.056,1.69-1.121.219-.106.225-.075.557-.069.551.025.194.169.144.382.063,1.333-.038.4-.106.232-.469.532-.094.225-.044.244.006.545-.044.244-.263.388-.094.219-.025.269.038.551-.038.282-.094.232-.307.369-.138.2-.275.757-.138.2-.507.495-.144.188-.131.207-.094.257-.15.545-.106.232-.138.2-.826.851-.351.307-.607.388-.876.782-.964.72-.77.864-.1.15-.081.144-.063.213-.05.263v.282l.394,2.072.125.363.188.275.432.288.282.019.257-.056.2-.138.207-.119.225-.1.244-.069.257-.006.257.182.2.338.307,1.158.294.776.294.538.056.532-.013.369-.313,1.8.006.3.069.338.163.338.7.939.664,1.121.238.545.294.939.106.538.025.451-.063.6.019.313.069.307.2.651.069.294,1.477,3.75.225.369.676.632.263.294.213.344.607,1.327.081.244.031.269-.013.288.05.313.156.326.394.438.225.326.3,1.008,2.792,4.144.207.444.132.513.664.87,2.823,2.46,1.44-.275,1.433.225,1.778.714,1.828.495,5.909-.163,1.108-.169,1.571-.914.695-.213,3.161-.407.883-.288,2.6-2,1.484-.5,2.016-1.44,2.811-.613.463-.244.25-1.152.664-.926.914-.682,1.033-.413,2.072-.232,1.214.069,1.728.726,1.114-.482,1.64-1.377,1.665-1.039,1.052-.457.964-.188.382-.156.476-.682.426-.15,1.784-.332.964-.426,1.052-.682.845-.839.351-.883.294-.545.7-.526.845-.444.732-.288,1.477-.225.482-.138.313-.238.313-.332.363-.294.469-.131,1.928-.125.876-.2.908-.332,2.7-2.028,1-.288h1.959l1.5.332h.576l1.54-.839,2.654-3.286,1.265-1.2,1.352-.745.651-.52.638-1.3.87-.419,1.984-.657.457-.369,1.146-1.283.6-.376.238.044.263.207,1.734.275.589.363.457.438.645.407,1.916.194,3.894-1.2,1.784-.351,2.222.013.82.426.319,1.07.463,1.052,1.1.545,1.283.025,1.033-.482h0v-.006l.551-.72.275-1.008.1-2.078.351-.808,1.427-1.54.182-1.1-.219.081-.526.131-.219.081v-3.956l-1.183.989-.62.244-.119-.582.394-.67.657-.476.607-.563.263-.945.319-3.637-.094-.845L705.2,127.3l-.119-.864.219-1.6,1.127-2.8.263-1.565-.282-.858-.664-.006-.8.219-.676-.188-.545-.332-.782-.2-.72.031-.376.338.188.77.513.664.25.689-.632.845-.732.263-.714-.238-2.379-2.178-.238-.526-.081-.914.332-.732.8-.8.964-.682,1.352-.72.288-.075.413.038.532.263.156.326-.044.407.313.257.113.182.125-.038.413-.4.288-.394.526-1.283.188-.939-.419-.563-.582-.382-.288-.407.232-.357,1.321.119.689-.438-.131-.069-.144-.382-.081-.482.038-.388.757.732,1.008.269,1.014-.225.757-.776.175-.538v-.532l-.25-.407-.57-.169-.225-.25-.4-1.258-.338-.495-.538-.044-.52.275-.388-.019-.444-2.122-.031-.613.313-.469h.513l.807.92.463-.069.332-.595-.263-.4-1.365-.7-.532-.138-.419-.307-.182-.7.05-3.305-.244-.225-1.972-.094-.576-.094-.495-.219-.657-.764.1-.808,1.227-1.753L702.9,94l.307-.438,1.077-.282.382-.282.276-.4.138-.507-1.358.175-.651-.113-.413-.388-.144-.77.2-.607.3-.582.144-.67-.307-1.214-.745-1.271-1.033-.776-1.158.269.113-1.014L700.5,85l.664.282.676.207.645-.363.538-.845.357-.989.1-.8-.269-.776-.864-1.327-.188-.851.088-.676.557-2.316L702.938,75l.3-.5.707-.757V73.3l-1.433-2.041-.632-1.415-.319-1.434.319-1.4,1.277-1.308-.657-.275-.25.044-.407.232-.6-.751-.263-.826-.088-2.335-.063-.307-.15-.257-.87-.839-.219-.945-.131-1.559-.15-.563-.507-.695.088-.413,1.064-1.214.282-.538-.357-.588-.726-.676-.551-.745.2-.764.557-.651.382-.657.495-1.49.332-1.859.294-1.615-.257-1.515-1.365.338-.444-.689-.639-.782-.739-.707-.714-.413-.351.983-.369-.357-.407-.914-.482-.726.551-.088h1.127l.6-.213.388-.482.689-1.671.351-.626,3.136-2.31.576-.833-.025-.476-.357-1.2.031-.62.275-.526,1.509-1.609.707-1,.651-1.534.012-1.365-1.2-.52-.444.313-.62,1.189-.538.138-.382-.476.388-1.659-.495-1.772.576-1.346.951-1.233.858-.782,2.579-1.227.883-.914-.858-.983-3.3-1.659-.908-.776-.144.419-.188.338-.263.294-.369.257-.326-1.665,3.975-3.136,1.521-.432,1.8.175.682-.207-.382-.795-.726-.363-1.847-.238-.676-.382-.344-.764-.106-1.634-.338-.726-.726-.369-.977-.188-.858-.319-.357-.757.357-.532.7-.632.5-.8-.238-1L702.7.419l-1.258,1.07-.889-.207.5-.626-.281-.488Z" transform="translate(-582.844 0.519)" fill="rgba(245,199,120,0.65)" stroke="#f5c778" stroke-width="1"/></svg>