<svg xmlns="http://www.w3.org/2000/svg" viewBox="0 0 127.4 178.4"><path d="M117 1h-1v1l-2 2-2 1-3 1-1 1-3 3-1 1-1 1h-1l-6 5h-1l-5 2-4 4h-1l-8 2h-4l-1 1h-1l-9 7-1 1h-3l-2-1h-3l-1 1h-8l-1 1-1 1h-2l-2 2-1 1-1-1h-1l-1 1h-1l-1 1-1 1-5 3-1 2-2 2v2l-1 2v1l-1 1v3l-1 3v1l1 1v1l1 1v1h1v1l-1 3v2l-1 1h-1v3h-1l-1 1v3h-1v1l-1 1-1 1h-1l-1 1-1 1-1 1v2l-1 1v4H9l-1 1-1 1-1 1-1 1v1H4l-1 1 1 1v4l-1 2v1h1v3l-1 1v4H2v10l-1 1v1l3 1h1v1h1v1h2l2-1h2v2l-1 1v3h-1v1l-1 1v1H8v1l-1 1-1 1-1 1H4v4h3v2h1v5l1 1v1l1 1v3l2 4 1 1v1l1 1v2h1v1l3 4v1l1 1 3 3 1-1 1 1h2l2 1h7l2-1v-1h4l3-2 1-1 2-1 3-1h1v-1l1-1 1-1h7l1-2 2-1h2l1-1 2-1h1l1-1h1v-1l1-1 1-1h2l1-1h1v-1h4l3-2 1-1h2l1 1h1l1-1 3-3 1-2h2v-1l1-1h1l2-1v-1l1-1h3l1 1 1 1h2l4-1 1-1h3v1l1 1v1h4v-2l1-2v-1l1-1 1-1h-1v-4l-2 1v-1l1-1 1-1v-5l-1-1v-3l2-2v-3h-5v1h1v1l-1 1h-1l-3-2v-2h1v-1l1-1 2-1 1 1v1h1v-1l1-1v-2h-1v-1h2v-2 1h2l1-1v-1h-1v-2h-2v-3l1 1h1v-1l-2-1h-1v-5h-3l-1-1v-1l2-1v-2h2v-1h-2v-5l-1-1-1-1-1 1v-1h3v-1l1-1v-1l-1-1v-1l-1-1v-1l1-2v-2l1-1-1-2-1-2v-2l1-2h-1l-1-1v-3l-1-1v-3h-1v-1l1-1v-2h-1v-2h1v-3l1-1v-4l-2 1v-1l-1-1-1-1v1h-1v-1l-1-1h3v-1l1-1v-1l3-2 1-1v-1l-1-1 1-1 1-2 1-1v-2l-1-1-1 2-1-1 1-1-1-2 1-2 1-1 1-1 2-1 1-1-1-1-3-1-1-1v1h-1v-1l4-4h4l-1-1h-2l-1-1V7l-1-1-1-1h-1l-1-1h1V3l1-1V1h-1l-1 1h-1V1Z" fill="rgba(245,199,120,0.65)" stroke="#f5c778"/></svg>