<svg xmlns="http://www.w3.org/2000/svg" width="153.13" height="213.47" viewBox="0 0 153.13 213.47"><path d="M135.038,848.377l-1.815-1.177-1.678,1.9-2.279,2.542-2.46,2.748-2.473,2.748-2.466,2.748L119.4,862.63l-2.466,2.754-2.466,2.761L112,870.9l-2.466,2.754-2.473,2.754-2.466,2.761-2.466,2.76-2.46,2.761L97.2,887.451l-2.466,2.76-2.473,2.767L89.8,895.739l-2.448,2.735-3.061,2.185-3.756,2.66-.463.914,2.085,6.5,2.429,7.581L87,925.892l1.941,6.072,3.236,10.128.288,1.546-.989,11.7.288,2.116.883,1.822,4.513,4.9.933,1.859,1.815,6.423,1.909,4.513.657,1.077.889.845,3.042,2.247.551.657.257.82.031.845.307,8.169.3,2.185,2.679,5.828.739-.469,5.884-2.892.351-.019.357.019.432.081,1.127.351,2.748.426.588.357.207.15.851.294,1.521.269.4.106,1.146.595,5.521.8.745.3.419.275.382.332,2.541,2.867.263.188,1.408.551,1.315.833.707.307.469.113.426.031.326-.038.3-.075,1.133-.413.945-.2.382.025.294.088.225.119.207.15.57.319,1.177.394.275.138.282.25.163.244.094.257.025.225-.044.789.232,5.114.081.294.106.257.131.238,1.8,2.147,2.9,4.469.238.507.175.57.219,1.283.219.338.357.376.732.607.632.407,2.4,1,.4.376.081.62-.782,2.854-.075.783.038.789.451.87.144.5.019.357-.131.213-.163.207-.156.169-.125.213-.069.225.319,5.465.113.538.225.207.275.094,1.045.106.463.119.695.319.332.263.194.3.044.3-.081.551-.05.225.025.2.075.232.075.476-.019.908.244,1.584-.038.288-.194.676-.031.175-.006.244.075.482.156.457.2.069,3.343.376.795.269.664.357.332.269.225.263.4.707.219.526.081.288.131.964-.006.319-.194,1.183-.207.833-.038.288.081,2.316h0l.989-.695,2.416-1.07,1.077-.695.689-1.152-.689.25-.275.182-.319-1.083.864-.338,1.158-.125.576-.432.413-.488,1.909-.952.626-.207-.394.664-.664.62-.776.532-.77.344v.357l1.9-.507,6.923-3.844,5.671-2.009,6.773-3.612L205,1038.97l10.473-3.912,2.623-.426,5.227-2.21,1.227-.363,6.153-2.642h0l-1.446-2.542-1.415-.57-3.681-.125-.82-.207-.426-.513-.275-.563-.188-.726-.088-.732-.175-.77-.075-.582.407-.432.588-.4,6.7-3.512.244-.275-.175-.363-3.549-3.631-.438-.764.225-.632.376-.507,1.421-1.44.338-.538-.006-.288-.144-.2-.238-.106-.257-.063-.275.038-1.221.595-.263.094-.3.05-.945.044-.294.069-.664.407-.275.069-.607.012-.319.038-.275.094-.626.457-.244.125-.263.081-.545.088-.094.025-.094.037-.394.232-.207.163-.482.257-.557.188-1.991.407-1.941.67-.338-.125-.344-.432-5.778-10.085-.2-.82-.106-.789-.219-11.1-.125-.088-.463.088-.263-.031-.238-.094-.469-.232-.257-.094-.269-.063-.319.05-.319.131-.326.338-.113.025-.05-.131.006-.476-.025-.382-.357-1.515-.019-.307.031-.307.156-.52.338-.764.063-.1.05-.069.069-.207.063-.313-.063-.532.125-.958-.319-3.512.031-.294.075-.25.075-.363.025-.476-.2-.958-.05-.507.044-.376.175-.576-.031-.814.125-.9.044-1.29.094-.257.551-.833.05-.244.038-.595.125-.219.332-.394.125-.25.025-.376-.113-.357-.707-1.34-.207-.25-.225-.094-.257.025-.244.094-.463.263-.269.1-.269.044-.319-.113-.113-.225-.019-.276.088-.257.125-.213.795-.651.156-.182.15-.213.213-.469.081-.263.125-.219.213-.144.238-.125.225-.175.169-.213.056-.363-.144-.288-.282-.4-.119-.3.019-.269.113-.213.175-.2.169-.232.119-.326-.094-.382-.632-1.252-.3-.351-.332-.169-.626.013-.263-.031-.257-.088-.069-.044-.081-.094-.207-.3-.138-.426-.144-.707-.15-.376-.207-.282-.482-.432-.119-.269-.025-.288.006-.294-.069-.419-.513-.889-.131-.382-.069-.357-.013-.313.031-.294.1-.232.182-.144.25-.05.538-.013,1.358-.432.225-.156.138-.225.05-.326-.106-.213-.169-.188-.5-.294-.294-.232-.4-.451-.169-.344-.094-.369v-1.415l-.075-.657-.182-.444-.626-1.077-.15-.451-.063-.426v-.8l-.081-.3-.106-.263-.319-.407-.169-.188-.15-.2-1.064-1.972-.294-.438-.282-.351-.257-.207-.551-.614-.238-.175-.25-.088-.344-.156-.363-.257-.5-.67-.563-.62-.4-.3-.175-.175-.469-.607-.194-.156-.25-.163-.257-.213-.307-.351-.075-.313.019-.914-.119-.927-.313-1.008-1.659-2.347-.751-1.39-.626-.8-.363-.344-1.052-.689-.194-.163-.307-.4-.269-.451-.319-.394-.376-.332-.858-.532-1.114-.983-.4-.238-.319-.144-1.4-.983-.883-.883-.864-1.252-.394-.714-.57-.833-.319-.376-.182-.169-.626-.426-.269-.232-.3-.313-2.817-4.451-.488-1.221-.131-.645-.031-.332-.006-.326.451-2.892.5-1.546.044-.282.094-1.909.063-.269.119-.225.169-.175.419-.288,1.358-.463.238-.131.175-.175.075-.263.031-.3-.106-.976-.52-2.053-.044-.651.063-.92-.056-.951L177.8,894.5l-.013-.325.732-3.286.15-1.264-.025-.4-.088-.57-1.5-2.316-.194-.776-.075-.757.006-1.265-.063-.269-.088-.15-3.218-2.56-4.8-6.091-.2-.35-.088-.357.006-.62.113-.557.169-.526.025-.407-.075-.582-.639-2.642-.019-.325.013-.313.038-.294.063-.276.088-.25.244-.438.144-.2.363-.657.977-1.127.732-.663.332-.363.307-.394.745-1.308,1.4-1.728.232-.451.213-.52.275-1.089-1.7-.7-1.07-.188-.851.15-2.842,1.258-.864.57-.939.864-.751.97-.307.864-.419.851-.9-.275-.9-.695-.382-.382-1.083-.081-.707.037-.369-.426-.119-1.477-.313-.764-.745-.689-.858-.52-.651-.257-.707-.019-2.7.363-.9-.088-.789-.232-.707-.326-5.3-4.113-1.834-.8-.945-.131-3.042.131-.739-.319L137,849.93l-2.028-1.79.063.238Z" transform="translate(-78.992 -845.213)" fill="rgba(246,200,121,0.65)" stroke="#f5c778" stroke-width="2"/></svg>