<svg xmlns="http://www.w3.org/2000/svg" viewBox="0 0 117.9 201.5"><path d="m110 43 1-7 1-4v-1l-1-1-1 1-1 6-1 4v1l1 1ZM93 3h1V2h-1V1h1-2l-1 1-4 1-5 2-1 1-2 1-1 2-1 1h-2l-2-2h-2v1l-3 1-5 2-1 1-2 3-2 2-1 1h-2l-1-2h-2l-2 2-1 1v-1h-9l-1 1-1 1-2 2v1l-1 1h-1v-1l-1-1h-1l-3 1-8-1-2 1h-2l-3 3h-1l-2 1-2 1H7v1l-1 1-1 2-1 1v1H3l-1 2H1v2l1 3v1l-1 1v1h1l4 6 4 3v3l2 2v3l-1 3v4l1 2v2h-2l-1 1v3l-1 1v4l1 2 3 4v1h1v1h1v1l1 1 1 1 1 1h1v1l1 1h1l1 1v1l2 1 1 1v1l2 2v4h1l1 1v1h1l1 1h1v1h1v1l1 2 1 1v2l1 1v3l1 1h1v1l-1 1h-2v2l1 1v1l1 1v2h2l1 1v1l-1 1 1 1v1h-1v1h-1l-1 1v1h3v4l-1 1v12l-1 1v1l1 2v1-1h1l1 1h1v12l6 10v1h1l2-1h3v-1h2v-1h4v-1h2v1l-1 1-1 1v1l4 4v1l-7 3v1h-1v1l1 1v2h5l1 1 2 2 8-2 7-3 14-8 4-3v-3l6-5 7-11v-1l1-1v-1l1-1-1-1v-2l3-9h-1v-3l-2-1v1l-1 4h-1l-2-2h-1v4l-2 2v-1l1-1h-1v-2l1-1v-6l1-1h-1v-2h-1l1-1 1 1v2l1 1v-7l1-6 3-9v-8l1-1 2-5 1-1 2-4v-1l-1-1v1h-2v1l-1-2-2-11v-6l3-8V63v1l-1 1v5l-1-9v-2h-2v1h-1v1l-1 1v1l1 2v1h-1v-2l-1 1v8l1 2h-1v4l-1-1-1-2h-1l-1-1v-3l1-14v-4l-1-2v-4l-2-3v-9l-1-4h-1l-1-1-3-5-1-4V12l-1 6-1 2v-3l-1-1h-1 1l1-1v-1h-1v-4h-1l-1-1V8h3V5h-1V4l1-1 1 1V3Z" fill="rgba(246,200,120,0.65)" stroke="#f5c778" stroke-width="2"/></svg>