<svg xmlns="http://www.w3.org/2000/svg" width="117.868" height="201.523" viewBox="0 0 117.868 201.523"><path d="M329.084,861.858l1.665-7.067.288-3.656-.069-1.221-.257-.77-.419-.038-.538.989-1.509,6.272-.513,3.85.025,1,.363.714ZM312.721,822.3l.269-.513.319-1.114-.582-.113.006-.244.219-.326v-.013h-.275l-.808.088-.989.732-.626.182-3.662.563-4.82,2.016-.507.326-.213.413-.307.382-2.542,1.753-.776,1.208-1.008,1.1-1.5.219-.482-.238-2.059-1.671-.426-.019-.457.125-.588.081-.789.269-2.266,1.8L282.392,831l-1.321,1.064-2.047,3.305-1.358,1.7-1.471.92h-.826l-.751-.319-1.427-1.258-1.121-.495-.952.488-1.315,1.584-1.1.626-.783-.207-.607-.507-.576-.288-5.4.482-2.36.213-.808.482-.964,1.089-1.308,1.878-.163.4-.119.457-.188.369-.338.15-.163.131-.5.238-.532.1-.25-.282-.419-.8-1-.294-1.177.038-2.642.463-8.163-.369-1.884.213-1.646.582-3.211,2.566-1,.613-1.915.438-1.753.889-.983.307-1.114-.05-.163-.063-.275,1.089-.213.52-.232.451-1.4,1.728-.745,1.308-.307.394-.332.363-.732.664-.977,1.127-.363.657-.144.2-.244.438-.088.25-.063.275-.038.294-.013.313.019.326.639,2.642.075.582-.025.407-.169.526-.113.557-.006.62.088.357.2.351,4.8,6.091,3.218,2.56.088.15.063.269-.006,1.264.075.757.194.776,1.5,2.316.088.57.025.4-.15,1.264-.732,3.286.013.326.225,1.233.056.952-.063.92.044.651.52,2.053.106.977-.031.3-.075.263-.175.175-.238.131-1.358.463-.419.288-.169.175-.119.225-.063.269-.094,1.909-.044.282-.5,1.546-.451,2.892.006.326.031.332.131.645.488,1.221L230.924,907l.3.313.269.232.626.426.182.169.319.376.57.833.394.714.864,1.252.883.883,1.4.983.319.144.4.238,1.114.983.858.532.376.332.319.394.269.451.307.4.194.163,1.052.689.363.344.626.795.751,1.39,1.659,2.347.313,1.008.119.926-.019.914.075.313.307.351.257.213.25.163.194.156.469.607.175.175.4.3.563.62.5.67.363.257.344.156.25.088.238.175.551.613.257.207.282.351.294.438,1.064,1.972.15.2.169.188.319.407.106.263.081.3v.8l.063.426.15.451.626,1.077.182.444.075.657v1.415l.094.369.169.344.4.451.294.232.5.294.169.188.106.213-.05.326-.138.225-.225.156-1.358.432-.538.013-.25.05-.182.144-.1.232-.031.294.013.313.069.357.131.382.513.889.069.419-.006.294.025.288.119.269.482.432.207.282.15.376.144.707.138.426.207.3.081.094.069.044.257.088.263.031.626-.013.332.169.3.351.632,1.252.094.382-.119.326-.169.232-.175.2-.113.213-.019.269.119.3.282.4.144.288-.056.363-.169.213-.225.175-.238.125-.213.144-.125.219-.081.263-.213.469-.15.213-.156.182-.795.651-.125.213-.088.257.019.275.113.225.319.113.269-.044.269-.1.463-.263.244-.094.257-.025.225.094.207.25.707,1.34.113.357-.025.376-.125.25-.332.394-.125.219-.038.595-.05.244-.551.833-.094.257-.044,1.29-.125.9.031.814-.175.576-.044.376.05.507.2.958-.025.476-.075.363-.075.25-.031.294.319,3.512-.125.958.063.532-.063.313-.069.207-.05.069-.063.1-.338.764-.156.52-.031.307.019.307.357,1.515.025.382-.006.476.05.131.113-.025.326-.338.319-.131.319-.05.269.063.257.094.469.232.238.094.263.031.463-.088.125.088.219,11.1.106.789.2.82,5.778,10.085.344.432.338.125,1.941-.67,1.991-.407.557-.188.482-.257.207-.163.394-.232.094-.038.094-.025.545-.088.263-.081.244-.125.626-.457.275-.094.319-.038.607-.013.275-.069.664-.407.294-.069.945-.044.3-.05.263-.094,1.221-.595.275-.038.257.063.238.106.144.2.006.288-.338.538-1.421,1.44-.376.507-.225.632.438.764,3.549,3.631.175.363-.244.275-6.7,3.512-.588.4-.407.432.075.582.175.77.088.732.188.726.275.563.426.513.82.207,3.681.125,1.415.57,1.446,2.542.119-.05,7.825-2,7.687-3.7,13.841-7.424,3.493-3.48.244-.457.1-.513.019-.67.131-.513,5.327-5.859,7.268-10.792.551-.964.25-1.02.15-.269.344-.288.338-.351.156-.476-.094-.576-.444-1.052-.1-.67.113-1.045,2.7-8.92-.088-.263-.294-.156-.144-.394-.219-2.285-.495-.576-1.928-.482v.382l.194.576-.351,3.612-.3.457-.557-.006-.889-.426-1.233-1.127-.676-.407-.689.131-.482.789.075.945.757,1.778-2.185,2.623-.419.044.113-.557.432-.977.1-.588-.05-.613-.207-1-.031-.313.119-.52.363-.714.163-.526.075-.632-.075-1.69.1-1.064.438-2.016.1-.977-.038-.563-.282-1.189-.275-.106-.513-.376-.156-.413.782-.188,1.164.263.182.676-.207.92-.044.977.482,1.039.413-.451.307-1.127.106-1.039v-4.419l.757-6.692,2.736-8.376.338-2.147-.075-1.052-.463-1.884-.1-1.077.125-1.033.332-.814.851-1.521,1.828-4.557,1.039-1.515L335.933,921l.244-1.477-.958-.451v.319l.357.495-.382.269-.77-.013-.82-.369-.044.457-.131.3-.463.638-.8-2.009-1.477-11.111.156-6.379,2.329-7.887.119-1.089-.326-3.343v-1.027l.638-6.285h-.313l-.144.858-.413,1.221-.182,2.842-.182.876-.369.87-.964-8.576.169-1.208.019-.595-.188-.476-.376-.207-.538-.056-.482.219-.213.595-.094.119-.238.156-.275.15-.2.063-.194.125v.307l.056.351-.044.294-1.02,1.465-.238.607.432.288,1.177,2.141-.62.807-.438-.344-.551-1.5-.307.263-.182.326-.025.376.188.463-.808,1.884.013,2.491.638,2.485,1.1,1.847-1.077.657-.344.751.138,2.229-.313.538-.676-.757-.908-1.678-.789-.438-.845-.332-.664-.595-.275-1.246.013-2.166,1.4-13.058-.419-4.244-.482-2.4-.225-3.224-.188-.833-1.408-3.117-.438-2.185.232-4.394-.119-2.16-1.459-3.455-.62-.369-.682-.87-2.854-4.933-1.484-3.875-.388-4.426.444-1.459.332-3.268-.069-.876-1.4,5.984-1.171,1.252.125-2.153-.125-.57-.469-.432-.507-.138-.188-.2.495-.613.551-.282.557-.125.332-.269-.125-.7-.388-.332-.545-.175-.313-.269.282-.6-.469-.338-.106-.357.019-.451-.081-.576.1.031.125-.194.094-.3-.031-.263-.169-.238-.169-.05-.194-.031-.7-.476-.444-.194-.275-.344.056-.732.338-.595.394.069.382.326.319.2.826-.138.613-.444.332-.764-.006-1.415.056-.407-.044-.307-.169-.056-.326.006-.326-.081-.144-.369.169-.62.407-.269.52.056.513.332.376-.463Z" transform="translate(-219.419 -818.98)" fill="rgba(246,200,120,0.65)" stroke="#f5c778" stroke-width="2"/></svg>