<svg xmlns="http://www.w3.org/2000/svg" viewBox="0 0 108.9 261.4"><path d="M81 13h-1v-1l-1-1h-1l-1-1h-1l-1-1-1-2-2-2-1-2-1-1h-2l-2 1h-1l-5-1-2 1h-1l-1 1-1 1-2 2v4l-3 4v1h-1l-1 1v1h-1v4l-2 2v1l-1 4-1 1v2h-3v1h-1v1h-1l-1 1v3l-1 1v1l1 1v1l-2 3-1 1v3l-1 1-1 1-2 4-1 1 1 2 1 1 2 1v2l-1 2v6l-1 1h-1v1l-1 1v2l1 1v2h-1v1l1 1-1 1v2l2 5v3h-1v2l1 1 2 2 1 1v1l-1 1-1 2v2l-1 1-1 1h-1l-1 1h-1l-1 1v2l1 2 1 2 1 2v1l-1 2v1h-4l-2 1-4 2v4h1-1v1h-1v1l1 1v2h6v2h1v1l1 2-2 6v3l-1 1-2 2v5l1 1h2v10h3l2-1 1-1v1l1 1-1 2 1 1 1 1h1l1 1v1l-1 1v2l-1 3v5h1-3l-1 1v2h-1l-1 1v2l-1 1v5l-1 1-2 3-3 4-2 3-1 3-1 1H9l-1 2-1 2v2l1 6 1 5-1 2-1 2-2 3-4 5 1 1h1v2l3 5v1l2 1 3 2h5l1 1 6 4v1h7l1 1v2l1 1h2l1 1h1v-2h1l1-1 1-1 3-1h2l1 1h2l1-1 1-1h2l1-1 3-2 2-1h15v1h2v-1l1-1 1-1 1-1 1-1h2v-4l1-1 1-1v-3h1l1-1h1v-3l-5-4h-4l-1-1h-1v-12h-1l-5-2-1-1-12-12v-4l1-3v-1l-1-1v-2l-1-1h-1l-2-5h1l4-4 1-1h1l1-1h1v-1h4v1h1v1h1v1h2l1-2 1-1h1l1-1h1l1-1h1v-1h1l1-1v-1h2v-1h-1v-1h-2l-1-1h-2v-2l1-2v-2l-2-2v-1l1-1h3v-14l5-17v-2h-1v-1h-1v-1h-2l-1-1v-2h-1v-1h-2v-1l-1-1-2-1-1-1h-3v-4h1v-1l2-1 1-2v-1h1v-1h1l1-1v-3h-1v-5l-1-2v-1l1-1 1-1v-1h2v-1h1v-2l1-1h2v1h1v1l1 1v2h1l1 1h1l1 1v-1l2-2h3l1-1v-1l2-5v-3l-1-1 1-2-1-1-1-1v-1l-4-1h-1v-2l1-4v-1l-2-5v-2l2-4 1-1v-5l1-2v-2l1-1v-5l3-6h1l1-1h1l2-1 3-2h1l1-1 1-1 1-2 2-3-8-5-3-1-3-1h-4l-1-1-2-2h-3v-1l-2 1Z" fill="rgba(245,199,120,0.65)" stroke="#f5c778" stroke-width="2"/></svg>