<svg xmlns="http://www.w3.org/2000/svg" width="108.94" height="261.415" viewBox="0 0 108.94 261.415"><path d="M239.51,470.1l-.757-.182-.363-.526-.169-.682-.232-.582-.557-.25-.82-.063-.563-.169-1.183-.62-.9-.757-1.427-2.31-1.6-2-1.346-2.16-.858-1-.119.163h-1.765l-.582.125-2.116.776-.77.081-4.732-.419-1.577.207-1.264.495-1.164.764-1,.989-1.559,2.347-.382.294.106,1.127-.019.351-.131.726.031.269.244.419.075.232-.075.382-.225.457-2.7,3.424-.156.3-.075.382-.119.282-.275.219-.545.188-.219.106-.595.426-.8.908-.144.263-.106.338-.044.557.044.695-.019.263-.2.808-.006.275.038.257-.081.407-.225.513-1.571,2.291-.15.326-1.552,4.545-.25,1.139-.05.57-.1.2-.188.275-.413.376-.307.2-.3.113-1.653.269-.257.094-.219.119-.169.175-.3.394-.163.169-.394.275-.5.463-.369.463-.582.914-.563,1.515-.075,1.083-.088.4-.225.469-.094.388.025.538.394,1.171-.013.3-.106.407-1.753,3.5-.394.6-.469.595-.05.269.144.426.131.294.088.382.038.282-.338,1.39-1.221.5-.67,1.033-1.847,3.624-.307.382-.407.269-.3.332.006.545.495,1.665.207.413.826.645,1.765.814.645.864.194,1.02-.188.952-.776,1.828-.182,1.9.144,2.166-.194,1.809-1.2.807-.776.363-.52.826-.3,1.027-.131.964.075.964.557,1.39.088.87-.188.645-.363.332-.376.25-.238.388.075.469.576.689-.044.426-.257.977.106,1.114,1.653,5.108.156,1.634-.031.369-.426,1.064-.363.651-.275.382-.081.407.207.745.714,1.052,2.2,1.79.845.951.369.952-.219.545-1.358,1.039-.989,1.446-.131-.031.063.482.6.714.163.507-.307,1.008-.839.638-1.033.488-.92.551-.839.451-.9.263-.808.338-.582.676-.119.833.163,1.02.6,1.784,1.415,2.823.369,1.352-.1,1.646-.326,1.327-.507,1.07-.814.664-1.239.106-1.928-.15-1.427.213-4.526,2.135-.075.451.326,2.679.307.732.588.394-.5.382-.607.338-.457.419-.069.607.357,1.114.075.545-.075.632.113.664.376.394.532.188.638.031,2.923-.445.814.094.513.213.269.225.144.338.106.582.232.613.376.382.438.351.394.488.3,1.709-1.365,6.178-.05,1.227-.163.9-.376.833-.689,1.1L180,605.243l-.113.488.1,1.465-.3,2.022.056,1.027.495.595.9.044.858-.113.664.238.319,1.083.013.914-.332,3.612.013.463.119.488.069.651-.2.482-.275.432-.15.507.156,1.108.538.545.851.194,1.083.056,1.058-.294,1.408-1.446.876-.3.833.476.069,1.008-.388,1.941.388.876.782.8,1.014.645,1.045.438.47.557-.15.958-.313,1.177-.075,2.059-.908,2.948-.175,3.7.282,1.171.138.388-2.516-.088-.645.563-.269,1.534-.369.72-.745.232-.764.144-.432.451-.344,2.441-.238.776-.639,1.189-.106.488.063.344.313.676.025.4-.338,1.534-.257.72-.363.639-2.091,2.6-3.055,3.8-1.477,2.892-1.54,3.017-1.189,1.315-2.016.338-2.216-.275-2.041.269-1.484,1.934-.495,2.135-.094,2.078.676,5.4.645,5.233-.288,1.922-1.1,2.21-2.379,3.061-3.637,4.7.257.438.689.438.419.582.213.031.207-.013.138.106-.006.338-.175.319-.182.275-.056.2,3.43,5.9.056.213,2.028,1.79,2.648,1.684.739.319,3.042-.131.945.131,1.834.8,5.3,4.113.707.326.789.232.9.088,2.7-.363.707.019.651.257.858.52.745.689.313.764.119,1.477.369.426.707-.038,1.083.081.382.382.9.695.9.275.419-.851.307-.864.751-.97.939-.864.864-.57,2.842-1.258.851-.15,1.07.188,1.7.7.163.063,1.114.05.983-.307,1.753-.889,1.916-.438,1-.613,3.211-2.566,1.646-.582,1.884-.213,8.163.369,2.642-.463,1.177-.038,1,.294.419.8.25.282.532-.1.5-.238.163-.131.338-.15.188-.369.119-.457.163-.4,1.308-1.878.964-1.089.807-.482,2.36-.213.25-3.543.119-.657.244-.72.219-.219.707-.388.175-.175.088-.288.019-.369-.094-.57-.013-.463.069-.457.275-.545.232-.294.263-.188.513-.207.939-.488.394-.307.169-.182.144-.2.125-.219.269-.739.05-.307-.006-.363-.144-.513-.213-.326-.307-.351-4.739-3.693-.476-.156-3.806-.319-.588-.106-.382-.219-.15-.52-.213-10.348-.081-.664-.2-.595-.507-.426-5.6-2.028-.657-.363L213.97,658.095l-.156-.657-.038-.664.038-.613-.025-.457-.069-.319.013-.5.144-.695.939-2.523.044-.282-.056-.351-.1-.275-.257-.476-.582-.807-.131-.238-.138-.582-.094-1-.069-.3-.094-.25-.144-.207-.394-.294-1.214-.463-.182-.163-.131-.213-1.177-4.207.031-.307.169-.288,4.344-3.625.232-.344.469-.457.194-.15.225-.131.244-.113.538-.175.482-.225.213-.131.488-.538.2-.156.225-.125.538-.163L219,634.6l.914.019.288-.05.263-.088,1.083-.67.244-.081.244-.006.232.081.169.169.131.213.207.883.119.232.207.138.463.2.213.125.376.313.9.989.05.038.119.069.213.044.545.019.194.025.138-.106,1.233-2.128.056-.056.1-.063.638-.282,1.152-.213.313-.119.15-.094.088-.063.526-.5.263-.182.357-.194,1.552-.595.4-.3.15-.144.15-.207.376-.757.188-.288.225-.232,1.171-.682.15-.125.257-.357.075-.05L236,629.5l.588-.019.488-.088.8-.332.194-.119-.119-.069-.764-.344-.169-.119-.113-.113-.407-.482-.2-.169-.219-.119-.25-.081-.57.006-.288-.025-.244-.094-.213-.163-.156-.188-.319-.7-.169-.163-.219-.125-.269-.069-1.008.013-.319-.025-.069-.513-.019-.97.282-2.41.006-1.014-.056-.639-1.158-1.884-.113-.257-.081-.263-.113-.557.05-.326.144-.313.476-.319.394-.131.5-.063,1.208-.038.557-.138.319-.294.106-.826.019-12.476,4.72-17.628.257-1.6-.363.044-.57-.219-.438-.469-.263-.488-.307-.438-.563-.332-1.121-.2-.463-.194-.426-.507-.244-.563-.319-1.139-.294-.532-.444-.413-.476-.2-.5-.131-.538-.219-.482-.419-.225-.5-.182-.532-.319-.532-.476-.351-1.671-.52-1.628-1.033-.664-.163L225,573.1l-.52-1.183.069-.6.469-1.765.25-.532.682-.87,1.408-1.44.764-1.239.25-.319.232-.238.407-.275.495-.545.363-.557.288-.194.263-.075.25-.031.25-.169.795-1.083.169-.319.006-.488-.088-.3-.125-.275-.275-.413-.119-.238-.081-.275-.106-.607-.106-.232-.238-.081-.476-.088-.106-.182-.025-.257.038-.269.482-1.5.088-.557.006-.3-.025-.307-.081-.269-.2-.495-1.108-2.034-.1-.244-.038-.275.069-.326,1.308-1.408.545-.807.156-.175.77-.613,1.127-.613.588-.451.5-.507.15-.25.119-.319.294-1.552.3-.676.52.069.269.094,1.4.219.451.156.144.088.119.1.651.639.15.194.476.914.169.545.1.626.081.269.119.225.319.363.188.156.607.394.194.15.457.488.657.419.476.194.482.138.232.038.363-.075.15-.081.075-.031.094-.069,1.434-1.991.513-.432.62-.094,1.984.275.764-.757.607-1.534,1.121-4.332.213-2,.019-1.39-.288-.682-.025-.144.257-2.153-.094-.507-.169-.319-.369-.238-.232-.219-.595-.714-.131-.225-.175-.207-.263-.213-3.887-1.484-.451-.357-.113-.563.013-.638.632-4.8-.088-.676L244,518.857l-.05-.695.113-.632,1.9-4.6.175-.651-.013-2.579.369-2.485.67-2.091.845-1.859.357-1.033.125-.926-.156-2.786.019-.332.05-.338.113-.382,2.792-5.815.3-.382.732-.563,1.408-.764.394-.156,2.36-.595,3.449-1.634.307-.219.951-.82.532-.57.545-.858.889-2.016,2.811-3.261-8.858-4.87-2.548-.814-3.124-.6-3.155-.175-.833-.319-.751-.5-2.385-2.028-.369-.207-.495-.163-1.027-.207-.495-.182-.764-.075-1.671.426Z" transform="translate(-158.606 -457.19)" fill="rgba(245,199,120,0.65)" stroke="#f5c778" stroke-width="2"/></svg>