<svg xmlns="http://www.w3.org/2000/svg" viewBox="0 0 90.1 211.6"><path d="m77 143 1-3h-2l-3 2-1 2v3l1-2v-1h1v1l1 1h1v-1h1Zm-44 68 8-1h19l11-1v-2h-1l1-3 1-7-1-3 1-1v-2l1-6 1-22 2-13v-2l-3 1-1 1v1l-1 4-1 2v7h-1v1h-2l-1-2-1-1-1-2-2-2-1-1-2-1h-1l-2 1v-2l-1-3-1-3h-1v-1l-1-1-1-2v-1h-1l-1-1h-1v-1l-1-1v-1h-2l-1-1v1l-1 2 1 1h-1l-1-1v-3l1-1h2v-2l2-5 6 2 2 2 2-2v-2l1-1v-2h1v-1l1-1v1l1 1v-1l-1-3 1-2 2-5 1-4 4-5 2-2 19-13-1-4 1-1v-5h-1v-1l-1-1-1-1h-1l-5-1h-1V68h-1l-1-1h-3v-1l-1-8 1-1v-2l-1-2v-1l1-1 1-4v-1l-1-1-4-1-1-1-1-1-1-1v-3l-1-1-4-6-3-4v-1l-1-8 1-1h-1v-1h-1l-2-1-1-1h-3l-1 1h-3l-1-1-2-1-2-1-4-4-1-1-1-1-9-1-1-1h-3l-2-1-1-1h-4l-2-1h-1L4 5 2 6l3 6 2 6v74l-1 4-1 2v3l1 2v2l1 2v8H6l-1 1v1l-4 8v5l3 9 2 1 2 2 5 1-1 2v3l1 3 1 3-1 2-2 6v11l1 2 3 7 1 6v21h8l5 1 4 1Z" fill="rgba(244,199,120,0.65)" stroke="#f5c779" stroke-width="2"/></svg>