<svg xmlns="http://www.w3.org/2000/svg" width="90.065" height="211.572" viewBox="0 0 90.065 211.572"><path d="M203.5,1227.057l.484-2.326.047-.883-2.013.911-2.573,1.661-1.642,2.146.816,2.326.5-1.842-.019-.323.94-.18.256.351.038.541.275.37.816.456.228.323.18-.076.674-.7.228-.484Zm-44.458,67.812,8.326-.238,9.218-.275,10.016-.294,11.041-.332-.228-.759-.617-1.168-.133-.807.816-2.2.161-.8.437-6.323-.437-3.275.171-.94.655-1.8.968-6.038.8-22.167,1.832-12.75-.047-2.127-2.791,1.234-.873.655-.589.949-.655,3.674-.816,2.544-.38,2.117.085,2.1.665,2.525-1.063.095-.835.465-.74.323-.807-.389-1.386-1.215-1.025-1.595-.921-1.813-1.538-1.9-1.054-.816-1.756-1.054-1.813-.389-1.234,1.177-.437-1.709-1.291-3.4-.418-2.43-.389-.456-.551-.4-.617-.579-.513-.883-.636-1.813-.5-.864-.74-.646-1.528-.589-.7-.437-.332-.494-.522-1.32-.361-.608-.589-.294-1.082-.351-1.063-.18-.484.285-.076,2.573.076.389-.759.37-.75-.864-.285-1.481.6-1.519,1.063-.845,1.177-.389.731-2.459,1.842-4.215,5.535,1.709,2.032,1.842,2.022-1.956.418-.892.294-.969.19-1.073.076-1.13.256-.835.57-.5.655-.446.5-.646h.437l.294.722.142.551-.057.456.332-.7-.522-3.93,1-1.7,1.3-5.079,1.633-3.3,3.731-5.335,2-2.279,18.5-13.015-.123-3.513.057-.437.313-1.262.294-1.794.009-.484-.2-1.462-.123-.436-.332-.8-.608-1.073-.342-.4-.5-.408-1.006-.541-1.206-.408-5.069-.57-.3-.1-.237-.693-.114-.731.01-.37.047-.266.294-1.025.057-.436-.37-2.4.028-1.376-.114-.721-.114-.351-.038-.3.076-.342.123-.835-.066-.456-.294-.456-.5-.4-1.054-.484-.7-.18-1.585-.161-.418-.143-.342-.313-.171-.816-.484-8.288.1-.342.19-.323.237-.256.247-.313.2-.323-.028-.541-.218-.759-.684-1.32-.057-1.2.114-1.187,1.187-4.329-.123-.94-.608-.57-3.645-1.519-.959-.617-1.111-.921-.541-.57-.332-.513-.332-1.946-.266-.864-.361-.769-4.4-6.778-2.734-3.256-.2-.361-.161-.389-.123-.446-.351-7.756.066-1.2-.038-.342-.142-.389-.247-.37-.427-.38-.418-.209-1.785-.6-.864-.484-.313-.228-.342-.18-.446-.133-.579-.038-1.433.3-1.718.627-.456.114-.494.057-.646-.048-.712-.171-1.073-.465-1.994-1.263-2.136-.835-.4-.285-3.854-4.348-.579-.5-.636-.418-1.13-.456-8.373-1.215-1.737-.9-.608-.161-2.307-.408-1.291-.446-.313-.228-.892-.541-4.168-.646-1.709-.532-.655-.123-.541-.028-.532.028-8.924,4.386-1.12.712,2.5,5.449,1.794,6.01.389,6.066-.589,5.392.066,10.936.066,13.243.047,9.4.066,12.531.114,17.136-1.225,3.864-.285,2-.085,2.6.266,2.468.74,1.633.418,1.652.665,4.965.01,1.718-.3,1.054-.484.484-.693.418-.911.883-.56.959-3.038,7.956-.427,2.193.294,2.373,2.8,9.142,1.861,1.766,2.051,1.111,4.747,1.225-.94,2.487.38,2.858.845,2.943.494,2.753-.266,2.117-2.354,6.294-.351,2.317.892,8.212.532,2.231,3.37,6.816.74,6.541-.247,20.591,2.089.456,3.626-.427,2.07.076,5.193.854,4.025.664Z" transform="translate(-126.178 -1084.328)" fill="rgba(244,199,120,0.65)" stroke="#f5c779" stroke-width="2"/></svg>