<svg xmlns="http://www.w3.org/2000/svg" width="196.192" height="168.569" viewBox="0 0 196.192 168.569"><path d="M638.722,373.192l.257-.689-.088-.864.388-1.427,1.252-1.3.219-1-.131-1.121-1.6-.169-2.291.52-1.34.651-.52.864-.169,1.9.689,1.684,1.127.951,1.039.344,1.171-.351Zm14.517-142.518-.645-.407-.457-.438-.588-.363-1.734-.275-.263-.207-.238-.044-.6.376-1.146,1.283-.457.369-1.984.657-.87.419-.639,1.3-.651.52-1.352.745-1.264,1.2-2.654,3.286-1.54.839h-.576l-1.5-.332h-1.959l-1,.288-2.7,2.028-.908.332-.876.2-1.928.125-.469.131-.363.294-.313.332-.313.238-.482.138-1.477.225-.732.288-.845.444-.7.526-.294.545-.351.883-.845.839-1.052.682-.964.426-1.784.332-.426.15-.476.682-.382.156-.964.188-1.052.457-1.665,1.039-1.64,1.377-1.114.482-1.728-.726-1.214-.069-2.072.232-1.033.413-.914.682-.664.926-.25,1.152-.463.244-2.811.613-2.016,1.44-1.484.5-2.6,2-.883.288-3.161.407-.695.213-1.571.914-1.108.169-5.909.163-1.828-.495-1.778-.714-1.433-.225-1.44.275-1.452.664-1.84.538-4.081.476-1.847.97-1.628,1.684-.952.707-7.919,1.5-.457.3-.3.488-.72.607-.858.52-.72.194-1.709-.858-.983-1.521-1.089-1.252-2.034-.019-.839.538-1.227,1.484-.664.3-3.7-.332-.926.088-1.027.388-.57.7.438,1.008.013.883-.782,1.208L530,274.211l-.883.607H525.4l-.707.382-1.834,1.9-1.678,2.329-1.346,1.509-1.64,1.377-4.808,2.673-.914.175-.282-.113-.908-.482-.576-.1-.576.075-.269.15-.163.219-3.067,2.56-.9.344-.57.106-.419.257-.782.632-.488.213-1,.257-.463.2-.582.476-1.4,1.527-.275.488-.294.319-2.523,1.027-1.252,1.671-.739,1.477-.194.507-.438.945-2.091,2.185-.351.613-.113.351-.632.964-2.448,2.441,23.537.363.325.338.789.588.7.645.632.707.282.388.106.219.088.244.119.526.106.219.144.194.319.351.238.426.945,2.642.219.275.357.275,1.552.757.156.182.225.488.156.263.275.313.263.063.225-.056,1.064-.588.244-.081.826-.144.244-.075.238-.1.207-.119.188-.156.288-.376.914-1.521.326-.357.664-.5.232-.094.326-.075.6-.031.363.113.776.413.288.182.194.207.513.808.106.225.244.232.357.244.783.288.4.213.232.232.182.632.313.357.344.131.557.044.332.081.25.131.476.469.52.3.394.119.357.025.269-.044.488-.163,1.264-.726.175-.156.469-.557.207-.15.282-.081.714-.044.288-.05.238-.081.426-.238.388-.288.288-.113.382-.075.664-.013.363.088.263.15.156.175.664,1,.307.369.194.2.275.188.413.232.338.069.269-.038.538-.225,1.7.031.319.125.225.15.25.382.163.175.538.476.156.182.119.213.106.225.388.326.645.369,2.341.939.488.3.657.545.526.113.607.244.538.382.807.457.194.219.063.232-.031.263-.063.25.019.269.156.25.682.432.207.188.125.207.432.889.25.407.626.732.689.444.757.388.469.156,2.5.376.294-.013.563-.081,1.07-.288.357-.05.244.081,1.408.739.182.125.332.294.563.413.307.332.156.219.056.069.432.288.444.232.238.213.169.225.144.507.119.25.163.232.845.5.7.507.47.175,1.177.225.326.113.4.288.182.156.313.357.119.219.263.726.15.814.088.244.363.326.614.369,2.16.977,2.31.563.463.213.3.238.088.238.188.782.213.451.156.182.182.163.613.432.157.182.15.188,2.5,1.678.344.288.232.419.3.695.958,1.383.113.225.081.238.238,1.064.106.307.175.332.382.438.182.307.081.294-.031.244.044.3.144.357.814.889.219.282.1.225.056.269.006.288-.019.313-.119.57-.006.3.038.263.106.25.276.438.958,1.2,1,1.665.914,2.391.069.25.044.282-.038.582-.075.269-.088.25-.488.9-.063.263-.031.294.038.576-.019.313-.094.595-.006.3.069.257.6,1.7.445.876.156.507.238.432.582.732.526.808.225.444.357.964.526.776.069.138.225.632.275,1.352.088.238.119.219.57.776.244.419.182.476.282,1.039.15,1.045.006.138.069.351.056.664-.031.613-.031.282-.1.244-.144.194-.225.144-.294.106-.739.125-.495.15-.495.25-.169.138-.163.188-.131.207-.1.244-.063.288-.075,1.628.05.582.088.344.138.357.294.5.232.232.194.144,1.315.588.338.238.244.219.257.419.488,1.164.388.62.432.9.031.269.131.413.219.47,1.2,1.49.307.726.144.244.382.507.125.244.031.282.013.3-.106,1.227.05.482.069.063.006-.194.858.432.657-.432,1.227-1.815.8-.682,7.142-4.576,8.3-4.326,1.189-1.227.451-.319,1.9-.613,1.4-1.158,1.922-1.089.939-.689.789-.839.225-.382.038-.394-.05-.307-.063-.088.507-.588.476-.3,1.265-.457-.25-.232-.444-.545-.244-.225.5.038.482-.038.469-.119.444-.219.056.351.238.645.056.344.789-.3,2.135-1.365-.889-.457-.77-.676-.6-.87-.344-1.014-.038-.582.069-1.208-.031-.582-.526-.069-.326-.175-.075-.426.113-.213,1.415-1.221L637.4,365.1l.87-.25,3.011-.056,1.628-.789,1.271-1.834,1.953-3.768,1.515-1.4.551-.757.213-1.214.282-.926.545-.795.376-.858-.269-1.127-1.671,1.684-1.014.57-.526-.551.194-.444.532-.326.607-.194.438-.069.532-.244.194-.545.1-.62.294-.432,1.991-1.171,9.365-9.828,2.93-4.876.7-.858,1.884-1.383.714-.858.144-1.277,1.189.307.426-.038.632-.269.707-.463.538-.532.4-.626.313-.707-.576.044-.163-.507.169-.739.394-.651.169-.363-.075-.789.081-.369.238-.307.9-.845.269-.326.244-.413.144-.413-.081-.77.213-.319,1.765-1.941.113-.613-.595-.739.983-.52.194-1.358L675,314.08,674.347,313l-1.171-.7-1.214-.163-.951.57-.4,1.477-.7-.476-.833-.294-1.678-.263.332-.726.388-1.765.244-.5.657-.182.951.063.952.219.682.263.945-1.465,1.3-.507,1.465-.194,1.465-.526-1.759-2.4-.595-1.4.419-.883,2.6.695.613-.125.451-.188.482.05.7.595.019-.751-.344-1.07-.5-1.089-.488-.776-.551.119h-2.235l-.751-.119-.808-.664-.263-.826-.056-.92-.182-.914.538.551.526,1.477.394.294.826-.069.851-.238.776-.407.613-.613,1.69-1.759.232-.419.351-.369,2.254-.951.219-.2.113-.263v-.275l-.169-.282-.294-.357-.019-.238.088-.269.651-2.854-.106-.77-.1-.332v-.67l-.056-.319-.244-.4-.294-.275-.275-.194-.156-.163-.4-.833-.088-.52.983-2.779.069-.833-.238-.676-.588-.369-.47.244-.426.482-.476.344-.72.025-.507-.232-.044-.426.626-.551.714-.269,1.44-.332.607-.407.495-1.44-.664-1.471-1.271-1.139-1.321-.463-.588.119-2.836,1.377-.369.376-1.289,4.088-.695,1.127-1,.939-.031-.764.357-2.254-.119.025-.219-.157-.213-.263-.094-.269.964-1-.589-.438-.044-.551.432-.307.839.275-.958-5.308.72.175.9.951.651.194.5-.213,1.108-.9.645-.213-.119-.789.013-.951.225-.914.52-.695-.789-.463-.244-.545.1-1.477-.257-.726-.576-.682-.576-.4-2.31.977-1.171.908.013,1.415-.488.376-.488.238-.488.013-.495-.294.288-.138.707-.526-.563-.426.081-.495.144-.488-.326-.413-.419.025-.526.933-.645.207.275-1.371-.689-1-.319-.82,1.377-.826,1.352-.207.613-.219.463-.557.1-.67-.244-.576-.457-.457-.545-.326,1.84-.707.538-.588.225-1.3-.088-1-.476-2.122-.106-1.208-.113-.394-.257-.457-.313-.407-.732-.707-.094-.532-.031-.532-.613-1.3-.732-5.753-.232-.876-1.289-2.786-.15-1.089.52-.952,1.546-1.44.613-.739-.056-.319-.97-.319-.726-.757-.689-.883-.82-.682-1.033.482-1.283-.025-1.1-.545-.463-1.052-.319-1.07-.82-.426-2.222-.013-1.784.351-3.894,1.2-1.916-.194Z" transform="translate(-487.489 -228.413)" fill="rgba(245,199,120,0.65)" stroke="#f5c778" stroke-width="1"/></svg>