<svg xmlns="http://www.w3.org/2000/svg" viewBox="0 0 196.2 168.6"><path d="M151 145v-2l1-1 1-2v-2h-1l-3 1h-1l-1 1v2l1 2 1 1h2ZM166 2h-1V1h-4l-1 1v1h-2l-1 1-1 1h-1l-1 1-1 1-3 4-1 1h-1l-1-1h-3l-3 3h-4l-1 1h-1l-1 1h-2v1h-1v1l-1 1-1 1h-3v1h-1l-1 1h-1l-2 1-1 2h-1l-2-1h-3l-2 1v1h-1v2h-4l-2 2h-1l-3 2-1 1h-3l-2 1h-1l-6 1-2-1-2-1h-3l-1 1-2 1h-4l-2 1-1 2h-1l-8 2h-1v1h-1l-1 1-2-1-1-1-1-2h-2l-1 1-1 1-1 1-4-1-2 1v4l-1 1h-5l-1 1-2 2-1 2-2 2-1 1-5 3h-1l-1-1h-2l-3 3h-1v1h-2v1h-1l-1 1-1 1-1 1-3 1-1 2-1 1v2l-2 2H4v2l-3 2h24v1h1l1 1v1h1v2h1l1 3 2 1v1l1 1v-1h2l1-1 1-2 1-1h2v1h1v1h1v1h2v2h2l1 1h1v-1h1l1-1h2v-1h3v1l1 1h4v1h1v1h1v1l3 1 1 1h1l1 1v1h1v1h1v1l1 1 1 1h6l1 1h1v1h1v1h1v1l1 1h2l1 1h1v2l1 1h1l2 1 2 1h1v2h1v1l3 2h1v1l1 1v2l1 1v1l1 1v1h1v1h-1v1h1v1l1 1 1 1 1 3v1l-1 1v3l1 2v1l1 1 1 1v1l1 1v3l1 1 1 1v4h-2v1h-1v4h1v1h1l1 1v1l1 1v1l1 1 1 1v1l1 1v2l1 1v-1l2-2 7-5 9-4 1-1v-1h2l2-1 2-2h1v-1h1v-2h1l1-1h-1v-1h2v1h1l2-1-1-1h-1v-1l-1-1v-3h-1l1-1 1-1 3-1 1-1h4l2-2 2-4 1-1 1-1v-2l1-1v-2l-2 2h-1v-1h1l1-1v-1h1l2-1 9-10 3-5 1-1 1-1 1-1v-2l1 1h1l1-1 1-1v-4l1-1h1v-3l2-2v-1h1v-3l-1-1-1-1h-2l-1 2-1-1h-2v-1l1-2h3l1-1 1-1h2l1-1-1-2-1-1v-1h5v1-2l-1-1v-1h-4v-1h-1v-2h1v2h2l1-1h1l1-2 1-1 2-1v-2l1-2v-1l-1-1v-1l-1-1v-1l1-3v-1l-1-1v1h-2v-1h2l1-1v-3l-2-1h-1l-3 1-1 1-1 4-1 1-1 1v-1l1-2h-1v-1l1-1h-1v-1h2l-1-5 1 1h1l2-1v-3l1-1h-1v-3h-1v-1l-3 1-1 1v2h-2l1-1v-1l-1-1v1h-1v-1l-1-1v-1l2-1h1l1-1v-1h-1v-1h2v-7h-1v-1h-1v-3l-1-6-2-3v-1l1-1 1-2h1V6h-1l-1-1-1-1h-3l-1-1V2l-1-1h-4l-4 1h-2Z" fill="rgba(245,199,120,0.65)" stroke="#f5c778"/></svg>