<svg xmlns="http://www.w3.org/2000/svg" viewBox="0 0 196.9 207.4"><path d="m180 3-1-1h-1V1h-2l-3 1h-3v1l-3 1-1 1v3h-1v1l-1 2v4h-1l-1 1-3 1-2 2-1 1h-4l-1 1h-2v2h-1v1h-2l-3-1-1-1h-2l-2 1-2-1-4-1h-1l-2-2-1-1-1-2-1 1h-8v-1l-1 1-2 2-1 2h-1v1h-2l-1 1h-1l-1 1h-4l-1-1h-1v-1h-7l-1 1h-3l-1-1-2 1-1-1v-4l-1-1v-1h-1l-1-1h-2l-2-1v-1h-1l-1 1-1-1v-2l-1-1h-2l-2-1h-2l-2 2-1 1h-2l-1 1 1 1h-1l-1 1v1l-1 1h-2l-1 1h-3l-1-1H30l-15-1-2 1v7l-2 5-4 5-5 8-1 2v3l1 4 3 10 3 9v6l1 6 1 6v13l2 4 1 1 1 2v1h8l1 1h2l1 1 5 5 4 3 4 5 6 6 4 5 4 5 3 6 4 6 5 6 2 2 1 2 3 3 1 1v11h2l-2 4-1 3-2 5-1 2v1l1 1 1 4 1 6v2h1l16-1v1h1l1 1h2l1-1v-4l1-1 2-3h3v-1h1l2-1h2l1-1 3-3v-1h1v-1h1v-1l2-3v-3l3-2v-1l1-1 2-2v-2l1-1 1-2 3-1v-1l2-1v-1h2l1-1h1l1-1 3-2h1v-1l1 1h2l5-3 1-1 2-2 1-2 2-2h5v-1l2-1v-4h7l1-2h3l1 1 1 2h3l1-1 1-1 8-1 1-1 1-2 2-1h4l2-1h1l-2-3-1-1-3-5-1-1v-2l-1-1-1-1v-1l-2-4v-3l-1-1-1-1v-5h-1v-3h-2v1l-1-1v-3l1-1 1-1 1-1v-1h1v-1h1v-1l1-1v-1h1v-3l1-1v-2h-2l-2 1h-2v-1h-1v-1h-2l-2-1h-1v-1l1-1h1V77l1-1v-3l1-1v-2l-1-1v-3l1-1v-2l-1-1v-1l1-1h1v-1h1v-1l1-1 1-1 1-1 1-1v-4l1-1v-2h1l1-1 1-1h1v-1l2-1v-1l1-2v-1l1-1 1-1v-2h1v-1h1v-2l1-3v-1h-1v-1l-1-1v-1l-1-1v-1l1-3v-4h1v-3l1-1v-1l2-2-2-1-3-1-2-1-3-2-1-2h-3l-1 1h-1ZM11 36h3l1 2-1 2-1 1h-1v-1l-1-1-1-1v-1l1-1Zm6 7h-1l-1-1v-1l1-1v-2l1-1h1l1 1h1v3l-1 1-1 1h-1Z" fill="rgba(245,199,120,0.65)" stroke="#f5c778" stroke-width="2"/></svg>