<svg xmlns="http://www.w3.org/2000/svg" width="196.935" height="207.426" viewBox="0 0 196.935 207.426"><path d="M490.639,61.386l-.557-.156-.926-.676L488.7,60.4l-.15-.094-.25-.444-.081-.119-.288.006-.238.113-.144.144v.075l-.369-.013-1.058-.019-2.692.457-.444.476-.419.106-1.915.119-.776.188-2.955,1.69-.326.413-.119.707-.726,2.166-.438.588.063.858-1.127,2.022L474,70.914l.188.639.282.595.088.588-.388.639-.588.526-.977.695-3.424,1.515-2.091,1.684-.876.5-1.008.182-1.5.013-1.02.2-1.7.9L460,79.8l-.57.257-.363.595-.269.664-.263.482-.388.338-.319.169-.9.15H455.86l-2.329-.657-.382-.194-.839-.889-.545-.263-.438.031-.369.182-.369.238-.457.207-1.684.182-2.053-.219-4-.914-1.653-.8-1.646-1.39-1.277-1.609-.563-1.477-.739.432-.419.319-.444.194-4.351.394-.695-.138-1.171-.757-.926-.069-.451-.232-.795.269-2.128,2.535-1.308,1.928-.426.4-.538.288-1.734.664-.457.376-.257.313-.344.219-1.252.138-.7.244-2.955.476-.814-.094-1.177-.588-.263-.1-.3-.25-.282-1.127-.369-.263h-5.5l-.225.106-.238.225-.326.219-1.484.225-1.709.495-.689.075-.488-.144-.732-.444-.563-.1-1.941.332-.538-.376-.426-.87-.138-.989.3-.72-.313-.958-.113-1.089-.263-.9-.757-.369-.426-.1-.319-.244-.307-.326-.394-.313L393.919,74l-1.039-.269-.463-.188L390.7,72.479l-.983-.444-.676.044-.908.269-.883-.463-.419-.908.444-1.077-.814-.983-.626-.313-1.772.019-.3-.088-1.333-.57-1.928-.357-.62.426L378.413,69.9l-.833.657-2.366.432-.864.513.363,1.058-.563.369-.526.639-.394.67-.326.983-.476.307-2.535.67-.056-.006-1.1.626-.776-.2-.757-.3-.513.038-.063.826L366.094,77l-.213-.269-.125-.332-.25-.363-.419-.319-.219-.025-.182.106-.307.088-.013.05-.626.25-.207.019-1.158-.056-.438-.144-.307-.307-.081-.263-1.966.056-19.631-.2L325.2,75.127l-1.621.4-.451.613v.876l.319,2.085-.094,1.941-.357,1.9-1.909,4.726L317.5,93.1l-5.058,7.687-1,2.435-.225,2.166.075.269,1.164,4.15,2.767,9.822,2.6,9.277.613,5.4.77,6.767.651,5.784.545,4.82-.307,4.094.119,3.962,1.546,3.512.056.094.163.156.795.8.551.757.958,1.709.219.538.056.288.138.2.507.263.757.15,6.022-.1,1.609.25,1.577.57.038.025,1.434.9,4.808,4.413,4.119,3.793,4.094,4.914,5.064,6.066,4.3,5.158,4.031,4.839,3.155,6.1,4.075,5.183,4.945,6.279,1.7,2.166,1.709,2.172,2.291,2.335.551.707.269.826.482,10.185.313.432.607.094,1.014-.031-1.765,4.2-1.3,3.08-2.279,5.383-.313,1.221.013,1.139.194.789,1.1,4.557,1.34,5.484-.131,2.009h1.2l15.712-.131.419.056.3.1.213.131.538.513.213.138.25.094.288.063.257.094.244.106.407.275.463.238.263.081.357-.113.4-.307.576-.9.257-.5.144-.444.069-.977-.05-.582-.063-.269-.019-.269.013-.269.081-.244.106-.225,1.008-1.327,1.308-2.56.163-.219.194-.182.351-.094.288.019.833.207.282.006.275-.031.238-.088.789-.463.3-.075.582-.088L410.5,255l1.678-1.2.338-.138.25-.044.595-.038.269-.05.238-.1,1.5-.908,2.61-2.936.638-.526.207-.313.232-.651.213-.363.326-.257.338-.213.326-.326,1.922-2.986.188-.739-.056-2.028,2.448-2.441.632-.964.113-.351.351-.613,2.091-2.185.438-.945.194-.507.739-1.477,1.252-1.671,2.523-1.027.294-.319.275-.488,1.4-1.527.582-.476.463-.2,1-.257.488-.213.783-.632.419-.257.57-.106.9-.344,3.067-2.56.163-.219.269-.15.576-.075.576.1.908.482.282.113.914-.175,4.808-2.673,1.64-1.377,1.346-1.509,1.678-2.329,1.834-1.9.707-.382h3.712l.883-.607,1.077-1.114.782-1.208-.013-.883-.438-1.008.57-.7,1.027-.388.926-.088,3.7.332.664-.3,1.227-1.484.839-.538,2.034.019,1.089,1.252.983,1.521,1.709.858.72-.194.858-.52.72-.607.3-.488.457-.3,7.919-1.5.952-.707,1.628-1.684,1.847-.97,4.081-.476,1.84-.538,1.452-.664-2.823-2.46-.664-.87-.131-.513-.207-.444-2.792-4.144-.3-1.008-.225-.326-.394-.438-.156-.326-.05-.313.013-.288-.031-.269-.081-.244-.607-1.327-.213-.344-.263-.294-.676-.632-.225-.369-1.477-3.75-.069-.294-.2-.651-.069-.307-.019-.313.063-.6-.025-.451-.106-.538-.294-.939-.238-.545-.664-1.121-.7-.939-.163-.338-.069-.338-.006-.3.313-1.8.013-.369-.056-.532-.294-.538-.294-.776-.307-1.158-.2-.338-.257-.182-.257.006-.244.069-.225.1-.207.119-.2.138-.257.056-.282-.019-.432-.288-.188-.275-.125-.363-.394-2.072V164l.05-.263.063-.213.081-.144.1-.15.77-.864.964-.72.876-.783.607-.388.351-.307.826-.851.138-.2.106-.232.15-.545.094-.257.131-.207.144-.188.507-.495.138-.2.275-.757.138-.2.307-.369.094-.232.038-.282-.038-.551.025-.269.094-.219.263-.388.044-.244-.006-.545.044-.244.094-.225.47-.532.106-.232.038-.4-.063-1.333-.144-.382-.194-.169-.551-.025-.557.069-.225.075-.219.106-1.69,1.121-.2.056-.169-.031-.507-.15-.582-.119-.526-.169-.232-.113-.207-.125-.338-.338-.282-.369-.169-.169-.194-.15-.225-.119-1.027-.344-2.416-.463-.3-.138-.282-.307-.025-.25.063-.244,1.039-1.321.25-.444.081-.307.05-.332.019-.9.119-.394.063-.394.031-.526-.094-1.6.013-.463.138-.557.038-.332.019-.382-.063-.526v-.388l.169-1.2-.075-.939.056-.482.106-.338.313-.357.119-.219.088-.257.05-.294.031-.307-.125-1.44.025-.282.069-.263.588-1.121.044-.319-.088-2.216-.138-.413-.232-.463-.1-.319-.031-.332.482-2.3.163-.513.144-.833.031-.8-.044-.438-.081-.338-.288-.495-.413-.983-.006-.357.094-.257.194-.131.657-.369.776-.563.338-.332.282-.388.25-.426.288-.376,1.333-1.333.864-1.146.526-.463.826-.476.219-.275.194-.426.369-2.98.207-.833.7-1.684.225-.858.106-.313.213-.144.451-.213.188-.144.613-.62.532-.714.156-.157.175-.138.2-.119.914-.388.595-.351L498.4,101.7l.15-.463.119-.726.119-1.653.131-.72.163-.457.188-.1.964-.376.207-.163.182-.213.426-1.089.194-1.127.106-.244.144-.163.576-.369.62-.651.113-.194.075-.219.207-1.315.081-.244.113-.2.144-.495.313-2.416.019-.757-.038-.52-.219-.407-.52-.77-.444-.507-.432-.826-.125-.188-.238-.5-.282-1.108-.019-.426.282-3.405.338-1.383.125-1,.106-.5.125-.357.238-.363.125-.269.1-.363.169-1.014.563-1.371.257-1.321.081-.232.094-.219.119-.2,1.772-2.4.025-.088-.025-.013-1.383-.808-3.731-.945-1.665-.858-2.6-2.742-1.684-1.177-2.178-.344-.463.131-1.045.438-.538.094Zm-169.6,33.352,1.684-.357,1.371.8.645,1.471-.444,1.665-.97.97-.714-.031-.588-.626-.6-.864-1.252-1.427-.106-.8.933-.776.044-.025Zm5.947,7.049-.939-.319-.6-1-.019-1.008.307-1.127.87-2.091.626-.432,1.008.063,1.07.376.745.513.388.97-.15,1.214-.52,1.2-.739.9-.983.57-1.064.175Z" transform="translate(-310.206 -58.728)" fill="rgba(245,199,120,0.65)" stroke="#f5c778" stroke-width="2"/></svg>