<svg xmlns="http://www.w3.org/2000/svg" width="133.071" height="226.045" viewBox="0 0 133.071 226.045"><path d="M330.094,536.4l-.545-.344-1.064-.858-3.023-1.546-.607-.445-.338-.526-.451-.207-1.214-1.12-1.471-1.027-.757-.807-.62-.826-.219-.451-.063-.307V527l-.05-.282-.607-1.759-.244-.376-.732-.814-.207-.394-.413-2.1L316.1,517.86l-.495-.676-.094-.238-.175-.689L314.569,515l-.182-.451-.257-.056-.094-.989-.551-1.891-.9-2.059-1.884-3.193-1.158-4.9-.67-1.49-.394-.495-4.244-3.593-1.1-.545-3.581-1.027-3.537-1.941-2.811,3.261-.889,2.016-.545.858-.532.57-.951.82-.307.219-3.449,1.634-2.36.595-.394.156-1.408.764-.732.563-.3.382-2.792,5.815-.113.382-.05.338-.019.332.156,2.786-.125.926-.357,1.033-.845,1.859-.67,2.091-.369,2.485.013,2.579-.175.651-1.9,4.6-.113.632.05.695,1.371,5.258.088.676-.632,4.8-.013.639.113.563.451.357,3.887,1.484.263.213.175.207.131.225.595.714.232.219.369.238.169.319.094.507-.257,2.153.025.144.288.682-.019,1.39-.213,2-1.121,4.332-.607,1.534-.764.758-1.984-.275-.62.094-.513.432-1.434,1.991-.094.069-.075.031-.15.081-.363.075-.232-.037-.482-.138-.476-.194-.657-.419-.457-.488-.194-.15-.607-.394-.188-.156-.319-.363-.119-.225-.081-.269-.1-.626-.169-.545-.476-.914-.15-.194-.651-.638-.119-.1-.144-.088-.451-.156-1.4-.219-.269-.094-.52-.069-.3.676-.294,1.552-.119.319-.15.25-.5.507-.588.451-1.127.613-.77.613-.156.175-.545.807-1.308,1.409-.069.326.038.275.1.244,1.108,2.034.2.495.081.269.025.307-.006.3-.088.557-.482,1.5-.038.269.025.257.106.182.476.088.238.081.106.232.106.607.081.275.119.238.275.413.125.275.088.3-.006.488-.169.319-.795,1.083-.25.169-.25.031-.263.075-.288.194-.363.557-.495.545-.407.276-.232.238-.25.319-.764,1.239L256,580.709l-.682.87-.25.532-.469,1.765-.069.6.52,1.183,1.509.1.664.163,1.628,1.033,1.671.52.476.351.319.532.182.532.225.5.482.419.538.219.5.131.476.2.444.413.294.532.319,1.139.244.563.426.507.463.194,1.121.2.563.332.307.438.263.488.438.469.57.219.363-.044-.257,1.6-4.72,17.628-.019,12.476-.106.826-.319.294-.557.138-1.208.038-.5.063-.394.131-.476.319-.144.313-.05.326.113.557.081.263.113.257,1.158,1.884.056.638-.006,1.014-.282,2.41.019.97.069.513.319.025,1.008-.013.269.069.219.125.169.163.319.7.156.188.213.163.244.094.288.025.57-.006.25.081.219.119.2.169.407.482.113.113.169.119.764.344.119.069-.194.119-.8.332-.488.088-.588.019-.119.025-.075.05-.257.357-.15.125-1.171.682-.225.232-.188.288-.376.757-.15.207-.15.144-.4.3-1.552.595-.357.194-.263.182-.526.5-.088.063-.15.094-.313.119-1.152.213-.639.282-.1.063-.056.056-1.233,2.128-.138.106-.194-.025-.545-.019-.213-.044-.119-.069-.05-.038-.9-.989-.376-.313-.213-.125-.463-.2-.207-.138-.119-.232-.207-.883-.131-.213-.169-.169-.232-.081-.244.006-.244.081-1.083.67-.263.088-.288.05-.914-.019-.313.025-.538.163-.225.125-.2.156-.488.538-.213.131-.482.225-.538.175-.244.113-.225.131-.194.15-.469.457-.232.344-4.344,3.624-.169.288-.031.307,1.177,4.207.131.213.182.163,1.214.463.394.294.144.207.094.25.069.3.094,1,.138.582.131.238.582.808.257.476.1.275.056.351-.044.282-.939,2.523-.144.695-.013.5.069.319.025.457-.038.613.038.664.156.657L255.8,683.045l.657.363,5.6,2.028.507.426.2.595.081.664.213,10.348.15.52.382.219.588.106,3.806.319.476.156,4.739,3.693.307.351.213.326.144.513.006.363-.05.307-.269.739-.125.219-.144.2-.169.182-.394.307-.939.488-.513.207-.263.188-.232.294-.275.545-.069.457.013.463.094.57-.019.369-.088.288-.175.175-.707.388-.219.219-.244.72-.119.657-.25,3.543,5.4-.482.576.288.607.507.783.207,1.1-.626,1.315-1.584.951-.488,1.121.495,1.427,1.258.751.319h.826l1.471-.92,1.358-1.7,2.047-3.305,1.321-1.064,5.459-1.69,2.266-1.8.789-.269.588-.081.457-.125.426.019,2.059,1.671.482.238,1.5-.219,1.008-1.1.776-1.208,2.542-1.753.307-.382.213-.413.507-.326,4.82-2.016,3.662-.563.626-.182.989-.732.808-.088h.275l.038-.338-.2-.476-.044-.182-.081-.119-.319-.288-.933-.557-.67.163-1.315,1.083-.025-.764.125-.714.25-.67.319-.6-.551-.714-1.44-1.352-.288-.876.15-.532.657-.682.156-.351-.094-.626-.275-.338-.407-.031-.513.307.069-1.34-.031-.714-.188-.488-1.534-1.3-.244-.419-2.241-.169-.557.125-.469.188-.376.288-.269.432-.207-.939.532-.538.626-.476.044-.795-.62-.369-1.346.989-.25-.463-.081-1.052-.219-.795-.357-.645-.488-.62-.864-.695-.814-.351-.626-.476-.388-1.052-.72.582-.338-.495-.119-1.3-.739-.263-.983.238-1.646.864.225-.613,1.859-1.59.232-.682-.056-.839-.194-.732-.144-.338-.482-.238-1.008-.188-.613-.432-.388-.5-.332-.657-.25-.739-.169-.739.782.507.626.113.613-.225.726-.538.225-.538-1.108-.776.25-.739.964-1.07.213-.52.5-1.684.313-.707.357-.607.388-.407v-.313l-3.418-1.9-.726-.845.044-.357.006-.288-.05-.376.4.789.532.025.664-.307.782-.2,1.471.876.914.269.394-.6.088-.344.382-.47.125-.419-.031-.438-.232-.739-.15-.757-.413-.732-.144-.375-.063-.488.063-1.1-.106-.407-.188-.4-.088-.432.225-.476.244-.294.15-.232.088-.269.05-.413-.038-.645-.307-1.615-.031-.814.369-1.427-.175-.4-.833-.257-.482.194-.563.357h-.444l-.119-.858,1.221.15,1.058-.9.72-1.377.219-1.327-.188-.444-1.1-1.265-.419-.8-.294-.4-.426-.163-.839-.169-.476-.175-.288-.188-2.5-3.668-.407-.764-.326-1.546-.444-.582-.67-.332-.826-.113-.795.2-.9.8-.739.05v-.376l.582-.307.495-1.39.72-.319.7.1.826.25.751.326.457.319.275.714.175.914.313.77.707.332.394.438,1.859,2.817.532.376,2.247.839,1.991,1.784.394.263.351.294.207.695.25,1.433.338.757.4.363,1.484.589,2.567-1.709,1.283-1.54.532-.376.432.52,1.421-1.1,2.567-2.673,1.183-.326,1.628-.72,4.507-4.745,5.521-4.463,4.789-5.146,2.423-3.249.263-.463.131-.495.175-.394.407-.169.545-.094.344-.244,2.1-2.435.394-.689h-.964l2.3-2.335,1.246-1.008,1.3-.739v-.338l-.676.094-.269.069-.338.175,1-1.878.651-.657.595.15.482-.426.726-1.089.426-.495,6.779-4.676.288-.789-.319-.038-.426.244-.351.094-.156-.488.113-.488.282-.382.4-.25.457-.113.6.269.432.588.563.426,1.008-.238.557-.588.282-.851.194-.9.275-.72.576-.532.463.038.188.538-.288,1.014,1.546-.207.989-.751,2.254-3.374,1.415-1.59.269-.182.451-.075.432.169v.219h.013l.063-.05.67-.156.645-.382.551-.532.833-1.271-.075-.3-.839-.92-.82-1.221-1.158.444-.864-.213-.182-.495.883-.413-.344-.926-.225-1.628.188-1.54.9-.682.833-.125.113-.351-.238-.532-.225-.689.063-2.285-.219-.563-.307-.589-.651-1.89-.025-.4-.319-.257-.225-.6-.269-1.208-.413-1.146-.469-.926-.682-.814L364.536,567l-.5-.495-.638-.858-.495-.344-2.022-.751L358,563.094l-.952-.977.125-1.271-.307-.363-.714-1.327-.344-.438-1.233-1.258.5-1-.933-.8-2.341-1.089-1.715-1.465-.958-.538-1.484-.357-1.121-.664-.682-.2-.451.056-1.2.313h-.6l-.639-.269-1.446-1.433-.595-.357-.595-.263-.526-.338-.388-.582-.563-1.34-.394-.563-.576-.52-1.721-.952-.394-.538-.238-.807-.294-1.772-.275-.808-.257-.063-.213-.382-.814-.714-.275-.476-.626-.363-1.565-1.966-.52-.444-.588-.376Z" transform="translate(-239.126 -491.104)" fill="rgba(245,199,120,0.65)" stroke="#f5c778" stroke-width="2"/></svg>