<svg xmlns="http://www.w3.org/2000/svg" viewBox="0 0 133.1 226"><path d="M91 45h-1l-1-1-3-1v-1h-1v-1l-1-1-2-1-1-1v-2l-1-2v-1h-1v-1l-1-2-1-3-1-1v-1l-1-1v-2l-1-1-1-3-1-3-2-5V9l-1-1-4-3-1-1-4-1-3-2-3 4-1 2-1 1-1 1-4 2h-2l-2 1v1h-1l-3 6v6l-1 2-1 2v5l-2 5v1l1 6v7l4 1 1 1 1 1v7l-1 4-1 2v1l-2-1-1 1h-1l-1 2h-2l-1-1-1-1-1-1v-2l-1-1h-3l-1 2v1h-1l-1 1-1 1-1 1-1 1v1l1 2h1v2l-1 1v1h1v2h1v1l-1 2h-1l-1 1-1 1-1 1-1 2h-1v1l-1 2 1 2h2l2 1h1l1 1v1h1v1h2v1l1 1v1l1 1h1l1 1v1h1v1l-5 18v14h-3v2l1 2v5h2v2h2l1 1h1v1h-3v1h-1v1h-1v1l-2 1h-1v1h-3l-1 3h-1l-1-1v-1h-1l-1-1v-1h-1l-1 1H9v1H7v1H6v1l-5 3v1l1 4 1 1h1v1l1 1v2h1v1l-1 3v4l12 12 6 2v1h1v12h1l4 1 5 3v1h1v1l-1 1v1h-1l-1 1-1 1v2h-1v5h6v1h1l1-1 1-1 1-1 1 1 2 1h1l2-1 1-1 2-4 2-1 5-1 2-2h2v-1h1l2 2h2l1-1v-1l3-2 1-1 5-2 4-1 1-1h1v-1l-1-1-1 1-1 1v-4l-2-1v-2h1v-2h-1v1-3l-2-1v-1h-3v1h-1v-1l1-1-1-1-1 1v-1l-1-1v-1l-1-1h-1l-1-1v-1l-1 1v-2h-2l-2 1 1-1 1-2h1v-1l-1-1-1-1h-1v-1h-1v-2l1 1h1l1-1-1-1v-1l1-1 1-2v-1l1-1-4-2v-2 1h1l1-1 2 1v1l1-1v-4h-1v-4h1v-1l-1-2v-1l1-1v-1h-2v1h-1v-1h1l1-1 1-1v-2l-1-1v-1l-1-1h-2l-2-4-1-1v-2h-3v1h-1v-1l1-1 1-1 1 1h1l1 1v2h1l2 3 1 1h2l2 2v1h1v3h1l1 1 3-2 1-2h1v1l1-2 3-2 1-1h2l4-5 6-4 5-6 2-3v-1h2v-1l2-2v-1h-1l3-2 1-1 1-1h-1l1-2h1l1-1 1-1 7-5v-1h-1v-1h2v1h2v-2l1-1v-1h1v2h1l1-1 3-4 1-1h2l1-1 1-1v-1l-1-1-1-1-1 1-1-1h1v-1l-1-2 1-2h1v-5h-1v-3h-1v-3l-1-1-1-1h-1v-1h-1v-1l-2-1-3-1-1-1v-2l-1-1-2-2 1-1h-1l-2-2-2-1-1-1h-1l-2-1h-1l-1 1h-1v-1l-2-1-1-1-1-1v-1l-1-1-2-1v-1h-1v-3h-1v-1l-1-1-2-2-1-1Z" fill="rgba(245,199,120,0.65)" stroke="#f5c778" stroke-width="2"/></svg>