<svg xmlns="http://www.w3.org/2000/svg" viewBox="0 0 242.1 182.9"><path d="M148 11v-1h-1l-1-1-1-2V3l-1-1-3-1-3 1-4 1-6 2-8 3-8 3-7 2-5 2-5 1-4 1-1 1-4 1-5 2-6 2-7 2-3 2-4 2-4 2-5 1-6 1-5 2h-1l-6 1-5 1-7 3-4 1-5 2-4 2-4 2H1v7l2 6 1 2 2 1 1 1v1l1 1v4l1 1v1l-1 2v2l1 1v1l1 1-1 1v17h22l2 1 2 1 1 1h3v-1l1-1h1v1l1-1 1-1h2l5 1 1 1 1 1 1 2 1 1h1v1l1 1h1-1 2l1 1h1l2 1h8l1 1 1 1 3 3 1 1 2 1h1v3l1 1 5 1h13l5 2 8 3 5 3h1v4l2 1h1l1-1 1 1h5l2-1h1v1l-2 5v2l-1 1-3 3v1l2 4 2 4 1 3 1 3v3l1 1 1 1h1v1l-1 1h1l1-2-1-1 1-1 2-4v-5l1-1v-1l1-1h1v-1h1l1-1h1l1-1v-1l1-5h1l1-3 1-1h-1l1-1v-2l1-1h1v-1h1v-1l2-3 1-1-1-1 1-1-1-1h1l1-3 1-1 2-1h8l2-1h2l1 1 2 2 1 2 2 2 1 1 1 1h2v2h5l1 1 2 2h1l1 1h6l3 1 9 5 3 2 4 1 1 1 4 3 1 1v1l1 5 2 3 1 2 1 2v2l1 1v1l1 1 1 3 1 2 1 1v4h1v1l1 1 2 1 1 1 1 1 3 2 1 1h1v-17h1v-1l-1-2-1-2v-6l-1-1h-7l-2-1h-1v-1l-2-3 1-1 1-1 1-1 1-1 1-1v-3l-1-2-1-1h-4l-1-1-1-1h-1v-1h-2v-2h-1v-1h-2v-2l-1-1-2-2-1-2-1-1-3-1-1-1v-2h-1l-1-1-1-1-2-4-1-1h-3l-1-1-2-5v-1l1-3v-2l-1-1-4-4h-1l-1-1-1-1v-6l2-1v-1h1l1-1h1l3-4v-8l1-1 1-2h1l1-1v-2l1-1h1v-1l1-1v-5l-1-3 1-1v-2l-1-1h1l1-2v-2l-1-1v-1l-1-1v-7l-1-1-1-2 1-3v-2l-1-1-2-3-1-1-2-3v-1l-1-1h-3v1l-1-1v1l-5 1h-3l-2 1-1 2-5-1h-1l-2 1-2 1-2 1h-1l-2-2h-1l-1 1-1 1v3h-2v-2l-1-2-1-1h-1l-1-1v-1l-1-1-2-1-1-1-1-1-2-5-1-1-1-1Z" fill="rgba(245,199,120,0.65)" stroke="#f5c778"/></svg>