<svg xmlns="http://www.w3.org/2000/svg" width="242.067" height="182.873" viewBox="0 0 242.067 182.873"><path d="M147.907,283.237l-.131-.257-.338-.313-.419-.169-.67-.438-.394-.451-1.177-1.947-.207-.876.238-2.41-.52-1.377-1.052-.833-2.6-1.446-3.418,1.177-4.1,1.408-5.916,2.034-8.106,2.779-7.912,2.729L104.07,285.3,99.124,287l-4.376,1.5-3.781.7-1.8.557-3.549,1.646-4.726,1.571L74.7,295.036l-6.723,2.241-3.236,1.709-4.376,2.322-4.038,1.509-4.9,1.2-6.06,1.477-4.876,1.2-.839.063L33,308.288l-4.676,1.083-6.529,2.4-4.006,1.484-5,1.84-4.376,2.2L4.92,319.043l-4.119.5-.776.207v.025L0,320.094l.332,1.452v2.178l.232,2.11,1.753,6.091,1.171,2.322,1.527,1.008.676.257.595.638.495.864.326.908.2,1,.125,3.18.144.557.695.97.15.469-.125.488-.864,1.69-.307,1.077.1.676,1.346,1.434.244.382.538,1.44-.106.125-.664.269.069,3.95.069,4.657.1,5.853.056,3.405,5.283-.038,3.38-.025,7.675-.056,5.064-.031,2.1.438,1.9,1.34.757.814.695.532.782.113,1.052-.457.551-.476.87-1,.689-.357.4.1.369.288.357.019.388-.689,1.177-.732,2.091.163,4.776,1.139.889.332.77.557.676.851.883,1.653.588.682.914.5.469.332.2.451.15.457.294.326.175.031.369-.088.188-.025.225.131-.013.225-.063.238.088.144.914.119,1.02.013.939.138.7.5,1.815.908,7.856.526,1.158.52,1.29,1.077,2.854,3.13.908.776,1.972,1.039.563.476.413.864.232,1.878.407.745.751.363,4.889.789,9.3-.238,3.706.57,4.858,1.966,7.455,3.023,5.628,2.279.532.495.232.707.031,1.133.469,1.934,1.252.964.269.113.019.006.4-.275.657-.257.732-.119,1.471.088,2.886.645,1.477.1.764-.219,1.408-.9.782-.332.582-.069-.326,1.408L127.97,409.5l-.808,1.577-.739.977-3.374,3.318.063.313,2.66,4.757,1.966,3.505,1.208,2.842.639,3.042.063,1.834.019.488.175,1.077.488.977.413.344,1.052.588.326.438.038.789-.288.77-.219.338,1.221-.5.338-1.39-.038-.282-.088-.382-.131-.294-.144-.426.05-.269.469-.595.394-.6,1.753-3.5.106-.407.013-.3-.394-1.171-.025-.538.094-.388.225-.469.088-.4.075-1.083.563-1.515.582-.914.369-.463.5-.463.394-.275.163-.169.3-.394.169-.175.219-.119.257-.094,1.653-.269.3-.113.307-.2.413-.376.188-.275.1-.2.05-.57.25-1.139,1.552-4.545.15-.326,1.571-2.291.225-.513.081-.407-.038-.257.006-.275.2-.808.019-.263-.044-.695.044-.557.106-.338.144-.263.8-.908.595-.426.219-.106.545-.188.275-.219.119-.282.075-.382.156-.3,2.7-3.424.225-.457.075-.382-.075-.232-.244-.419-.031-.269.131-.726.019-.351-.106-1.127.382-.294,1.559-2.347,1-.989,1.164-.764,1.264-.495,1.577-.207,4.732.419.77-.081,2.116-.776.582-.125h1.765l.119-.163.858,1,1.346,2.16,1.6,2,1.427,2.31.9.757,1.183.62.563.169.82.063.557.25.232.582.169.682.363.526.757.182,1.671-.426.764.075.495.182,1.027.207.495.163.369.207,2.385,2.028.751.5.833.319,3.155.175,3.124.6,2.548.814,8.858,4.87,3.537,1.941,3.581,1.027,1.1.545,4.244,3.593.394.495.67,1.49,1.158,4.9,1.884,3.193.9,2.059.551,1.89.094.989.257.056.182.451.764,1.258.175.689.094.238.495.676,1.371,3.412.413,2.1.207.394.732.814.244.376.607,1.759.05.282v.933l.063.307.219.451.62.826.757.808,1.471,1.027,1.214,1.12.451.207.338.526.607.444,3.023,1.546,1.064.858.545.344.451-2.1.044-9.578-.532-2.8-.019-.213.044-1.189.063-.407.131-.344.582-.914.019-.4-.338-1.778-1.108-2.2-.244-.939-.238-5.7-.188-.745-2.679.294-4.745-.163-2.479-.394-.72-.7.144-1.271-1.527-2.366.369-1.54,1.02-.851,1.189-.588,1.039-.745.551-1.346.138-1.584-.031-1.784-.432-1.521-1.058-.795-1.552-.044-1.4.138-1.34-.225-1.39-1.108-.864-1.171-.4-.438-.645-.476-.319-.119-.72-.131-.319-.182-.219-.376-.15-.945-.2-.407-.319-.238-.432-.319-.826-.351-.72-.432-.463-.751-.338-1.064-.382-.676-2.185-1.865-.482-.657-.839-1.64-.607-.676-2.98-1.6-.357-.131-.294-.225-.576-1.459-.25-.451-.313-.351-1.521-1.158-.588-.582-.507-.764-1.321-3.393-1.052-1.1-2.085-.307-1.621-.063-.914-.945-1.941-4.288.188-1.665.926-3.167-.207-1.371L196.4,371.3l-3.925-4.157-.682-.426-1.565-.745-.588-.52-.507-1.358-.088-1.746.238-1.709.507-1.227,1.333-1.452.839-.651.795-.382.977-.3.507-.307.019-.025,2.911-4.081.557-1.552.15-1.941-.426-2.948.006-1.646.588-.82.845-.438.926-1.5.945-.588.313-.6.232-1.239.219-.6.538-.72.576-.4.613-.332.632-.476.864-1.264.188-1.277-.469-3.462-.507-3.731.106-.833.438-.532-.125-.557-.294-.607-.106-.689.275-.689.958-1.34.344-.72.088-.82-.338-.739-.52-.732-.419-.776-.275-.97-.113-.82-.019-3.593-.263-1.534-.5-1.434-.789-1.565-.451-1.665.639-2.9-.056-1.621-.77-1.546-2.454-2.441-1.089-1.352-1.54-3.174-.626-.908-.394-.563-1.321-.714-.413.075-.351.232-.344.275-.357.238-.376.075-.757-.081-.351.044-4.657,1.678-3.424.094-1.509.645-.344.495-.551,1.227-.369.244-4.945-.67h-1.377l-1.29.332-2.736,1.678-1.333.488-1.333-.131L165,295.825l-1,.313-.714,1.1-.4,1.415-.006,1.678-.15.87-.463.332-.826-.257-.557-.507-.4-.645-.288-.789-.664-1.84-.4-.613-.538-.426-1.264-.595-.538-.426-.4-.626-.244-.607-.307-.582-.626-.551-1.984-.9-.607-.495-.858-1.152-2.379-4.858-.826-1.158-.657-1.271Z" transform="translate(0.504 -272.175)" fill="rgba(245,199,120,0.65)" stroke="#f5c778" stroke-width="1"/></svg>