<svg xmlns="http://www.w3.org/2000/svg" width="190.287" height="193.789" viewBox="0 0 190.287 193.789"><path d="M475.717,360.076l-.263-.063-.275-.313-.156-.263-.225-.488-.156-.182-1.552-.757-.357-.275-.219-.275-.945-2.642-.238-.426-.319-.351-.144-.194-.106-.219-.119-.526-.088-.244-.106-.219-.282-.388-.632-.707-.7-.645-.789-.588-.326-.338-23.537-.363.056,2.028-.188.739-1.922,2.986-.326.326-.338.213-.326.257-.213.363-.232.651-.207.313-.638.526-2.61,2.936-1.5.908-.238.1-.269.05-.595.038-.25.044-.338.138-1.678,1.2-.213.113-.582.088-.3.075-.789.463-.238.088-.275.031-.282-.006-.833-.207-.288-.019-.351.094-.194.182-.163.219-1.308,2.56-1.008,1.327-.106.225-.081.244-.013.269.019.269.063.269.05.582-.069.977-.144.444-.257.5-.576.9-.4.307-.357.113-.263-.081-.463-.238-.407-.275-.244-.106-.257-.094-.288-.063-.25-.094-.213-.138-.538-.513-.213-.131-.3-.1-.419-.056-15.712.131h-1.2l-.006.044-.263,3.869-.419,6.1-.294,4.332-.476,7.036-.476,1.828-.326,1.246.019.776.263,1.49-.05.77-.444,1.058-.707.808-3.412,2.385-.495.257-.432.038-.9-.169-.482.025-4.488,1.365-1.139.113-.238.294-.138.757-.307.451-.588-.025-.626-.307-.407-.376-.338-.82-.776-.526-.97-.269-.926-.05-1.07.275-.883.607-3.28,2.992-.269.326-1.039,1.239-.864,1.84-.319,2.272.106.513.563,1.377-.182.5-1.114,1.346-.069.244-.182.664.013,1.953-.257.876-.645.689-3.286,2.2-.595.419.77,2.185.757,1.214.194.507.269.407.526.175.432.075,1.033.4.3.169.213.232.244.507.188.269.144.094.4.175.131.094,1.133,1.252.144.257.138,3.249.188.977.945,1.916.238,1.221-1.177,1.008-.113,1.039.106,1.865-.15.225-.288.219-.225.25.019.313.219.225,1.521.914.282.419-.238.638-.5.9-.056.795.413,1.853.063,1-.125.82-.257.676-.351.557-.013.006.188.745.238,5.7.244.939,1.108,2.2.338,1.778-.019.4-.582.914-.131.344-.063.407-.044,1.189.019.213.532,2.8L379,480.9l-.451,2.1.588.376.52.444,1.565,1.966.626.363.275.476.814.714.213.382.257.063.275.807.294,1.772.238.807.394.538,1.721.952.576.52.394.563.563,1.34.388.582.526.338.595.263.595.357,1.446,1.433.639.269h.6l1.2-.313.451-.056.682.2,1.12.664,1.484.357.958.538,1.715,1.465,2.341,1.089.933.795-.5,1,1.233,1.258.344.438.714,1.327.307.363-.125,1.271.951.977,2.88,1.459,2.022.751.495.344.638.858.5.495L414,514.1l.682.814.469.926.413,1.146.269,1.208.225.6.319.257.025.4.651,1.891.307.588.219.563-.063,2.285.225.689.238.532-.113.351-.833.125-.9.682-.188,1.54.225,1.628.344.926-.883.413.182.495.864.213,1.158-.444.82,1.221.839.92.075.3-.833,1.271-.551.532-.645.382-.67.156-.063.05h-.013v.169l-.188.463-.094.369.225,2.867.7.707,1.665-.182,1.383-.426,1.546-.257.651.307.413.075.182-.219-.069-.457-.182-.351-.307-.238-.407-.125.651-1.621-.263-1.784-1.027-3.449.063-1.534,1.609,3.2,1.089,1.077.864.294,1.058.557,1.064.338.883-.338.62-.326.783-.294.413-.488-.613-1.139-.006-.482-.056-.15-.144-.1-.326-.138-.175-.1.081.388-.438.207-.382-.138.407-1.058.15-1.083.182-.388.382-.219.25.144.1.438-.088.657.739-1.127,1.834-3.962.845-1.033.238-.582-.288-.607-.025-.388.651-.169.864-.025.6.056-.163-.338-.156-.983.983.457.3.225.3-.714.344-2,1.552-.351,2.2-2.047,4.419-5.189,1.909-1.621,3.268-4.025.557-1.045-.657.338-1.377,1.02-.889.332.739-1.521.476-.714.72-.469.9.075,1.077.357.9.144.369-.6.15-.9.4-.7,1.221-1.283.645-.839,1.44-2.736-.645-.413-.52-.444-.545-.351-1.571-.388-.351-.632-.225-1.828-.369-1.59-.651-1.653-1.027-.8-1.515,1.008.62-1.265,1.239-.319,1.358.488.964,1.1.15.764-.006.682.169.613.664.52.62.326.482.369.413.476.426.638.319-.338.3.964.025.382,1.383-1.327,3.43-5.759,3.3-2.911,1.346-1.709.207-1.822,1.077.313,1.4-.426,1.208-.8.526-.795.182-.676.482-.288,1.258-.031.664-.15.469-.394.795-1.139.482.419.682-.182.707-.513,1.258-1.271,6.047-3.606,1.164-1.315,1.628.238,1.878-1.283,1.74-1.521,1.177-.495-.131.638.476-.075,6.085-4.188,2.592-1.4,6.166-1.346,3.055-1.2,1.089-.851-.933-.645,1.014-.82-.538-1.089-1.1-1.152-.657-1.008.52.3.57.213.6.038.557-.219-.319-1.008.682.964.069,3.318.858,1.133.8.031.664-.469,1.077-1.246.613-.451,13.3-5.327-.219-.407-.019-.419.182-.376.376-.313.313.094.363.376.513.363.732.013,2.2-2.247-.2.9,1.621-.269,1.734-.67.851-1.045-1.033-1.408.776.232,1.114,1.177.714.275,7.4-.695,1.746-.576,2.723-1.853,1.559-.15,1.646.1,1.69-.188.751-.376.682-.632.526-.795.288-.883v-.958l-.426-.006-.7.225-.826-.3.926-.263.82-.419.52-.676.006-.8h0l-.069-.063-.05-.482.106-1.227-.013-.3-.031-.282-.125-.244-.382-.507-.144-.244-.307-.726-1.2-1.49-.219-.469-.131-.413-.031-.269-.432-.9-.388-.62-.488-1.164-.257-.419-.244-.219-.338-.238-1.315-.588-.194-.144-.232-.232-.294-.5-.138-.357-.088-.344-.05-.582.075-1.628.063-.288.1-.244.131-.207.163-.188.169-.138.495-.25.495-.15.739-.125.294-.106.225-.144.144-.194.1-.244.031-.282.031-.614-.056-.664-.069-.351-.006-.138-.15-1.045-.282-1.039-.182-.476-.244-.419-.57-.776-.119-.219-.088-.238-.275-1.352-.225-.632-.069-.138-.526-.776-.357-.964-.225-.444-.526-.807-.582-.732-.238-.432-.156-.507-.444-.876-.6-1.7-.069-.257.006-.3.094-.595.019-.313-.038-.576.031-.294.063-.263.488-.9.088-.25.075-.269.038-.582-.044-.282-.069-.25-.914-2.391-1-1.665-.958-1.2-.275-.438-.106-.25-.038-.263.006-.3.119-.57.019-.313-.006-.288-.056-.269-.1-.225-.219-.282-.814-.889-.144-.357-.044-.3.031-.244-.081-.294-.182-.307-.382-.438-.175-.332-.106-.307-.238-1.064-.081-.238-.113-.225-.958-1.383-.3-.695-.232-.419-.344-.288-2.5-1.678-.15-.188-.156-.182-.613-.432-.182-.163-.157-.182-.213-.451-.188-.782-.088-.238-.3-.238-.463-.213-2.31-.563-2.16-.977-.613-.369-.363-.326-.088-.244-.15-.814-.263-.726-.119-.219-.313-.357-.182-.156-.4-.288-.326-.113-1.177-.225-.469-.175-.7-.507-.845-.5-.163-.232-.119-.25-.144-.507-.169-.225-.238-.213-.444-.232-.432-.288-.056-.069-.156-.219-.307-.332-.563-.413-.332-.294-.182-.125-1.408-.739-.244-.081-.357.05-1.07.288-.563.081-.294.013-2.5-.376-.469-.156-.757-.388-.689-.444-.626-.732-.25-.407-.432-.889-.125-.207-.207-.188-.682-.432-.156-.25-.019-.269.063-.25.031-.263-.063-.232-.194-.219-.808-.457-.538-.382-.607-.244-.526-.113-.657-.545-.488-.3-2.341-.939-.645-.369-.388-.326-.106-.225-.119-.213-.156-.182-.538-.476-.163-.175-.25-.382-.225-.15-.319-.125-1.7-.031-.538.225-.269.038-.338-.069-.413-.232-.275-.188-.194-.2-.307-.369-.664-1-.156-.175-.263-.15-.363-.088-.664.013-.382.075-.288.113-.388.288-.426.238-.238.081-.288.05-.714.044-.282.081-.207.15-.47.557-.175.156-1.264.726-.488.163-.269.044-.357-.025-.394-.119-.52-.3-.476-.469-.25-.131-.332-.081-.557-.044-.344-.131-.313-.357-.182-.632-.232-.232-.4-.213-.782-.288-.357-.244-.244-.232-.106-.225-.513-.808-.194-.207-.288-.182-.776-.413-.363-.113-.6.031-.326.075-.232.094-.664.5-.326.357-.914,1.521-.288.376-.188.156-.207.119-.238.1-.244.075-.826.144-.244.081-1.064.588-.225.056Z" transform="translate(-368.505 -348.594)" fill="rgba(245,199,120,0.65)" stroke="#f5c778" stroke-width="2"/></svg>