<?xml version="1.0" encoding="utf-8"?>
<!-- Generator: Adobe Illustrator 19.0.0, SVG Export Plug-In . SVG Version: 6.00 Build 0)  -->
<svg version="1.1" xmlns="http://www.w3.org/2000/svg" xmlns:xlink="http://www.w3.org/1999/xlink" x="0px" y="0px"
	 viewBox="0 0 64 64" style="enable-background:new 0 0 64 64;" xml:space="preserve">
<style type="text/css">
	.st0{fill:#7F85FC;}
	.st1{fill:#F4D01E;}
	.st2{fill:#FF8C00;}
	.st3{fill:#FFFFFF;}
	.st4{fill:none;stroke:#000000;stroke-width:2;stroke-linecap:round;stroke-linejoin:round;stroke-miterlimit:10;}
	.st5{fill:#FFE0B8;}
	.st6{fill:none;stroke:#FFFFFF;stroke-width:2;stroke-linecap:round;stroke-linejoin:round;stroke-miterlimit:10;}
</style>
<g id="Layer_1">
</g>
<g id="Layer_2">
	<g>
		<path class="st0" d="M55.5,21c-1.4,0-2.5-1.1-2.5-2.5s1.1-2.5,2.5-2.5s2.5,1.1,2.5,2.5S56.9,21,55.5,21z M55.5,17
			c-0.8,0-1.5,0.7-1.5,1.5c0,0.8,0.7,1.5,1.5,1.5c0.8,0,1.5-0.7,1.5-1.5C57,17.7,56.3,17,55.5,17z"/>
		<path class="st1" d="M6.5,53C5.1,53,4,51.9,4,50.5S5.1,48,6.5,48S9,49.1,9,50.5S7.9,53,6.5,53z M6.5,49C5.7,49,5,49.7,5,50.5
			C5,51.3,5.7,52,6.5,52C7.3,52,8,51.3,8,50.5C8,49.7,7.3,49,6.5,49z"/>
		<path class="st0" d="M10.8,33.7c-0.1-0.1-0.6-0.3-0.8-0.4c-0.1-0.1-0.3-0.2-0.3-0.3c-0.1-0.1-0.4-0.7-0.4-0.8
			C9.2,32.1,9.1,32,9,32s-0.2,0.1-0.3,0.2c-0.1,0.1-0.3,0.6-0.4,0.8c-0.1,0.1-0.2,0.3-0.3,0.3c-0.1,0.1-0.7,0.4-0.8,0.4
			C7.1,33.8,7,33.9,7,34s0.1,0.2,0.2,0.3c0.1,0.1,0.6,0.3,0.8,0.4c0.1,0.1,0.3,0.2,0.3,0.3c0.1,0.1,0.4,0.7,0.4,0.8
			C8.8,35.9,8.9,36,9,36s0.2-0.1,0.3-0.2c0.1-0.1,0.3-0.6,0.4-0.8c0.1-0.1,0.2-0.3,0.3-0.3c0.1-0.1,0.7-0.4,0.8-0.4
			c0.1-0.1,0.2-0.2,0.2-0.3S10.9,33.8,10.8,33.7z"/>
		<path class="st1" d="M54.8,8.7c-0.1-0.1-0.6-0.3-0.8-0.4c-0.1-0.1-0.3-0.2-0.3-0.3c-0.1-0.1-0.4-0.7-0.4-0.8C53.2,7.1,53.1,7,53,7
			s-0.2,0.1-0.3,0.2c-0.1,0.1-0.3,0.6-0.4,0.8c-0.1,0.1-0.2,0.3-0.3,0.3c-0.1,0.1-0.7,0.4-0.8,0.4C51.1,8.8,51,8.9,51,9
			s0.1,0.2,0.2,0.3c0.1,0.1,0.6,0.3,0.8,0.4c0.1,0.1,0.3,0.2,0.3,0.3c0.1,0.1,0.4,0.7,0.4,0.8c0.1,0.1,0.2,0.2,0.3,0.2
			s0.2-0.1,0.3-0.2c0.1-0.1,0.3-0.6,0.4-0.8c0.1-0.1,0.2-0.3,0.3-0.3c0.1-0.1,0.7-0.4,0.8-0.4C54.9,9.2,55,9.1,55,9
			S54.9,8.8,54.8,8.7z"/>
		<path class="st1" d="M43.9,60.3c-0.1,0-0.5-0.3-0.6-0.3c-0.1-0.1-0.2-0.1-0.3-0.3c-0.1-0.1-0.3-0.5-0.3-0.6c0-0.1-0.1-0.1-0.2-0.1
			s-0.2,0-0.2,0.1c0,0.1-0.3,0.5-0.3,0.6c-0.1,0.1-0.1,0.2-0.3,0.3c-0.1,0.1-0.5,0.3-0.6,0.3c-0.1,0-0.1,0.1-0.1,0.2s0,0.2,0.1,0.2
			c0.1,0,0.5,0.3,0.6,0.3c0.1,0.1,0.2,0.1,0.3,0.3c0.1,0.1,0.3,0.5,0.3,0.6c0,0.1,0.1,0.1,0.2,0.1s0.2,0,0.2-0.1
			c0-0.1,0.3-0.5,0.3-0.6c0.1-0.1,0.1-0.2,0.3-0.3c0.1-0.1,0.5-0.3,0.6-0.3c0.1,0,0.1-0.1,0.1-0.2S44,60.3,43.9,60.3z"/>
		<path class="st2" d="M15.9,54.3c-0.1,0-0.5-0.3-0.6-0.3c-0.1-0.1-0.2-0.1-0.3-0.3c-0.1-0.1-0.3-0.5-0.3-0.6c0-0.1-0.1-0.1-0.2-0.1
			s-0.2,0-0.2,0.1c0,0.1-0.3,0.5-0.3,0.6c-0.1,0.1-0.1,0.2-0.3,0.3c-0.1,0.1-0.5,0.3-0.6,0.3S13,54.4,13,54.5s0,0.2,0.1,0.2
			s0.5,0.3,0.6,0.3c0.1,0.1,0.2,0.1,0.3,0.3c0.1,0.1,0.3,0.5,0.3,0.6c0,0.1,0.1,0.1,0.2,0.1s0.2,0,0.2-0.1c0-0.1,0.3-0.5,0.3-0.6
			c0.1-0.1,0.1-0.2,0.3-0.3c0.1-0.1,0.5-0.3,0.6-0.3s0.1-0.1,0.1-0.2S16,54.3,15.9,54.3z"/>
		<path class="st0" d="M60.9,43.3c-0.1,0-0.5-0.3-0.6-0.3c-0.1-0.1-0.2-0.1-0.3-0.3c-0.1-0.1-0.3-0.5-0.3-0.6c0-0.1-0.1-0.1-0.2-0.1
			s-0.2,0-0.2,0.1c0,0.1-0.3,0.5-0.3,0.6c-0.1,0.1-0.1,0.2-0.3,0.3c-0.1,0.1-0.5,0.3-0.6,0.3c-0.1,0-0.1,0.1-0.1,0.2s0,0.2,0.1,0.2
			c0.1,0,0.5,0.3,0.6,0.3c0.1,0.1,0.2,0.1,0.3,0.3c0.1,0.1,0.3,0.5,0.3,0.6c0,0.1,0.1,0.1,0.2,0.1s0.2,0,0.2-0.1
			c0-0.1,0.3-0.5,0.3-0.6c0.1-0.1,0.1-0.2,0.3-0.3c0.1-0.1,0.5-0.3,0.6-0.3c0.1,0,0.1-0.1,0.1-0.2S61,43.3,60.9,43.3z"/>
		<circle class="st2" cx="43.8" cy="3.8" r="0.8"/>
		<circle class="st1" cx="10.8" cy="15.8" r="0.8"/>
		<circle class="st0" cx="34.8" cy="63.3" r="0.8"/>
		<circle class="st1" cx="35.5" cy="0.5" r="0.5"/>
		<circle class="st2" cx="5.5" cy="25.5" r="0.5"/>
		<circle class="st1" cx="55.5" cy="37.5" r="0.5"/>
		<circle class="st2" cx="47.5" cy="55.5" r="0.5"/>
		<circle class="st0" cx="47.5" cy="13.5" r="0.5"/>
		<circle class="st2" cx="63" cy="26" r="1"/>
		<circle class="st2" cx="1" cy="45" r="1"/>
	</g>
</g>
<g id="Layer_3">
	<g>
		<g>
			<path class="st1" d="M38,49c0,3.3-2.7,6-6,6s-6-2.7-6-6H38z"/>
			<path class="st2" d="M35,49c0,2.8-1.9,5.1-4.5,5.8c0.5,0.1,1,0.2,1.5,0.2c3.3,0,6-2.7,6-6H35z"/>
			<path class="st3" d="M26,49c0,3.3,2.7,6,6,6c0.5,0,1-0.1,1.5-0.2c-2.6-0.7-4.5-3-4.5-5.8H26z"/>
			<path class="st4" d="M38,49c0,3.3-2.7,6-6,6s-6-2.7-6-6H38z"/>
		</g>
		<g>
			<path class="st1" d="M49.7,41.1c-1-0.7-1.7-1.9-1.7-3.1v-8c0-7.5-5.1-13.7-12-15.5V12c0-2.2-1.8-4-4-4s-4,1.8-4,4v2.5
				c-6.9,1.8-12,8-12,15.5v8c0,1.2-0.6,2.4-1.7,3.1L13,42h38L49.7,41.1z"/>
			<path class="st2" d="M32,8c2.2,0,4,1.8,4,4v2.5c6.9,1.8,12,8,12,15.5v8c0,1.2,0.6,2.4,1.7,3.1L51,42h-4l-1.3-0.9
				c-1-0.7-1.7-1.9-1.7-3.1v-8c0-6.3-3.7-11.8-9-14.4c-0.6-0.3-1-0.9-1-1.6v0v-2c0-1.9-1.3-3.4-3-3.9C31.3,8,31.7,8,32,8z"/>
			<path class="st3" d="M32,8c-2.2,0-4,1.8-4,4v2.5c-6.9,1.8-12,8-12,15.5v8c0,1.2-0.6,2.4-1.7,3.1L13,42h4l1.3-0.9
				c1-0.7,1.7-1.9,1.7-3.1v-8c0-6.3,3.7-11.8,9-14.4c0.6-0.3,1-0.9,1-1.6v0v-2c0-1.9,1.3-3.4,3-3.9C32.7,8,32.3,8,32,8z"/>
			<path class="st4" d="M48,33v-3c0-7.5-5.1-13.7-12-15.5V12c0-2.2-1.8-4-4-4s-4,1.8-4,4v2.5c-2.7,0.7-5.2,2.1-7.2,4"/>
			<path class="st4" d="M17.1,24c-0.7,1.8-1.1,3.9-1.1,6v8c0,1.2-0.6,2.4-1.7,3.1L13,42h38l-1.3-0.9c-1-0.7-1.7-1.9-1.7-3.1v-1"/>
			<path class="st4" d="M19,20.7c-0.2,0.3-0.4,0.6-0.6,0.9"/>
			<path class="st4" d="M36,14.5c-0.5-0.1-1-0.2-1.4-0.3"/>
			<path class="st4" d="M28,14.5c0.5-0.1,1-0.2,1.4-0.3"/>
		</g>
		<g>
			<path class="st1" d="M52,44c0-1.7-1.3-3-3-3H15c-1.7,0-3,1.3-3,3v2c0,1.7,1.3,3,3,3h34c1.7,0,3-1.3,3-3V44z"/>
			<path class="st2" d="M52,44c0-1.7-1.3-3-3-3h-4c1.7,0,3,1.3,3,3v2c0,1.7-1.3,3-3,3h4c1.7,0,3-1.3,3-3V44z"/>
			<path class="st3" d="M49,41H19h-4c-1.7,0-3,1.3-3,3v2c0,1.7,1.3,3,3,3h4c-1.7,0-3-1.3-3-3v-1.5c0-0.8,0.7-1.5,1.5-1.5H49
				c1.7,0,3,1.3,3,3v-2C52,42.3,50.7,41,49,41z"/>
			<path class="st5" d="M49,41h-4c1.3,0,2.4,0.8,2.8,2H49c1.7,0,3,1.3,3,3v-2C52,42.3,50.7,41,49,41z"/>
			<path class="st4" d="M20,41h-5c-1.7,0-3,1.3-3,3v2c0,1.7,1.3,3,3,3h34c1.7,0,3-1.3,3-3v-2c0-1.7-1.3-3-3-3H24"/>
		</g>
		<g>
			<line class="st6" x1="40" y1="35" x2="40" y2="34"/>
			<path class="st6" d="M40,31.1c0-4.5-1.2-8.5-3.2-11.1"/>
		</g>
	</g>
</g>
</svg>
