<svg xmlns="http://www.w3.org/2000/svg" viewBox="0 0 992 812">
  <defs/>
  <style>
    .st1{fill:none;stroke:#fafafa;stroke-width:0;stroke-linecap:round;stroke-linejoin:round}.st2{fill:#fafafa}.st3{fill:#ccc}
  </style>
  <circle id="background" cx="397" cy="408" r="381.4" fill="#fdd089" stroke="#fdd089" stroke-miterlimit="10"/>
  <g id="robot">
    <path d="M522 778v-2" class="st1"/>
    <path d="M410 522zM409 513h-1c-3 1-5 5-6 8v-1l5-2 2-1c4 0 7 4 6 9-1 2-3 2-5 2l-6 2 6 2c5 0 10-4 10-9 0-6-4-12-11-10zM451 526l-1-4-1 1h-1v1l-1 1 1 2v3l3-1v-3zM445 503v3l4-1-1-7h1-1l-4 2 1 3zM445 509l2 6 3-1-1-7-2 1-2 1zM390 560l-1-6-2 1-4 2 1 1 6 2zM384 503h1v-1l1-3v-1h-1v2l-2 3h1z" class="st2"/>
    <path d="M410 230l-1-7c-4-7-13-12-21-10h-1l-6 3 16 7 13 7z" class="st3"/>
    <path d="M522 776c0-2 1-3 3-4h-3l-12-2c-3 0-3-5 0-5h0c-3 0-3 5 0 5l12 2h3c-2 1-3 2-3 4v0zM513 775c-3 0-4 4-1 5-3-1-2-5 1-5zM534 768l1-1v-3l-4-1 4 1v3l-1 1-2 1 2-1zM531 763l-2-1 2 1zM740 357c-2 0-3 1-2 2 0-1 0-2 2-2zM394 462h-2l1 4 2-1v-4l-1 1zM740 364v0z" class="st2"/>
    <path d="M560 169l-7 3-22 10c-3 2-7 5-11 5-5 15-4 31-6 46l-2 42v3h1l2-1h1l11-4 16-8 11-5 3-1 5-2c3-2 5-4 7-8s3-9 3-15l1-36 1-13 1-2-1-19-2-1-4 2-8 4z" class="st3"/>
    <path d="M386 553l2-1v-1-1l-2-1-3 2h-2l1 3v1l4-2zM401 560l4-2v-2h-4l-1 1a48 48 0 001 3zM410 565l3-2-1-6-2 1-1 1v2l1 4zM378 550l-1-1v-3l-4 2h-1a46 46 0 001 4l5-2zM355 532l4-2-8-2c-3-1-6 0-8 1h1l10 2 1 1zM450 550v-2l-1 1-3 1 1 2c2 2 2 3 1 5l2-1v-6zM447 547l1-1h2l-1-3-2 4zM420 570l3-2-1-2v-2l-2-1-4 2 2 5h2zM332 468c-2 1-4 1-5 3h-1v4l2-1-1-1c-1-2 2-3 2-2l1 1 3-1v-2l-1-1zM446 534v2l-3 2 1 3 1-1 3-2-1-4h-1zM444 568l3-2-1-3v-2l-2 1-3 1v1l1 4h2zM392 545l-1-1c-7-5-16-6-24-4 4-1 10-1 14 1h1c3 1 7 3 10 6v-2zM440 495v-1 1zM415 551v1h-2v2l5-2-1-1h-2zM325 444v-1 1zM371 545v1l3-1h-3zM415 492l2 2 2-1-1-4-3 1v2zM336 520l-1-4-5 3v4l6-3zM428 489l4-2-1-4-5 2 2 4zM150 497l41 47c3 0 9 0 7-3-1-4-4-7-7-10l-9-11-11-12-26-32-7-7c-1-1-4-4-6-2-2 3 0 5 1 8l17 22zM167 474l9 9h6c5 1 11 4 13 9 3 6-1 11-3 16 1 2 4 2 6 3l7 4 8 5 3 2c4-15 1-31-10-42a50 50 0 00-48-14c3 3 5 6 9 8zM141 379c-3-2-7-3-12-3l-5 5-10 9 13 5c3 2 8 4 10 7l7-6 6-3v-1l-3-7-6-6z" class="st2"/>
    <path d="M135 416l-5-3-2-1c-6-3-13-5-20-3l-3 1 1 1 10 4a29 29 0 0113 10c4 6 5 12 3 19-2 5-5 8-8 11l-7 4-12 3c-6 0-12-1-17-3a25 25 0 01-10-7c-3-4-5-9-6-15 0-2 0-8-2-10s-7 8-7 9c-2 4-3 9-2 13 1 12 11 17 21 19h22a27 27 0 0117 7l4 6c5 5 8 12 12 18l2 3 6 5 7 7a74 74 0 017 8l11 13 6 8 1 1v1l5 3 6 5 7 4 2 3c-1 6-4 12-9 15l1 7c2 5 7 11 12 12 3 1 7-1 9-2l7-3c2-1 1-3 1-5l-1-3c-6 0-11-2-14-9s1-14 7-17c7-3 15-5 22-3 3 1 7 3 8 6 2 4 1 8 0 11l-1 5h4c3-1 6-3 8-6 4-8-2-19-7-24-4-5-8-5-13-4-4 1-7 3-11 0l-6-8c-3-2-5-3-6-6l-5-3c-3-3-6-5-10-6l-3-2-3-1c-2 0-4-1-4-4l2-3-1-1-5-7-1-1-5-6h1l-1-1-6-7-8-6-9-10-4-4-1-2-5-4c-3-1-5-2-6-4-2-1-2-3 0-5 5-5 10-11 9-19-1-5-4-10-8-14zm12 55l16 21 21 24 11 12c3 4 7 7 8 11 2 9-6 10-13 10l-2-1-3-4-25-29-14-15-12-13c-4-6-12-17-5-24 6-4 15 4 18 8z" class="st2"/>
    <path d="M149 540l-1-4h-8l2 4h7zM438 487l-3 2 1 5 4-2-1-5h-1zM202 343l-16 5-7 2c0 4 0 9 2 13 1 5 3 10 6 13a429 429 0 0123-5c-3-3-6-8-6-12l-2-16zM151 548h1l-2-3h-5l6 3zM146 528l-7-1v3l8 1 1 1 1-10-1-2-2 1h-7v1l7 1c3 0 3 5 0 5zM141 516h2l-2-2v2zM432 478v1h1l4-2-2-6-2 1v5l-1 1zM365 453l1 3 3-1v-3l-4 1zM443 477l-3 1 1 5 5-2-1-5-2 1zM448 571l-1-2-4 2 1 5 4 1 1-6h-1z" class="st2"/>
    <path d="M279 526c2 10 3 19 2 29 0 8-1 17 1 25h1c12 3 23 8 34 12 11 5 23 7 35 10l25 11 6 4 3 2 32 13 13 5 8 4 13 5c12 5 24 10 36 13a117 117 0 0120 7l5 1 2 1v-3l-1-4-2-12-2-26v-20l-1-18v-19l-2-18-4-18-1-18-3-39-2-18v-17l-1-9v-6c-4 0-9-2-11-3-11-2-21-6-32-9l-14-7c-5-3-10-5-16-6l-19-4-17-6-16-6-16-6-35-7-18-6-16-6a127 127 0 01-21-9l1 7 1 16a845 845 0 015 64v7h2c4-1 9 0 14 2 4-3 10-5 16-5l5 1v-10l-1-12v-5l-1-2c0-2 0-2 1-1v-4h3l11 4 36 13c12 4 24 9 37 12l29 7c1-3 2-7 4-9 4-5 9-10 15-9l2-2c11-6 25-3 32 6 2 3-3 5-4 3-5-6-15-9-22-6l-3 2c4 3 5 10 1 15-4 4-10 1-11-4l1-8c-3 1-5 4-7 6l-3 7h3c9 2 19 2 25 9 4 3 3 8 2 12l-1 9v9l-1 38-1 16c4-1 8-2 12 0 5 3 9 8 10 14 12 2 23 14 18 27-1 3-6 2-5-1 4-10-4-20-13-21-1 4-3 8-7 10-5 3-10 2-11-4-1-7 6-11 12-11h1l-1-3c-2-3-6-8-10-7l-6 1v5l-1 12-2 24-2 15c0 1-1 3-3 2l-2-1-27-10c-24-8-48-15-71-26l-17-6c-4-1-9-1-13-4l-3-3v-2-2c-4 3-7 6-9 10-3 5-4 10-2 16 2 4 6 8 11 9 3 0 3 5 0 5-15-1-21-19-14-31 3-6 7-11 13-15v-32l-2-39-2-22-1-1c-6-1-12 0-17 3l2 2c4 4 6 11 1 15-3 3-12 4-14-1-3-5 0-11 3-16-3-1-8-2-11-1l1 19c2 10 3 19 3 29-1 10 0 20 2 31zM249 348c1-4 3-8 6-11v-1a248 248 0 00-21 3l-2 7v9c0 4 1 9 3 13l17-1c-2-2-2-4-3-7v-12z" class="st2"/>
    <path d="M292 460c2-4-1-7-4-10-2 2-3 4-3 7-1 2-1 5 1 5s5 0 6-2zM453 475h-6l1 5 5-3v-2zM442 486v5h1l5-2-1-6-5 3zM364 466l2-2-1-4-3 1a48 48 0 002 5zM409 522l-2 1h-1v1h1l3-1v-1h-1zM410 524z" class="st2"/>
    <path d="M418 500c-1-1-3-2-5-1l-6 1-3-1-2-4v-2h-1l-3 1 2 5c4 6-6 7-6 12 0 2-2 3-4 2h-3-1l-1 4 4 2 2 1c2 0 3 2 2 3-1 3 1 7 3 8 1 1 3 5 5 4 2 0 3 1 3 3v7h1l5 1 2 1v-3l1-3c1-2 3-1 5-2 3 0 4-2 6-5 2-4 5-3 9-1 2 1 2-1 2-2l1-3c1-1-2-2-3-2-4-2-3-4-2-8s-6-6-3-11l5-4-2-3-2 1-5 3c-2 0-4-3-6-4zm-8 37c-7 0-14-6-14-14 1-8 6-14 14-15h1c7 0 13 6 14 14 0 8-6 16-15 15zM394 539h2l-3-3-3 2 2 2 2-1zM438 559h2l3-3c-1-2-2-2-4-2l-4 1 3 4z" class="st2"/>
    <path d="M424 542l-1 1c2 0 3-2 4-3l2-2 1-1-1-1-5 6zM443 522h2l-1-4-1 1-2 4 2-1zM436 522l2-6-2-5c-1-2 0-3 2-5l-6 3 4 7v3 3zM435 545l-2-5-2 3-1 1v1l1 2 4-2zM435 548l-4 1v2l4-1v-2zM390 494l1 1v3l1-1h1l-1-5-2 2zM386 493l1-1v-2-1l-1 4zM380 508l-1 2 1-1v-1zM394 502l-1-3-1 1h-1v2l-1 2 4-2zM375 524v3l4-1-1-5-4 2 1 1zM378 514h-1l3 4 1-1v-4-1l-3 1v1zM391 486h-1l-1 1v4l3-1v-2l-1-2zM382 508l1 1 1-1h-1l-1-1v1zM331 508l-1-2h-1v3l2-1zM327 454h-1 1zM328 456l2 3-1-2-1-1zM327 461l-1-3v3h1zM326 464v4l5-2-2-4-3 2zM336 466v1l-1 1v1l3-1-1-3-1 1zM339 482v-1l-2-4-2 1 1 3 1 2 1-1h1zM444 516v-1l-1-6-2 1v1l1 2 1 3h1zM334 509a17 17 0 012 4l2-2-2-3-2 1zM340 473l-2-2-1 1 1 2 2-1zM341 478v-1-2l-2 1 2 3v-1zM336 502l-4 2 1 3 2-2 3-1-2-2zM355 469l-1-3v-1l-2 1h-1l1 2c1 2 1 1 3 1zM382 472h-3l1 2v1h3l-1-2v-1zM363 469h-1 1zM408 486h2v-2l-3 2h1z" class="st2"/>
    <path d="M356 474c-3 0-4 1-6-1l-2-2-1-2h-1l-3 1 2 5c2 0 3 2 2 4l-4 8v2l-2 2-2 2h-2c-2-1-3 0-3 2s3 2 4 2l3 3 2 3c1 3 2 5 5 7 3 1 6 2 6 5 1 2-1 5 3 4h2v-3c0-3 4-4 6-5 4-1 4-6 6-9 0-1 2-2 3-1l3 1 3-2c1-3 0-2-2-3-2 0-3-2-3-3 0-3 0-5-2-7-1-3-4-7 0-9 3-1 3-1 1-4l-1-1h-1l-4 3h-3c-2-1-4-3-7-3l-2 1zm3 4c7 0 13 8 13 16l-2 8c0 2-2 3-3 5-3 2-8 3-11 3-9-2-13-10-12-18l1-3c1-6 5-13 13-12l1 1z" class="st2"/>
    <path d="M338 487l1-2v-1l-1 1v2zM359 495v-1l-1-1h-2v2h3zM342 465l-1-1h-2l1 2 2-1z" class="st2"/>
    <path d="M353 483c-5 4-6 20 2 21 6 2 11-1 12-7 0-3 0-8-2-11-3-3-6-5-9-3h-3zm11 9c1 4-1 8-5 8-3 0-9-1-8-5l2-6 2-1c3 0 7 1 9 4zM557 760v-1-1 2z" class="st2"/>
    <path d="M692 739l-1 1v4l5-2 8-3c3-2 3-5 4-7v-2l-4 3-12 6z" class="st3"/>
    <path d="M667 728v9l9 4c2 1 4 4 6 4h1l1-5v-2-1l-7-4-10-5zM829 276v0zM184 559l-7-6-4-3h-1l-3-2-9 6-3 1h-7c-8-1-12-7-15-13a36 36 0 010-33c-6-7-10-16-15-23a53 53 0 00-11 18v1c-2 8-3 17-2 25 1 11 3 20 10 28 6 7 14 12 22 15 10 3 19 1 29 1l15-4c3-2 5-4 6-8l-5-3zM634 676v5l5 2v-6l-5-1z" class="st2"/>
    <path d="M643 677v6c6 1 12-1 18-3 4-1 5-3 5-6-6 4-16 4-23 3z" class="st3"/>
    <path d="M620 669v6l1 1h1v-5l-2-2zM756 386c-2 0-7-1-10-3-1 8-4 15-7 22 3 3 10 4 13 5 6 1 13 4 20 2l1-2 5-26-11 4-11-2zM760 354l16-2h1l-5-20-12 1-10 4-3 2 1 16 12-1zM773 357l-13 1-6 1-4 1h-2v1l-1 17 11 4c8 1 14 0 20-3v-5l-1-17h-4z" class="st2"/>
    <path d="M821 278c0-3-1-4-4-5l-2-1a76 76 0 01-8 38l-6 11 2 2c9-10 18-22 18-35v-10z" class="st3"/>
    <path d="M678 448l-21 2v20l5 11 3 4h3l25-5c-4-4-6-9-9-13-3-6-5-12-6-19zM720 325c14-5 28-14 37-26 8-12 16-29 13-44-3-12-14-20-25-23 0 2-1 3-3 3 0 4 0 7 3 9 5 3 9 6 11 10 7 11 3 24-1 34s-10 19-19 24c-12 5-25 4-37 1-2 0-2-1-3-2-2-2-5-8-7-5-2 2-5 4-6 7 5 4 10 9 16 12s14 3 21 0z" class="st2"/>
    <path fill="#f2f2f2" d="M696 249c0-7-2-15-7-19l-2-2-5-1-4-1h-1c-5 2-8 4-11 9a33 33 0 00-6 29c1 3 2 7 4 9l2 1 1 1 8-1c4-1 8-4 10-7 5-4 11-11 11-18z"/>
    <path d="M615 444c-3 1-6 6-7 8-3 3-5 6-5 10l-1 14 1 7c9 3 17 4 26 4-3-7-3-15-3-22 0-6 2-10 4-15v-2l-15-4z" class="st2"/>
    <path d="M735 294l6 3 1 1 5-10-4-1-5-2-14-4c-6-3-15-3-21-7-2-1 0-6 3-4s7 3 11 3l13 5 12 3c2 2 5 2 7 3a60 60 0 004-17l-8-4-11-5-24-7c-3-2 0-6 3-5 7 4 16 5 23 8l11 4 5 3v-1c-2-5-7-7-11-10l-3-3-6-3-8-3-17-5-9-3 3 11c1 9-3 18-10 25l-11 8-4 1 7 2 21 4 11 4 9 3 11 3zM702 307c9 2 21 2 30-2h-4l-13-1h-15l2 3z" class="st3"/>
    <path d="M593 749v2l4 1-4-3zM576 748h-4v3l4-1v-2zM581 749l7 1v-1-1l-7-1v2zM583 757c-4 0-9 0-12 2-3 1-7 4-7 7l-1 1 10 4c7 2 17 4 24 0l4-5-1-1c-2-7-12-8-17-8zM13 668c-4 1-4 3-4 6v1l14-1 12-2 1 1 2-6c-9-1-17 1-25 1zM381 520h-1l2 5h1l3-2-4-1-1-2zM565 754l2-1v-3a23 23 0 00-5 3l1 2 2-1zM8 682v2h22c1 0 1 0 0 0l-1 2c0-2 2-3 4-3v-3l-12 2H8zM35 627l1-1v-1l-5-1c-3-1-4-1-6 1h-1l3 1 8 1z" class="st2"/>
    <path d="M623 784l-3-1h-4l-3 3-5 3-12 4v2l8-2 9-5c2-2 5-3 8-2l2 1v-1-2z" class="st3"/>
    <path d="M649 659l-1-4h-2c-3-1-7 1-8 4 0 2 5 2 6 2 2 0 5 0 5-2z" class="st2"/>
    <path d="M656 669c3 0 8-1 10-4 2-4 0-9-3-12-4-4-9-7-14-9l-1-1c-6 0-13 1-18 5-3 2-10 8-7 13 3 6 14 8 21 9l12-1zm-22-11c1-5 6-9 11-8h1c5-1 8 4 8 8 0 6-6 8-10 8-5 0-12-2-10-8zM627 673l-1 5 4 2v-5-1l-3-1z" class="st2"/>
    <path d="M567 790c-6-1-11-3-16-7l-7 4 1 4 2-2c2-1 5-3 7-2l7 4 6 1 1-2c1-2 1 0-1 0z" class="st3"/>
    <path d="M540 750l-5-2v2l4 1 1-1z" class="st2"/>
    <path d="M588 800h-13v5l11-1c2 0 2 0 2-3v-1z" class="st3"/>
    <path d="M536 786l-5-3-2-1v3l1 4-1 1 5 1 3 1-1-5v-1zM618 766c-1-5 1-9-1-13s-5-5-8-7c-2-2-6-4-6-7s2-5 4-7v-2l-3-3c-2-1-5-3-6-2-5 5-7 10-15 10h-12l-10 5c-6 3-10-3-14-6s-7 3-10 7l9 3c2 1 3 3 3 5-1 4-5 5-6 8l-2 11 1 2v3h-1c0 3-3 4-5 2l-2 1 6 4h1l3-1 6-3h4c4 4 8 6 14 6 3 1 7 3 7 7v4h13l1-3c0-2 1-4 3-4 4 0 9-1 12-3l5-4 4-3c4-1 8 1 12 1 2 0 3-2 4-4-4-1-10-1-11-7zm-12-1c0 3-2 5-4 8-8 7-22 5-31 2-5-1-10-3-13-6h-1l-2-3c-4-4-3-11 1-15 0-1 1-2 3-2 9-7 22-9 34-5a20 20 0 0114 18l-1 3zM695 729l5-3 8-5-4-1-6-4c-2-1-3-3-6-1l-4 3-6 3-5 3 11 6c3 1 4 1 7-1zM293 324a710 710 0 0018 5l59 16 18 5 19 6 18 4h1a229 229 0 0128 9l11 5h2a91 91 0 003-20l-1-26-1-54c0-9-3-17-3-26v-27l-1-53-1-1-6-2-11-4-30-9-37-10c-11-3-22-7-34-9l-71-14-36-5-17-3-7-1 2 20 1 2 2 24 6 52 4 18v7l2 24 2 25-1 21a704 704 0 0061 21zm79-166c0-2 0-4 2-4l1-1h23c4 0 9 6 12 9l9 8 10 8c5 4 12 6 15 11l1 1v2c0 4-4 7-5 11l-1 2-15 6c-4 0-5-4-7-7l-12-11-13-12-13-8c-3-2-8-4-9-7s1-6 2-8zm1 57h1c3-4 7-6 12-7h1c10-2 22 3 26 13 2 4 2 9 2 13-1 7-6 14-12 17-11 5-29 0-34-10-4-9-2-19 4-26zm-140-45c-3-1-5-5-6-8v-2-1h1l15-12 9-7c3-1 5-4 7-6l1-1c1-2 4-2 7-2h7c2 0 3 1 3 2v1l2 5 2 6c1 2-1 4-2 4l-9 2h-1c-2 3-6 5-9 6l-17 9c-2 2-7 6-10 4zm4 29v-4c-1-2 0-4 2-4 3-7 9-12 17-14h8a26 26 0 0117 20c0 5 0 13-3 17-4 6-11 7-17 6-11-1-26-8-24-21zm33 87c-4-1-7-2-9-4-3-2-4-6-6-8-2-3 2-6 4-4 2 3 3 8 6 9 3 2 7 2 10 3 8 1 15-4 22-6 15-3 29 7 41 14 3 2 7 4 11 4l12-2c2-1 6-2 9-1l8 4c4 2 9 2 13 2l12 2 13 3 5 1 6 2c3 1 3 5 0 5-4 0-7-2-11-3l-13-3-14-2-12-2c-3-2-6-5-10-4l-11 2c-7 2-13 1-19-3-7-4-14-9-22-12-4-2-8-3-13-3l-12 4c-7 3-14 3-20 2zM229 340v-2l-7 1-14 3-1 7 1 8c1 4 4 10 7 13h1l14-2c-3-4-3-11-3-16 0-4 0-8 2-12z" class="st2"/>
    <path d="M275 209a27 27 0 000-15h-17l-16 1v4c0 10 11 16 20 16 6 1 12 0 13-6zm-16 2l1-4c1-2 2-2 4-2s3 1 4 3c0 2 0 4-2 5l-4 1-3-3zM263 336h-2l-5 7-2 9c0 4-1 8 1 11l2 5h3l-1-12-2-12c0-2 2-3 3-4l2-3 3-1h-2zM284 351l34 13 36 7c11 2 21 8 31 12l19 6 17 3 18 6 13 7 13 5 20 5 8 2 3 1 1-1 5-3 16-10 14-10 16-11 4-3c-4-4-11-3-16-3 1 1 1 2-1 3l-16 10-17 11c-2 2-5-1-3-4l16-11 17-10-18-2-5 3-9 7-23 16c-2 2-6-1-4-3 8-7 17-12 25-18l9-7h-4c-1-1-6 2-7 3l-9 5-12 7c-4 3-9 8-14 8-3 0-3-5 0-5 2 0 3-2 5-3l5-3 9-6 9-5 7-4-5-1-4 3-12 8-3 2h-7l-5-2c-5 2-11 6-13 11-2 3-6 0-5-3l8-7 4-3-6-2c-6 3-10 9-15 13-3 2-5-2-3-4l13-11-7-3c-7 5-14 9-19 15-2 3-6-1-4-3l17-13-3-1-4 5c-2 2-5 2-7 2h-1c-4 1-8 4-11 7-2 3-5-1-3-3l6-6-11-2-4 3-4 4c-3 1-6-3-3-5 2 0 3-2 4-3-3-1-6-1-8-3l-4 4c-1 2-2 2-3 2-2 0-3-2-2-3l4-5-2-1-4-3c-3 2-8 3-10 6-2 2-6-1-4-4 3-3 8-4 11-6l-1-4-1-2-16 15c-2 2-5-1-3-3l13-13-6-2-15 13c-2 2-5-2-2-4l12-10-9-3-6 6-11 9c-2 2-6-2-3-4l13-10 2-2-6-2c-6 2-10 9-15 13-2 2-6-2-3-4l11-11-8-1-5 6c-3 2-7 5-8 8s-6 2-5-1c2-5 6-7 9-10l4-5-4-1c-5 3-10 9-14 13-2 2-6-1-4-3l12-11-4-1c-6 3-10 7-15 12-2 2-5-1-3-3 4-4 7-8 12-11l-3-1-9 7c-3 2-5 5-9 6v1l8 4 9 3z" class="st2"/>
    <path fill="#b3b3b3" d="M374 354l1 1c1 2 4 3 6 4l14 5c5 1 11 1 16 3 3 0 6 2 8 0l1-1-7-2c-13-2-26-6-38-10h-1z"/>
    <path d="M274 140l-1-3-6 6h-1l2 2 3-3 3-2z" class="st2"/>
    <path d="M272 189c-3-4-7-7-12-7s-9 2-13 5l-2 3 13-1h14z" class="st3"/>
    <path d="M273 144l-3 3 5-2v-2l-2 1zM258 153l7-3c-3-3-3-7-5-10l-4 4-8 6c-6 3-11 8-16 12l2 2c1 2 1 2 2 1l11-6 11-6zM115 480c-1-1-3-3-5-3-2 1-8 5-10 8l7 7 8-12zM109 424c3 0 8 2 11 4l1-2-1-1-14-6c-3-1-7-3-9-6l-4 11h16zM95 475h-2l3 6 7-5-8-1zM104 449l-15 3 3 1c5 1 10 2 14 1l10-2v-3h-12zM270 136l-2 1-3 2v2l7-5h-2zM175 358l-1-7-19 8 4 6 7 12 3 6 13-5-5-10-2-10zM132 406h2c-2-3-7-5-9-7-5-2-10-4-15-4l-7 8c9-4 20-1 29 3zM156 369l-5-6-1-2-15 11c5 0 9 3 12 6 3 2 7 7 8 12l9-5-2-7-6-9zM116 444v-3l2-8c-3-3-9-5-13-5s-9 0-14 2a87 87 0 00-3 17c6-2 13-3 20-3h8zM411 177l8-1-5-4-8 1 5 4z" class="st2"/>
    <path d="M496 152l-12 8-6 4-4 2-2 1v55l1 29 2 26 1 27 1 29v23l-1 8-1 7c3-2 6-3 8-6a350 350 0 0013-10l31-22c10-7 19-16 28-24v-10-7l-15 8-21 10c-3 2-6-3-3-4l24-12 15-7v-4l-4 2-5 2-11 5-21 12c-3 1-5-3-3-5l25-13 13-6 6-2v-4l-10 4a257 257 0 00-28 14c-3 2-6 4-10 4-3 0-3-5 0-5 4 0 8-3 11-5l12-6 11-5c4-2 9-3 12-6l1-1-31 14-6 2c-7 2-14 3-18-4-2-4-1-9-1-13v-18-40a715 715 0 011-30c0-2-1-4 1-6 3-4 8-5 13-7l8-5 8-4 15-8 6-3 3-2 8 1 1-28 1-6-45 25c-8 4-15 10-22 16z" class="st3"/>
    <path d="M403 170h8l-3-3h-9l4 3zM272 111l75 15c13 2 25 6 37 10l39 10 29 9 13 5 3 1 3-2 8-5c10-6 18-13 27-20 17-11 35-19 53-29l-3-1c-10-1-19-5-29-7l-32-8-2-1c1 6 4 11 6 16 1 3-4 5-5 2l-7-20-66-15-75-20-10-2c-4 0-5 0-8 2l-15 6-24 12-9 5c-19 10-38 21-58 30l12 2 38 5zm154-1l-32 2c-3 0-3-5 0-5l32-2c3 0 3 5 0 5zm-47-12c15 0 30-3 45-4 3 0 3 5 0 5-15 1-30 4-45 4-3 0-3-5 0-5zM396 165l9-1-3-3h-11l5 4zM375 165l13 7 20 16 10 11 5 4v1c0-4 3-7 4-10l-10-7-7-4-6-5-12-10c-5-3-9-7-15-9v1c-1 1-3 4-2 5zM214 180l-2-26-2-17h-1l-3 3-4 3c0 7 3 14 5 21 1 7 3 14 2 21l1 11 2 10 2 10 5 3-2-13-3-26zM515 187l-3-2-6-5v4l-1 9a1056 1056 0 000 60v18c0 3 0 6 2 7l3-48c1-14 1-30 5-43zM556 407l-10 6c-5 3-7 7-10 11-4 5-7 10-8 16l14 11 2-8 8-13 11-11 6-4-6-4-7-4zM507 278zM554 152h-1c-2 0-4 2-5 3l-6 4-19 10-8 4-7 3 6 4c3 2 4 3 7 2l6-4 8-3 20-9 5-3 8-3 3-2-3-3-3-1-5-1-6-1zM568 461c1-6 4-11 6-16l10-13 4-3-15-11-4 3-7 5-9 11c-3 4-5 8-6 13v5l8 6c2-1 3 1 3 2l4 3 6 3v-8zM398 159l-3-1-10-1 3 2h10zM266 136h-2v1l2-1zM387 247c4 1 10 2 14 0 4-3 7-7 9-11l-8-5-8-4-18-7c-4 5-6 13-2 20 3 4 8 6 13 7zm-6-11l1-1c1-1 2-2 4-1l2 2v5c-1 2-5 3-7 1v-6zM430 189l1 1h7l-5-4h-10c2 1 4 3 7 3zM431 195v1l7-1h-7zM437 199v-1-1l-7 1-1 2 7-1h1zM428 203l-1 2 7-3-6 1zM417 181l4 3h8l-5-4-2-1h-8l3 2zM318 741l-8-16 2 6c2 9 2 18 5 27l4 14 1-2v-10c0-6-2-13-4-19zM362 452l-1-1v-1 2h1zM323 542l1-2-5 2v2l4-2zM342 554l33 14 71 25 1-10v-1l-5-1-7-2-9-3-8-2-9-2-11-4-17-6c-9-4-19-10-29-12l-2-1-12-3-9-3-1 1h-1l-1 1-2 1-2 2 5 2 15 4zM344 443h-1l-3 1h2l4 1h1l3-1-6-1zM379 459l3-2-5-2 2 4zM453 481v-1l-4 2v4l1 2 2-1 1-6zM422 475l1-7v-1c-7-3-15-4-23-5v7l2-1 6-3c3 0 6 2 7 5 1 2 2 7-1 7v1l7 2v-1l1-4zM390 508l1-2-2 2h1zM364 451l2-1-3-1 1 2z" class="st2"/>
    <path d="M521 692c6 3 15-4 13-10l-2-5-1-2c-5-1-8 3-10 7-1 2-3 8 0 10z" class="st3"/>
    <path d="M471 699l-1-3-10-15-5-7-8-5c-6-3-11-6-17-6v1c3 2 7 3 10 6 5 5 8 11 11 17v1l2 9 1 2 2 12-2 13 16-8 5-2-2-9-2-6zM445 438c2-2 2-5 0-7l-1-1-1 3c0 1 0 7 2 5zM314 434v7l6 2-1-8-5-1zM417 445l-36-9c-23-8-45-17-68-24v17c6 0 11 2 16 4l12 4 2 1 8 1c12 4 24 11 37 15 12 4 24 4 36 8a56 56 0 01-1-16l-6-1zM465 560c1 4 5-1 6-2l2-4c-4 1-9 2-8 6zM454 464c1-6 1-9-4-12l-15-3-7-2v2a46 46 0 001 15l10 3 9 3a43 43 0 015 0l1-6zM318 537l8-2a386 386 0 00-4-51l-1-23-1-9v-3l-5-2 3 39 1 20-1 18v13zM330 440l2 1 3-1-3-1-2 1zM330 487l-2-4-1 1v4l3-1zM329 496v-2l2-5-3 2v5h1zM438 472l1 4 5-2h-1l-5-2zM362 547l1-12h-2l-4 1-1 10 6 2v-1zM370 549l-3 1 3 2v-3zM335 454c2 1 5 3 8 3v-7-1h-2l-6-1v6zM327 481l2-1 2-2-1-2-3 1v4zM381 556h-1l-2-4-3 2 6 2zM355 448l-6 1-1 8 4-1 4-2-1-6zM326 441l1 2 2-1-1-2-2 1zM339 541l12 4v-1-5l1-3-2-1-8-1-5-2v9h2zM452 494v-5l-2 1 1 5 1-1zM440 572l-4 2 5 2-1-4zM451 537v-5l-2 1 1 4h1zM447 492l-4 2v4l4-2 1-1v-3h-1zM404 565l3 1h1l-1-5-1-1-3 2-1 1 1 1v1h1zM399 562l-1-3v-1l-5 3 4 1h2zM415 569l-1-3-3 1v1l4 1zM432 572v-2-3l-4 2-2 1v1l6 1zM324 436v3l3-1v-1l-3-1z" class="st2"/>
    <path d="M449 698l-1-3-2-7-2-4-8-11-5-3-8-3-6-1h-3l-5 2c5 2 9 6 13 10 5 5 9 12 11 19 2 9 4 17 2 25l-3 11 16-7c2-5 3-11 3-17l-2-11zM505 672l-4-2-17-4-23-8-28-12c-2 2-3 5-3 8l17 1c5 0 9 1 14 3h1c8 4 16 8 22 15 8 7 13 18 12 29l6 1h3c-3-6-3-14-3-20l3-11z" class="st2"/>
    <path d="M477 675c-6-5-14-9-21-11l-12-2 5 2c3 2 7 3 9 6l6 8c5 6 9 13 12 20a39 39 0 013 14l6-1 2-2 1-1 1-7c1-10-5-20-12-26z" class="st2"/>
    <path d="M546 598l-6 1-15 5 2 18v17l10-3c1 0 9-1 9-3v-35zM538 664l-6 5c3 2 5 8 6 10 3 10-5 19-15 18-11-1-10-14-3-22h-3l-7-1c-2 4-3 7-3 11 0 7 0 14 4 20h5c9 2 18-1 23-9 5-7 6-14 4-21l-5-11z" class="st3"/>
    <path d="M350 713c-3-5-7-11-13-13l-1-1-3 1-14 5c6 4 12 9 15 15 5 7 8 15 9 24 1 7 2 14 0 21l-1 5 10-4 2-3h1c6-9 5-21 3-31l-8-19zM419 682c-2-2-4-5-7-6s-6-4-9-4l-2-1-4 2-11 5 7 3 9 8c5 6 7 14 9 21 3 9 5 22 2 32l9-5h1l1-1c4-4 6-11 6-16 2-7 1-14-2-21-1-6-4-12-9-17z" class="st2"/>
    <path d="M555 509h-6l-7 2c-3 0-3-5 0-5l8-1 5-1-1-6v-3c-5 2-10 4-15 4-3 0-3-5 0-5 5 0 10-2 15-4v-6l-5 1-15 4c-3 0-3-4 0-5l16-4 4-1v-3c-8 2-16 2-24 5-3 1-4-4-1-5 8-3 17-3 25-4v-2l-3-3-7 1-11 2-8 1c-3 0-3-5 0-5l10-1 7-2h3l-3-2c-6 0-12 3-19 2-3 0-3-5 0-4l14-2-5-4-10 1c-4 0-4-5 0-5h5l-6-5-1-1v-4c1-6 4-12 8-17 3-5 7-10 12-14l13-8 2-1v-15c-2 0-3 2-5 3l-5 4-14 10-16 10-8 5-7 5 1 14 1 16 1 18 2 17c0 8 0 15 2 22v18c1 12 6 24 6 36v19l1 18 1 38 2 20 3 10c4-1 8-5 11-8l6-5 4-2 9-3 4-2 2-1 1-1v-17-86l-2-33zm-4 126c-1 4-6 5-9 5-4 1-10 2-14 5l-2 1h-1l-2-3-1-1c0-7 2-15 0-22l-2-18 2-2c5-1 10-5 16-5l6-1 4-1c2 0 3 1 3 2l-1 22v10l1 8z" class="st3"/>
    <path d="M359 690l-13 5-4 2c11 6 18 22 20 34 3 11 4 22-1 32l1-1 11-3 7-3 2-7 2-12c1-7 0-15-3-22-4-11-11-22-22-25z" class="st2"/>
    <path d="M396 690c-4-5-10-6-15-9l-15 6c9 5 15 14 19 24a60 60 0 011 42l19-8c3-4 4-9 5-14 0-8-2-16-4-23-3-7-5-13-10-18zM330 721l-16-13-9 4 2 1 3 4 6 9c4 5 6 11 8 18s3 13 3 20l-1 10-2 2 9-2 2-2c2 0 4-10 4-12a64 64 0 00-9-39zM605 447l5-6a182 182 0 01-18-10l-3 3-4 5a59 59 0 00-12 23c-1 3 0 6 1 9l1 2 6 3 17 6-1-4 1-18c1-5 4-9 7-13zM940 339l-33-11c-23-8-45-19-68-28a125 125 0 01-5 13l8 2 9 4 18 7 30 11 31 11 30 11 8 3-1-4c0-2 2-4 4-5-11-5-20-11-31-14zM807 283v-21c-1-6-1-14-4-20-4-7-10-7-17-8l-24-3h-1c8 5 14 12 16 21 4 17-3 36-13 50a87 87 0 01-42 31c-8 2-16 3-24 0l-7-5 4 4c6 4 13 8 21 10h23v-6l6-4 8-4c6-2 11-3 17-3h8l2 7c11-5 18-17 22-28 2-7 5-14 5-21zM977 356l-4 2-1 2 3 3 7 1h2l-4-5-3-3zM831 284l-2-2v4l-2 13c-3 8-7 15-12 21h4l6-5a57 57 0 007-18c-1-2 0-4 2-5v-2c1-4 0-5-3-6zM700 441l-17 6c0 6 3 12 6 18 2 5 5 10 9 13a212 212 0 0026-9c-6-3-10-7-15-11s-8-10-9-17zM749 414c-4-1-9-2-12-5l-7 10-5 5-1 1 7 7 11 7c4 1 8 5 12 4h3l4-6c4-6 7-13 9-20-7 2-14-1-21-3zM652 451l-17-2-3 8-1 12c0 6 0 13 3 18h10l15-1-6-12c-2-8-3-16-1-23z" class="st2"/>
    <path d="M729 437c-3-2-6-5-8-9l-17 11c1 7 4 12 9 17 4 3 10 8 15 9h3c8-5 15-11 21-17l-4-1-19-10zM170 678l-3-7 5 24 2 9v-9c0-5-2-11-4-17z" class="st2"/>
    <path d="M349 614c-2 4-4 8-4 13 0 6 1 12 4 17l3 1c9 1 16-1 22-8 3-4 5-9 5-14l-5-3c1 11-10 23-19 14-5-5 0-16 6-21l-10-3-2 4z" class="st3"/>
    <path d="M324 614c7 8 12 18 12 28l7 1c-3-6-3-13-2-19 0-5 2-9 4-14l1-1-32-10c-11-4-21-9-32-12l-2 2h-1c-3 1-4 5-4 8 9 1 18 0 28 4 7 3 15 7 21 13z" class="st2"/>
    <path d="M314 778v-2l-5-21c-2-9-3-19-6-27a152 152 0 01-7-25c0-4 0-8-2-12l-2-4c-4 1-8 3-11 6l-3 2v2c0 4 2 8 4 12l4 12c3 9 7 17 8 27a187 187 0 004 27l5 11 1 4v1c2 0 3-1 3-2l3-3c-2-3 1-6 5-6l-1-1v-1z" class="st3"/>
    <path d="M271 625c3 4 5 8 6 13 2 7 4 15 2 23l-3 9 15-6c2-5 3-11 2-15l-2-11-1-2a30 30 0 00-3-11l-8-9-4-3-8-3-5-1h-2l-5 2 11 8 5 6z" class="st2"/>
    <path d="M249 630c4 6 6 13 8 20 2 4 3 10 3 15l11 4c2-4 3-7 3-11 1-7 0-13-2-19a39 39 0 00-16-21l-7-4h-1l-3 1-11 5 6 3 9 7zM283 612c4 5 8 10 10 16l1 1 2 9v3l2 10-1 11a206 206 0 0018-9l-1-8-4-9-8-13-6-7-6-4c-6-3-10-5-16-6v1l9 5z" class="st2"/>
    <path d="M233 651l2 8 6 1 14 4c0-5-2-10-4-15-2-7-4-13-9-18-3-4-9-6-13-8l-14 5c9 5 15 14 18 23zM320 651l5-1 2-2 1-8c1-8-4-17-11-22-5-5-12-8-19-11l-10-2 4 2 8 5 6 8c4 6 8 12 10 18a46 46 0 014 13z" class="st2"/>
    <path d="M360 632c3 2 6-2 8-5 1-3 3-6 1-9l-1-1-3-1c-1-1-6 5-6 6-1 3-3 8 1 10z" class="st3"/>
    <path d="M188 677c-1-6-3-12-7-17s-9-9-14-12l-6 2 1 4 2 2 4 7c4 5 6 11 8 17 2 7 4 13 3 19l-1 9-1 2 7-2 2-1c2-1 3-8 4-10v-10l-2-10zM194 679v1c1 6 2 14 0 21l-1 4 9-4-4-10-4-12z" class="st2"/>
    <path d="M169 716v-1-3l-6-21c-1-8-2-17-5-25a179 179 0 01-5-17v-1l-1-6c-1-4-1-8-3-11l-1-3-12 6-2 2v1c0 4 2 7 3 11l4 11c3 8 6 16 7 25 1 8 2 17 5 25l4 10v3l1 2 1 2c1 1 2-1 3-2l3-3 4-4v-1z" class="st3"/>
    <path d="M209 660l1-1c4-2 8-4 13-3h2l5 1-1-3c-4-10-10-20-21-23l-11 5-4 1c8 5 13 14 16 23zM295 779c-4-8-5-18-6-27l-1-10-3-7-4-14-5-14-3-9v-1h-1c-7-1-13-5-19-8h-2v-1l-4-2-3-1-7-2h-1l-5-2-16-3h-2l-5-2-8-2 2 7 5 12v1l2 4v2l2 5 6 15 3 10c2 1 3 3 2 4l3 15 3 12 2 6 2 3h5l9 2a333 333 0 0052 17h0l-3-10zM275 678l-4-1-1-1-4-1-6-2h-1l-4-1-15-4-3-1-6-2c-2-1-4-2-6-1l-3-1c-4 0-7 2-11 4l-4 3-1 1h1l6 1 2 1 17 4 4 1h1l13 4 1 1 4 2h1l3 2 14 5h2l1-1 2-2 3-2 6-3-9-4-3-2zM149 713c-3-8-5-17-5-25l-8-29-5-13-2-8-1-1c-11-2-21-10-32-13l-20-4-16-4 3 5 4 12 9 26c3 8 7 17 8 25 1 4 1 9 3 12l2 6 2 4c0 2 10 3 12 4l11 5 12 2c5 0 10 2 14 4l13 3v-2l-4-9zM197 666h1l6-3h1l-5-10c-3-5-6-11-12-13h-1l-2 1-13 4c6 4 11 8 14 13s5 9 6 14v-2c1-3 3-4 5-4zM96 619l18 7c4 3 9 6 15 7h1l1-1h1l1-1 3-3 8-4-9-4c-5-2-11-5-17-6l-20-6c-5-1-10-4-15-3l-2-1c-6 0-11 5-16 8l11 3 20 4zM372 454l1-1h-2l1 1zM340 523l1 1h2v-1l-1-3-3 1 1 2zM351 522v1l2 1-2-2zM362 525l-2-1-3 1 5 1 1-1h-1zM341 510l-2-4h-1l2 4h1zM402 550l-1-1c-2-1-3-3-2-5h-2v6l5 1v-1zM344 513l-2-1 1 5 2-1-1-3zM348 514v0zM349 517l1 3v-4l-1 1zM344 519l1 3v1l3-2-2-3-2 1zM429 550a91 91 0 00-8 4v1l1-1 7-3v-1zM333 528l1-2 5-1-2-3-7 4v5l2-1v-1l1-1zM422 550l-2 1 5-2 3-1v-2l-5 2-1 2zM430 480v-1l-2-2v-3l-1 1-1 3v4l4-2zM429 495l2-1h2v-4l-5 2 1 3zM420 488l1 1v3l4-2-1-4-4 2zM408 482l-2 1 2-1zM388 465v1l1 2 2-1-1-4-2 2zM442 545h-2l-3 2 1 3 5-1v-1l-1-1v-2zM428 561h3l1-1c-2 0-8-2-8 0l4 1zM437 543v1l4-1-1-4h-4l1 4zM447 517v4l3-1v-4l-3 1zM440 534h1v-1l1-1a19 19 0 001-5l-1 1h-1v2l-1 4zM368 526v3l5-1-1-4h-2l-2 2zM383 527h-1v2l7 1-1-6-5 3zM410 494v-3h-3v4l3-1zM380 528h-1l1 1v-1zM391 478l1 5 1-1-1-4h-1zM393 485l1 4 3-2v-1l-3-2-1 1zM360 458l1 1 3-1-1-4-2 1v1l-1 2zM385 468l1 2v-1l-1-3-1 1 1 1zM338 519l2-1h1l-2-5-2 2 1 4zM377 483l2 4 1 6h1v-6l-1-3 2-4h-1l-2 1c-1 1-3 1-2 2zM373 519v1l4-1-1-3-3 3zM371 522v-1 1zM388 480l-1 2 1 3 2-1-1-5-1 1zM399 486h1l4-2a9 9 0 01-5 2zM422 495v2l3 2 2-2-1-4-4 2zM399 476h-2v3l2 2s3-1 2-2l-1-1-1-2zM391 469l-2 2 1 5 1-1v-6zM394 473v-1l1-1v-4l-2 1 1 5zM418 546v-1-1l-1 3 1-1zM390 535l-10-1h-13l1 1a36 36 0 0120 2l1-1 3-2-2 1zM436 499l2 3h1l-1-3h-2zM366 528l-1-1 1 1zM366 521l2-4 5-4 2-7h-1c-1 4-1 8-6 10-3 0-4 0-4 3v1l1 1h1zM338 462h1l-2-1 1 1zM435 572l4-3h1l-2-4-4 1 1 4v2zM449 565l1-6-2 1 1 4v1zM369 545l-2 1v2l2-1v-2zM430 566h-2l-3-1v3l5-2zM384 547l-4-2h-1l1 3v1l2-1 2-1zM452 504v-1-6h-1v1a109 109 0 011 6zM419 560v-1l1-1-1-1v-3l-5 2 2 6 3-2zM397 556l-4-2-1-1h-1l1 6 5-3zM411 555l-1-4h-1l-2 2v1l1 3 3-2zM452 513v-7 7zM375 463l2 4h2l-2-5-2 1zM383 459l-4 2 1 1 1 3 3-1h1v-1l-2-4zM370 457l-3 2 1 4 4-2-1-2-1-2zM388 459l-2-1h-1l2 4 2-1v-1l-1-1zM373 456l1 3v1l2-1-1-4-2 1zM409 470l-4 2-3 1 2 2 1 2 6-3-2-4zM419 486l1-1h-1v1zM433 482l1 4 5-1v-1l-1-4-5 2zM415 483l-3-1v1l1 2 2 2v1l2-2-1-3h-1zM326 446l-1 1 2 1-1-2zM332 474l1 3 3-2-2-2-2 1zM334 482l-1-2-2 1-1 1 2 3 3-1-1-2zM336 487v-1l-3 1v1l3-1zM328 445l1 3 1-1v-2h-2zM359 463l1 5 2-1-3-4zM331 502l1-1c-1 0-2-1-2-3l-2 1 1 3h2zM366 471l3-2-2-2-2 1 1 3zM356 459l-3 2h4l1-1-1-1h-1zM369 465l2 3h3v-1l-1-3-4 1zM344 464l1-1-2-1 1 2zM330 534l3 1-1-3-2 2zM334 514l-2-4-2 1h-1l1 5 4-2z" class="st2"/>
    <path d="M302 281c4-1 9 0 13 2 8 3 15 8 22 12 6 4 12 5 19 4 4-1 7-3 11-3 4-1 7 2 10 4l11 2 15 2c4 2 9 2 13 3s7 3 11 3c3 1 3-4 0-5l-6-1-5-2a527 527 0 00-25-4c-4-1-9-1-13-3l-8-4c-3-1-6 0-9 1l-12 2c-4 0-8-2-11-4-12-7-26-17-41-14-7 2-14 7-22 6-3-1-7-1-10-3-3-1-4-6-6-9-2-2-6 1-4 4s3 6 6 8l8 4c7 1 14 1 21-1 4-2 7-4 12-4zM394 107c-3 0-3 5 0 5l32-2c3 0 3-5 0-5l-32 2zM379 173l13 8 13 12 12 11c2 3 3 7 7 7l15-6 1-2v-1c1-4 5-6 5-10v-2l-1-1c-3-5-10-7-15-11l-10-8-9-8c-3-3-8-9-12-9h-22-1l-1 1c-2 0-2 2-2 3-1 3-3 6-2 9s6 5 9 7zm55 29l-7 2 1-1 6-1zm-5-2l1-2 7-1-1 2-7 1zm2-4v-1h7l-7 1zm1-10h1l5 3-4 1h-4v-1c-3 0-5-2-7-3h9zm-8-6l5 4h-8l-4-3-3-2h8l2 1zm-5-3h-8l-5-4 8-1 5 5zm-11-10l3 3h-8l-5-3h10zm-2-3l-10 1-5-3 11-1 4 3zm-11-6l3 1h-10l-3-2 10 1zm-18 2v-1c6 2 10 6 15 9l12 10 6 5 7 4c3 2 6 5 10 6-1 4-4 7-4 10l-5-4-10-11a314 314 0 00-33-24l2-4zM379 103l45-4c3 0 3-5 0-5-15 1-30 4-45 4-3 0-3 5 0 5zM411 508h-1c-8 1-13 7-14 15 0 8 7 14 14 14 9 1 15-7 14-15 0-8-6-14-13-14zm-1 24l-6-2 6-2c2 0 4 0 5-2 1-5-2-9-6-9l-2 1-5 2v1c0-4 3-7 6-8h1c6-2 10 4 11 10 0 5-5 9-10 9zm0-10v1l-2 1h-2l1-1 3-1zm0 0zm0 2zM388 241v-5l-2-2c-2-1-3 0-4 1l-1 1c-1 2-2 4 0 6s6 2 7-1z"/>
    <path d="M403 251c6-3 11-10 12-17 0-5 0-9-2-14-4-9-16-14-26-12h-1c-5 1-9 3-12 7h-1c-6 7-8 17-4 25 5 11 23 16 34 11zm-22-35l6-3h1c8-2 17 3 21 10l1 7-13-7-16-7zm-5 4l18 7 7 4 9 4c-2 5-5 9-9 11-4 3-10 2-15 1-4-1-9-3-12-7-4-7-2-15 2-20zM353 489l-2 6c-1 4 5 5 8 5 4 0 6-4 5-8-2-3-6-4-9-4l-2 1zm3 6v-2h2l1 1v1h-3z"/>
    <path d="M345 489l-1 3c-1 8 3 16 12 18 4 0 8-1 11-3 2-2 3-3 3-5l2-8c0-8-6-16-13-16l-1-1c-8-1-12 6-13 12zm20-3c2 3 2 8 2 11-1 6-6 9-12 7-8-1-7-17-2-21h3c3-2 6 0 9 3zM278 214c3-4 3-12 2-17l-2-7c-3-6-8-11-14-13h-7-1c-7 2-14 7-17 14-2 0-3 2-2 4v4c-2 13 13 20 24 21 6 1 13 0 17-6zm-31-27c4-3 8-5 13-5s9 3 12 7h-14l-13 1 2-3zm-6 12l1-4 16-1a461 461 0 0117 2v13c-1 6-7 7-13 7-9-1-20-6-21-17z"/>
    <path d="M266 213c2-1 2-3 2-5-1-2-2-3-4-3s-3 0-4 2l-1 4 3 2h4zM260 157c3-1 7-2 10-5l9-3c2 0 3-2 2-3l-2-6-2-6v-1l-2-2h-8c-3 0-6 0-7 3h-1l-6 7-10 6-15 12-1 1v2c1 3 3 7 6 8 3 2 8-2 11-3l16-10zm5-18l3-2 2-1h2l-7 5v-2zm-1-3h2l-2 1v-1zm4 10l-2-2v-1l7-5 1 2-3 2-3 4zm2 1l3-3 2-1 1 2-6 2zm-36 17l-2-2c5-4 10-9 16-12l8-6 4-4c2 3 2 7 5 10l-7 3-11 6-10 6c-2 1-2 1-3-1zM134 487l12 13 14 15 25 29 3 4 2 1c7 0 14-1 13-10-1-4-5-7-7-11l-12-12-21-24-16-21c-3-5-12-13-18-8-7 7 1 18 5 24zm-2-20c2-2 5 1 6 2l7 7 26 33 11 11 9 11c2 3 6 6 7 10 2 3-4 3-7 3l-41-47c-7-7-13-14-17-22-1-3-3-5-1-8z"/>
    <path d="M979 349l-13-7-17-8c-17-7-35-11-53-18l-55-23 1-8c-2-7-9-8-14-11-1-3-2-5-5-7-2 0-7-1-8-4l-1-1v-1c-1-7-1-15-4-22-4-7-9-10-16-11l-26-4-28-2-3 2-1 3v1l-2 10c-2-2-5-2-7-3l-17-6-7-1-8-4-6-3-6-2h-5-3c-6 2-10 4-14 9l-9 18c-2 10-1 24 6 32l4 3c3 0 6 2 8 3l10 3 21 4 16 6h-7l-14-1c-3 0-6 0-8 2-3 0-5 3-7 5-4 4-6 7-7 12 0 5 4 10 7 14a57 57 0 0040 21l18-1v1l1 7h-1l-2 2 2 3 1-1v6c-1 22-9 43-26 57a99 99 0 01-58 19c-11 1-22 0-33-4s-21-10-31-16l-29-20v-6c0-6 0-13-3-18-1-3-3-5-6-7l-10-2-17-2-5-1-3-1-2 1-19-5 24-18c14-9 26-20 38-30h1v-1c2-1 2-3 1-5l-1-20v-3-20c6-3 11-7 14-14 4-10 3-21 3-32l3-36c1-10 1-22-5-30-3-3-5-5-9-6l1-18 1-16c1-3 2-6 1-9-3-7-14-7-20-8l-29-9-16-3-14-4v-1c0-9 5-17 12-22 5-3 11-5 17-4-3 2-7 4-9 8-3 4-1 11 4 13s11 1 15-2c5-2 8-7 7-12 0-3-1-5-3-7 8-2 17-2 26 0 3 0 4-4 1-5-11-2-22-2-32 2h-1l-7-2c-18-2-34 12-35 30l-37-8-74-19c-13-4-25-7-38-9l-8-1-6 4-18 7-21 10c-4-1-8-4-11-7a29 29 0 01-9-16c3 5 8 8 14 7 7-1 14-7 13-14-2-11-16-11-25-5 0-10 9-18 17-23 3-1 0-5-2-4-11 6-22 19-20 31l-2 4c-2 7 3 15 7 20l12 11-5 3a975 975 0 01-65 34c-2 1-2 2-2 4l2 21v1l-8 6-6 5v7l2 8 4 16c2 6 1 12 1 18s1 11 3 16l1 7 1 3v1l1 4 12 9 2 2v11l1 13 2 26v24c0 2 1 3 3 4l48 18-2 2h-1a254 254 0 00-138 34c-10 6-18 14-26 22s-14 16-19 26c-4 10-7 21-8 31l-1-2c-2-6-1-18-9-20-6-2-12 6-14 10-4 7-5 15-4 23 3 15 17 21 31 22 4 9 11 17 19 24l-1 1a81 81 0 000 48c2 5 5 10 9 14 6 9 16 15 27 18 5 2 11 2 17 1l19-1 6-1 1 3c2 8 8 14 14 18 8 4 17-2 24-4 9-4 5-13 5-20 0-2-3-4-5-3-3 1-7 1-9-2-3-4-1-7 2-9 4-3 14-5 19-2 4 1 1 6 0 9s-1 7 1 10c4 5 12 2 16 0 6-4 10-10 11-17 0-7-5-16-10-22-5-7-12-9-20-7l-5 1-3-4-1-1 1-2c6-18 3-36-10-51a57 57 0 00-47-18l-13 2v-1l-6-6-4-2c5-7 9-14 8-23-1-7-5-13-11-17 4-5 9-9 14-12a214 214 0 01104-24h3l2 28 2 32 1 8c-5 2-9 5-13 9-2 2 1 6 4 4 3-3 6-6 9-7l1 16c2 10 3 19 3 30l2 30c2 10 4 20 3 30 0 9-1 18 1 27-5 4-7 10-8 15v2l-6 2-16 6-18 9-15 6-8 3-8 3-14 6-23 9-1-10-1-4c-1-2-3-4-2-6 0-2-1-5-4-4-3 0-5-1-7-3l-8-3-19-7-18-5c-5-1-10-4-15-3l-2-1c-5 0-9 1-13 4l-6 4-5 2h-1c-2 0-4 1-5 4 0 7 4 14 6 20l10 26 8 26 3 13c0 4 3 7 3 10l2 4c2 4 8 6 12 7 4 0 7 1 10 3 5 3 10 4 15 4l16 4 16 4c3 1 7 4 10 1 4-3 6-7 10-9l2-4 1-2c4 0 9-2 13-4l15-6 4 11-15-2c-4 0-4 4 0 5l17 2 2 5-12-2c-7 0-15-1-21-3-3-1-5 3-2 4 7 3 14 3 21 4l16 3 2 8-5-1-13-3-12-3-10-2c-3 1-3 6 0 5l11 2 14 4c4 2 9 2 13 2l4 1 1 8h-3l-6-1-9-2-12-3c-8-2-15-5-23-6l-12-1-11-3c-4 0-3 5 0 5 4 0 7 2 11 3l15 1c8 2 17 6 26 7l11 3 7 1 7 1 3 6-4-1-8-1-11-2-39-6c-3 0-3 5 0 5l22 3 23 5 16 2 2 1 2 1c2 3 8 3 12 3l13 5c5 3 11 4 16 6l16 5 15 4c4 2 8 2 11 0l5-4 14 2 17 3c3 0 3-5 0-5l-14-2-14-2 1-1c2-1 2-3 2-4h2l8-1 1 2c6 2 13 2 19 2l21 5c3 1 5-4 2-5l-21-4-17-2 2-1 12-5c10 3 22 1 32 5 2 2 5-3 2-4-8-4-17-3-25-4l2-1 19-6 1 1 22 5c4 0 5-4 2-5l-19-4 12-5 2 1 19 4c3 0 4-4 1-5l-15-3h1l9-4h2l24 3c3 1 3-4 0-4l-18-3 10-5c8 2 16 1 23 4 3 1 4-4 1-5-5-2-11-2-17-2l7-3 4-2c3 2 7 2 10 2l13 2c3 0 3-5 0-5l-10-1-5-1 10-4 1-1c8 1 15 1 22 4 3 1 4-4 1-5l-15-3 2-1 8-2 3-1 4 1 14 2c3 0 3-5 0-5l-10-1-4-1 1-4 8 1a233 233 0 0018 3l10-1 16 2c3 1 4-4 1-4l-10-2 5-5h1l19 4c4 0 4-5 0-5l-16-3 3-7c8 3 17 3 25 5 3 1 4-4 1-4-8-2-17-3-25-6l1-8 14 4 20 5c3 0 5-4 2-5l-20-4-17-5-3-8 21 5c7 2 15 5 23 6 3 0 3-5 0-5-4 0-8-2-11-3l-12-3-23-5h-1l-1-2 10-4c4-1 9-3 11-8v-1-75-38l-2-19-1-33h4c3-1 2-5-2-5h-2l1-1h1l17 9c22 9 45 12 69 10 21-1 43-6 64-13 20-7 38-18 51-36a125 125 0 0020-88v-4l-3-14c6-2 11-6 15-11l2 1c2 1 5 3 8 1l3-3h10c3 0 6-2 8-4l3-4 13 5 17 6 28 11 61 22c8 3 17 6 25 7 6 2 14 3 17-4 3-6-8-15-12-17zM529 55c3 2 5 6 3 10s-7 5-10 5c-5 1-8-3-6-7 3-4 8-6 13-8zM272 30c4-2 16-4 14 5 0 4-7 7-11 7s-7-5-8-9l5-3zm557 247v-1 1zm-162-2l-1-1-2-1c-2-2-3-6-4-10-1-5-2-10 0-15 1-5 3-10 6-14s6-7 12-8v-1c1 1 3 2 4 1l5 2 2 2c6 4 7 12 7 19s-6 13-11 18c-2 3-6 5-9 6l-9 2zm48 13l-11-4-22-4-6-2 4-1 11-8c6-7 10-16 9-25 0-4-1-8-3-11l10 3 16 5 9 3 5 3 4 3c4 3 8 5 10 10v1l-4-3-11-4c-8-3-16-4-24-8-2-1-5 3-2 5l23 7 11 5 8 4-1 10-2 7-8-3-12-3-13-5c-4 0-7-1-11-3-2-2-5 3-2 4 6 4 14 4 21 7l13 4 5 2 5 1c-2 3-3 7-6 9l-7-3-11-3-8-3zm0 16l13 1h4c-9 4-21 4-30 2l-2-3h15zm-32 9c1-3 4-5 6-7 2-3 5 3 7 5l3 3c12 2 25 3 37-2 9-5 15-14 19-24s8-23 1-34c-2-4-6-7-11-9-3-3-3-6-3-10 2 0 3-1 3-3 11 3 22 11 25 23 3 15-4 32-13 44s-23 22-37 26c-7 3-15 3-21 0s-11-8-16-12zm-120 98l6 4-6 4-11 11-8 13-2 8-14-11c1-6 3-11 8-16 3-4 5-8 10-11l10-6 7 4zm10-247h1v21l-1 13-2 36c0 5 0 11-2 15l-7 8-5 2-3 1-11 5-16 8-11 4h-1l-2 1h-1v-3l2-42c2-15 1-31 6-46l11-5a189 189 0 0129-13l7-4 5-2 1 1zm-66 114c-2-1-2-4-2-7v-18-20-40l1-9v-4l6 5 3 2c-4 13-4 29-5 43l-3 48zm0 0zm61-123l3 3-3 2-8 3-5 3-20 9-8 3-6 4c-3 1-4 0-7-2-1-2-4-3-6-4l7-3 8-4a482 482 0 0125-14c1-1 3-3 5-3h1a129 129 0 0111 2l3 1zm-6-38l-1 28-8-1-3 1-6 4-15 8-8 4-8 5c-5 2-10 3-13 7-2 2-1 4-1 6l-1 9v79c0 4-1 9 1 13 4 7 11 6 18 4l6-2 31-14-1 1c-3 3-8 4-12 5a162 162 0 00-23 12c-3 1-7 5-11 5-3 0-3 5 0 5l10-4a163 163 0 0128-14l10-4v3l-6 3-13 6-25 13c-3 2 0 6 3 5l21-12 11-5 5-3 4-1v4l-15 7-24 12c-3 1 0 5 3 4l21-11 15-7v17c-9 8-18 17-28 24l-31 22-6 5-7 5-8 6 1-8 1-7v-23l-1-29-1-27-2-26-1-29v-54-1l2-1 4-2 6-4 12-8c7-6 14-12 22-16 14-9 30-17 45-25l-1 6zM280 74l9-5c7-5 15-9 24-12l15-6c3-2 4-2 7-2l11 2 75 20 66 15 7 20c1 3 6 1 5-2-3-5-5-10-6-16l2 1 32 8 29 7 3 1c-18 10-36 18-53 29l-27 20-8 5-3 2-4-1-12-5-30-9-38-10c-12-4-24-8-37-10-25-6-50-11-76-15l-38-5-11-2c20-9 39-20 58-30zm-66 142l-2-10-2-10-1-11-2-22c-2-6-5-13-5-20l3-3 4-3h1l1 17 3 26 3 26 2 14-5-4zm18 87v-21l-2-25-1-24v-4l-1-3-3-18-6-52-3-24v-2l-2-20 7 1 16 3 37 5 71 14c12 2 23 6 34 9l37 10 29 9 12 4 6 2 1 1a5304 5304 0 001 80l2 26 2 54v34l-2 12h-2l-11-5h-2l-1-1-25-8h-1l-18-4-19-6-18-5-59-16h-1-2l-15-5-9-3c-18-5-35-11-52-18zm188 63l-1 1c-2 1-5 0-7-1l-17-2-14-5c-2-1-5-2-6-4l-1-1h1c12 3 25 8 38 10l7 2zm-153-23l9-6 9-7 3 1-12 10c-3 3 1 6 3 4l15-13 4 1-12 12c-2 2 1 5 4 3 4-4 8-10 14-13l4 1-4 4c-3 4-7 6-9 10-1 3 4 5 5 2 1-4 5-6 7-8l6-7 8 2-11 11c-3 2 1 6 3 4 5-4 9-11 15-13l6 2-2 2-13 10c-3 2 1 5 3 4l11-9 6-6 9 2-12 11c-3 2 0 6 2 4l15-13 6 1-13 13c-3 3 1 6 3 4l16-15 1 1 1 4-11 7c-2 3 2 6 4 4 2-3 7-4 10-6l4 3 2 1-4 5c-1 1 0 2 2 3l3-2 3-4 9 3-4 3c-3 1 0 6 3 4l4-3 4-3 11 2-6 5c-2 3 1 6 3 4 3-3 7-6 11-7h1c2 0 5 0 7-2l4-5h3c-6 5-12 8-17 14-2 2 2 5 4 3 5-6 12-10 19-15l7 2-13 12c-2 1 0 6 3 4 5-4 9-10 15-14l6 3-4 2-8 8c-1 3 3 5 5 3 2-5 8-9 13-11l5 2c2 1 4 0 7-1l3-1 12-8 4-4 5 2-7 4-9 5-9 6-5 3c-2 1-3 3-5 3-3 0-3 5 0 5 5-1 10-5 14-8l12-7 9-5 7-4 3 1h1l-9 7-25 17c-2 2 2 6 4 4l23-16a162 162 0 0014-11l18 3-17 10-16 11c-2 2 1 6 3 4 5-5 11-8 17-11l16-10c2-1 2-3 1-4 5 0 12 0 16 3l-5 4-15 11-14 9-16 11-5 3h-4l-8-2a341 341 0 01-33-10l-14-8-17-5-17-4c-7-1-13-3-19-6-10-4-20-9-31-11-12-3-24-4-36-8-12-3-22-8-34-12l-10-4-7-4zm-158 52h1c5 0 10 2 14 4 3 2 8 4 10 7l-1 1-1-1c-9-5-20-7-29-3l6-8zm-12 18c2 3 6 5 9 6 4 2 9 3 13 6l2 1-1 2c-3-3-8-4-12-4H93l4-11zm-7 24l1-7c5-2 10-2 14-2s10 2 13 5l-2 8v3h-8c-7 0-13 1-20 3l2-10zm26 15l-10 2a33 33 0 01-17-2l15-3h12v3zm-19 29l-4-6h10l-6 6zm3 4c2-3 7-7 10-8 2 0 4 2 5 3l-9 12-6-7zm83 85c-4 2-10 3-15 3-9 1-19 2-29 0a47 47 0 01-32-43c-1-8 0-17 2-25v-1l3-7 8-11 16 23c-2 2-3 4-3 7-3 9-2 17 2 25 3 7 7 13 15 14l7-1c1 1 2 0 3-1l9-5 3 2h1l4 3 7 6 5 3c-1 4-3 6-6 8zm-37-47l-7-1v-1h7l2-1 1 2-1 10-1-1-8-1v-3l7 1c3 0 3-5 0-5zm-5-7v-2l2 2h-2zm0 20h7l1 4h-7l-1-4zm9 9l1 3-6-3h5zm6-15l6 8 4 3-7 5c-3-5-4-11-3-16zm7-65c16-2 32 3 43 15 11 11 14 27 10 42l-3-2-7-5-8-4c-2-1-5-1-6-3 2-5 5-10 3-16-2-5-8-8-13-9h-6l-9-9c-4-2-6-5-9-8l5-1zm25 33v1l-1-2 1 1zm-45-68c1 8-4 14-9 19-2 2-2 4 0 5 1 2 3 3 6 4l5 4 1 2 4 4 9 10 8 6 5 6 1 2 4 6 2 1 5 7 1 1-2 3c0 2 1 4 4 4l3 1 3 2 10 5 4 4 6 6 7 8c3 3 7 1 10 0 6-1 10-1 14 4 5 5 11 16 7 24-2 3-5 5-9 6h-3c-2 0 0-4 0-5 2-3 3-7 1-11-2-3-5-5-8-6-7-2-16 0-22 3s-10 10-7 17 8 9 14 9l1 3c0 2 1 4-1 5l-7 2c-3 2-6 4-9 3-5-1-10-8-12-12 0-1-2-6-1-7 4-4 8-9 9-15l-2-3-7-4-6-5-5-3v-1l-1-1-7-8-10-13-2-2-5-6-7-7-6-5-2-3c-4-6-7-13-12-18l-5-6-3-2c-4-3-8-5-13-5H89a46 46 0 01-7-1c-10-1-20-6-22-18 0-4 1-9 3-13 0-1 5-11 7-9s2 8 2 10c1 5 3 11 6 15l2 2 8 5c5 2 11 3 17 3a31 31 0 0018-7c4-3 7-7 9-11 2-7 1-14-3-19l-5-6-8-5-10-3-2-1h1l3-1c7-2 14 0 20 3l2 1 5 3c4 4 7 9 8 14zm-20 16a45 45 0 012-11l1 4c-1 2-1 5-3 7zm27-53a73 73 0 00-13 9c-2-3-7-5-10-7l-13-5 10-9 6-5 12 3 5 6 3 6v2zm5-3c-1-5-5-10-8-12-3-3-8-5-12-6l15-10 1 1 5 6 5 9c1 2 3 4 3 7l-9 5zm14-7l-3-6-8-12-4-6 20-8 1 6a50 50 0 007 21l-13 5zm29-9l-11 2c-3-3-5-8-6-13-2-4-2-9-3-13l7-2 17-5 1 16c1 4 4 9 7 12l-12 3zm18-4h-1c-3-3-6-9-7-13l-1-8v-7l15-3 7-1v2c-2 4-2 8-2 12 0 5 0 11 2 16l-13 2zm19-2c-2-4-3-9-3-13v-9l2-7 2-1 19-2-1 1-5 11v13l3 7h-17zm28-31l-3 3-2 4 1 11 1 13h-3l-2-5-1-11 2-9 5-7h5l-3 1zm11 129l-2-20c4 0 8 0 12 2-4 4-6 10-4 15 3 6 11 5 15 2 5-5 2-11-1-16l-2-2c5-3 11-3 16-2h1l2 23 3 39-1 30 1 2c-6 3-10 8-14 14-6 12-1 30 15 31 3 0 3-5 0-5-6 0-10-4-12-9s0-11 2-16c2-4 5-7 9-10v2l1 2c0 2 1 3 3 4l12 4c6 1 12 3 17 6 23 10 47 17 71 25l27 11h3c1 1 3 0 3-2l1-15 3-23a168 168 0 000-14v-3l7-2c4-1 8 4 9 7l1 3h-1c-5 1-12 5-11 11s6 7 11 4c4-2 6-6 6-10 10 2 18 12 14 21-2 3 3 4 4 1 6-13-5-25-18-27-1-5-4-11-10-13-4-2-8-2-12 0l1-16v-1l1-38v-3l1-4v-1l1-10c0-4 1-8-2-11-6-7-17-8-25-9l-3-1 3-7c1-2 4-5 7-6-1 3-2 5-1 8 0 5 7 8 11 4s2-11-2-15l3-2c8-3 17 0 22 6 2 3 6 0 4-2-7-10-21-13-31-6l-3 2c-5-1-11 4-14 8l-4 9a426 426 0 01-66-19l-37-13-10-3-3-1v1c-2 0-2 2-1 3v3l1 6a436 436 0 010 14l1 7h-6c-6-1-11 1-16 5-4-2-9-3-14-3h-1l-1-7-2-32-2-31v-1l-1-15-1-7 6 3 14 5 17 7 17 5c12 4 24 5 36 8l15 6a243 243 0 0034 11l19 4c5 2 11 3 16 6 4 3 8 6 13 7l33 10 10 2v7l2 9v17l2 18 3 38 1 18c0 7 2 12 3 19l3 18-1 19 2 18v20a314 314 0 003 37l1 5 1 2h-3a34 34 0 01-7-3l-17-6c-13-3-25-8-36-12l-13-6-8-3-14-6c-10-4-21-7-31-13l-3-1-6-4c-8-5-16-9-25-11l-35-10c-12-5-23-10-34-12l-2-1v-25c0-10-1-19-3-29l-2-31-2-28zm10-9l4-7c3 3 6 6 4 10-1 2-4 2-6 2-3-1-2-3-2-5zm140 5c-12-4-24-4-36-8-13-4-25-11-37-15l-8-1-2-1-12-4c-5-2-10-4-15-4l-1-11v-6c23 7 45 16 68 24a291 291 0 0042 10 72 72 0 001 16zm2 16l1-3 1-1v3l2 2v1l-4 2v-4zm23 93l-1 6-4-1-2-5 5-2 1 2h1zm-131-84l-3-40 5 2v3l1 9 1 23 1 7 2 44-7 2v-12l1-18-1-20zm2-44l-6-2v-7l5 1 1 8zm7-5l-3 1v-3l3 1v1zm34 17l2-1 1 4-4 1-1-1 2-2v-1zm0-5v1l1 1h-1v-1-1zm32 33h-1l-1-5v1l2 4zm2-18l-2 1-1-4h2l1-1v4zm26 16c-2-1-5-3-8-3l1-1c3 0 2-5 1-7-1-3-4-5-7-5l-6 3-2 1v-1-6c8 1 16 2 23 5v1l-1 7-1 4v2zm12-9l2-1 2 6-4 2h-1v-1l1-1v-5zm16 26v7l-4 1v-1l1-2-2-3 4-2h1zm0 9l1 6-3 2-2-7h2l2-1zm1 13l-3 1v-4l3-1v4zm0-30l2-1v5l-1 1-1-5zm-1 53l1 3h-2l-1 1 2-4zm-4-3l-1 1h-1v-3l3-2v-2h1l1 4-3 2zm-42 24l-1-1h1l3-3v1l2 5h-1l-3-1h-1v-1zm-21-10l-1-3h1l4-2 2 1v2l-3 1-3 2v-1zm-9-2l-1-4h1l4-2v3l1 1-5 2zm-1-6l-1-1h3l-2 1zm6 6l2 4h1l-6-2 3-2zm2-3v-1l-1-3h1l4 2-2 1-2 1zm3 8l4-2 2-1 1 6a45 45 0 01-7-3zm-1-16c-4-2-11-2-15 0v-1c8-2 17-1 24 4l1 1v2c-3-3-6-5-10-6zm-17-20l-1-1v-1c0-3 1-2 4-3 5-2 5-6 7-10l-2 7-5 4-2 4h-1zm1 7l-1-1 1 1zm18-25a16 16 0 001-5h1v1l-1 3v1h-1zm6 1l1-2v-2h1l1-1a27 27 0 001 3l-4 2zm1 3l-1 1h-1l2-1zm1-10l-1 1v-3l-1-2 2-1 1 5h-1zm-3-6v-3-1h1l1-1 1 3v1l-3 1zm1-7l-2 1-1-3 1-2 1-1 1 5zm-3 6v2l-1 1v-4l1 1zm2 40l-7-1v-2h1l5-3 1 6zm0 6l-1 1-5-2h-16v-1h13l10 1 2-1-3 2zm4 0l4 3h-3l-2 1-2-2 3-2zm-21-12l1 4-5 1v-3l2-2h2zm-1-2v-1 1zm8 6h1v1l-1-1zm3-4l-1 1-1-5 2 1 3 1c0 1-1 2-3 2zm2-16l-1 1-1-1v-1l2 1zm-4-33v-1l-2-2h3l1 1 1 2h-3zm-1 6l2-1h1l-2 4 1 3v6h-1l-1-6-3-4 3-2zm2 31l1 1-1 4-1 1-3-4h1v-1l3-1zm-2-2l1-2v2h-1zm-1 11l1 5-3 1-1-3-1-1 4-2zm-5-1v-1l3-3 1 3-4 1zm-6 26l2-1v2l-2 1v-2zm3 3v3l-3-2 3-1zm23 4v1l4 2-5 3-1-6h2zm5 5v1l1 3h-2l-4-1 5-3zm-1-8v-6h2c-1 2 0 4 2 5l1 1v1l-5-1zm4 6h4v2l-4 2v-1l-1-2 1-1zm7 1l-1-3v-1l2-2h1l1 4-3 1v1zm2 2l2-2 1 6v1l-3 1-1-3-1-3h2zm7-7h1l-5 2-1-2h2l1-1 2 1zm1-8v2l-1 1 1-3zm-4 22l1 3-4-2 3-1zm0-10l4-2 1 3 1 1-1 1v1l-4 2-1-6zm6 7l2 1v2l1 2-3 2-2-1-2-5 4-1zm9-27l1 1-1 1-2 2c-1 1-2 3-4 3v-1h1l5-6zm-5 12l4-2v2l-3 1-5 2 2-1 1-1 1-1zm-2 7l-1 1v-2l3-2 5-2v2c-2 0-5 1-7 3zm10 5l-1 1h-3l-4-1c0-2 6-1 8 0zm-2-15l1-2 2-3 2 5-5 2v-2zm-2 21h2l-5 2v-3l3 1zm0 3l3-2 1 3v2l-6-1-1-1 3-1zm3-18v-2l4-1v2l-4 1zm5-35c-1-1-4-6-3-7l5-2c-2 1-3 2-2 4l2 5-2 6v-2-4zm7 2h1l1 4h-2l-2 1 2-5zm-2-7l1-1 1-1 1 6v1h-1v-3l-2-2zm0 17h1v-1h1l-1 3-1 2v2h-1l1-4v-2zm2 21l-5 1-1-3 3-1 2-1v2l1 2zm-3-54v-1 1zm-4-1l-1-5 3-2h1l1 5-4 2zm3 8h-1l-2-3h2l1 3zm-1 37l2-1 1 5-4 1v-1l-2-4h3zm1 15c2 0 3 0 5 2l-4 2-2 1-3-4 4-1zm-1 11l2 4h-1l-4 2v-1l-1-4 4-1zm2 7l1 4-5-2 4-2zm1-8v-1l3-1 2-1v2l1 3-3 2h-2l-1-4zm6-68l-4 2v-4l4-2h1v3l-1 1zm-4-5h-1v-5l4-3 1 6-4 2zm-2-8l-1-5 3-1 2-1 1 5-5 2zm-2-7l-2-4 6 2-4 2zm-1 4l1 4-1 1-4 2-1-5v-1l5-1zm-5 10v4h-2l-2 1-1-3 5-2zm-4 11l2-1 2 3-5 4c-3 4 4 7 3 11s-2 6 2 8c1 0 4 1 3 2l-1 2c0 2 0 4-2 3-3-2-7-3-9 1-1 3-3 5-6 5-2 0-4 0-5 2l-1 3v3l-2-1a36 36 0 00-6-1v-7c0-2-1-3-3-3-2 1-4-3-5-4-2-2-4-5-3-8 1-1 0-3-2-3l-2-1-4-2 1-4h4c2 1 4 0 4-2 0-6 10-6 6-12l-2-5 3-1h1v2l2 4 3 1 6-1c2-1 4 0 5 1 2 1 4 4 6 4l5-3zm-23-18l2-1h1l-3 1zm4 1v2h-3l3-2zm0 7v3l-3 1v-4h3zm-5-14l-1-2-2-2 3-1 4-2 2 3-6 4zm-1 7l-4 2h-1 1l4-2zm11 4v-1l-2-2-1-2 3 1 2 3-2 1zm3 1l1 4-2 1h-1l-1-2v-1l3-2zm1-3v-1h1l-1 1zm-19-8l1 2-2 1c-2 0-3-1-3-2l1-2v-1h2l1 2zm-3 8v1l-3 2-1-4 1-1 3 2zm-2-15l-1 1v1l-1-5 2-1v4zm-5 5l-1-6 2-1v6l-1 1zm-1-8l-1-2v-1l2-2 1 4-2 1zm-2-6l-2-4h1l2 1 1 1v1l-2 1zm-2 4l1 3v1l-1-2-2-1 2-1zm-1-2l-3 2-1-4v-1l3-2 2 4v1h-1zm-5-5l-2-4 5 2-3 2zm-1 4l1 4h-2l-2-4 2-1 1 1zm-4-3v-1l-2-3 3-1 1 4-2 1zm0 8h-3l-2-2 4-2 1 4zm-2-14l-1-1h2l-1 1zm0 7l-4 2-1-4 3-2 1 2 1 2zm-10 0l3-1 1 4-2 1-1-1-1-3zm1 8h-1 1zm4-2l2 2-3 2-1-3 2-1zm0-11l-2-3 4-1 1 3-3 1zm-3-5l-1-2 3 1-2 1zm-2 16l-2 1-1-5 3 4zm3 9h3a48 48 0 015-3l1 1c2 3 2 3-1 4-4 2-1 7 0 9 2 2 2 4 2 7l3 4c2 0 3-1 2 2l-3 2-3-1c-1-1-3 0-3 1-2 4-2 8-6 9-2 1-6 3-6 6v2l-2 1c-4 0-2-3-3-5 0-3-3-4-5-5-4-2-5-4-6-7l-2-3-2-3c-2 0-5 0-5-2s1-3 3-2h2l3-2 1-2v-2l4-8c1-1 0-4-2-4l-2-5 3-1h1l1 2 2 2c2 2 3 1 6 1l2-1c3 0 5 2 7 3zm-33 53v1l-2 1v-5l7-4 2 2-5 2-1 1-1 2zm1 6l-3-1 2-2 1 3zm5-53l-1 1-1-2-1-2 2-2 2 5h-1zm1 2l-1 1v0l1-1zm0 29l2 5h-1l-2 1-1-4 2-2zm-1-7h1l2 4h-1l-2-4zm10 15l-3 2-1-4 2-1 2 3zm0-7v0zm-5 2l-2-4 1-1 2 2 1 2-2 1zm-1 4l1 3v1h-2l-1-1-1-2 3-1zm-6-8l-2-3 2-1 2 3-2 1zm-1-7l-2 2-1-3 4-2 2 2-3 1zm-3-20l-2-3 1-1 2-1 1 2 1 2-3 1zm1 2l3-1v1l-3 1v-1zm4-15l1-1 1 2-1 1-1-2zm2 4h2v3l-2-3zm1-10l-1-2h2v1h1l-2 1zm-2-4l-1-1 2 1h-1zm0 6l-3 1 1-2v-1l1-1 1 3zm-2 7l-3 2-1-3 3-1 1 2zm-6-3l-1-1c-1-1-3 0-2 1l1 2-2 1v-4h1l4-3 2 1v1l-3 2zm0 4l1 2-2 2-2 1-1-4 4-1zm-2 7l2 3-3 2v-4l1-1zm3 6l-2 5v2h-1v-5l3-2zm-1 9l2 3-1 1h-2v-3l1-1zm0 8l1 2-2 1v-3h1zm0 5l2-1 2 4-4 2v-5zm5 5l1 4-6 3v-4l5-3zm8 18l7 1 2 1-1 3v5l-12-3-1-1-1-9 6 3zm1-5l-1-1h7l10 2-5 1h-1l-10-2zm5-12l1-1v4l-1-3zm2 6l2 1-2-1zm6 13l4-1h2l-1 12v1l-6-2 1-10zm5-10l-4-1 2-1 2 1h1l-1 1zm-19-63h2l-1 1-1-1zm8 3h1l2-1 1 1v3c-2 0-2 1-3-1l-1-2zm6-5h-4l3-2h1l1 1-1 1zm-1-7l-4 2-4 1 1-8 6-1 1 6zm-9-9h-1l-4-1h-2l3-1h1l5 1h1l-3 1zm-6 4l2 1v7c-3 0-6-2-8-3v-6l6 1zm-9-8l-2-1 2-1 3 1-3 1zm-1 25l-5 2v-4l3-2 2 4zm-6-19l1-1 1 2-2-1zm2 7h-1 1zm0 7h-1v-3l1 3zm3-2l-2-3 1 1 1 2zm-1-11l-1-3h2v2l-1 1zm-2-5l-1-2 2-1 2 2-3 1zm-2 1zm-1 96l-2 2-3 2v-2l5-2zm0 7l2-2 1-1h1l1-1 9 3 12 3 2 1c10 3 19 8 29 12l17 6 11 4 9 2 8 2 9 3 7 2 5 1v1l-1 10-71-25-33-14-15-4-5-2 2-1zm124 13l2-1-1 6v-1l-1-4zm0-3c1-2 1-3-1-5l-1-2 3-1 1-1v8l-2 1zm1-24l2-1v5h-1l-1-4zm2-4l-3 2v-4l-1-2 1-1 1-1 2-1v7zm0-31v-1h1v6l-1 1v-6zm1 8v7l-1-7h1zm-2-18l-1-2v-4l4-2-1 1v6l-2 1zm-2-8l-1-5h6v3l-5 2zm4-10h-3c-4 0-7-2-10-3l-10-3v-2l-1-13v-2l7 1 15 4c5 3 5 6 4 12v6h-2zm-21 13l1 4-4 2-2-4 5-2zm-4 14l-2 1-3-1v-1-2l4-2 1 5zm-6-5v-3l-1-1 4-2 1 4-4 2zm52 62l-2 4c-1 1-5 6-6 2s4-5 8-6zm-30-121l1-3h1c2 2 2 6 0 8s-2-4-2-5zm-59 214l9 2 10 1 20 4v2l-8 2-1 1-5-1-13-2c-8-2-16-2-24-5-3-1-5 4-2 5 8 3 15 3 23 4l11 2-6 3-7 3h-14l-23-3-35-5c2-2 5-2 7-2l3-2 3-2 2-5 9 1 6 2 11 1c9 0 18-7 23-15 1-3 3-7 3-11l19 8-15-3c-3-1-4 4-1 5 6 2 13 3 20 3l17 4-2 6-21-5-10-1-9-2c-3 0-3 5 0 5zm-77 43l10 1 15 2h-1l-27 11-1-10-2-5-1-3v1c2 2 5 2 7 3zm15-3l-10-1c-2-1-7-1-8-3-2-1-5 1-5 3v-2-1c0-2-1-5-4-5-3 1-6-1-8-3l-3-1 4-1 5-2h1c0 1 0 2 2 3l15 3 20 2 17 3 8 1h-1l-9 4-5 2-19-2zm-35-3l-6 3-3 2-2 2-1 1h-2l-15-5-2-2h-1l-5-2v-1l-14-4-4-1-17-4-3-1-5-1h-1l1-1 4-3c3-2 7-4 11-4l2 1c3-1 5 0 7 1l5 2 3 1 16 4 4 1 7 2 4 1 1 1 4 1 3 1 9 5zm49-9l-19-2-19-4 11-5 3-2 2 1 43 7 21 2h3l-2 2-14 5-9-1-20-3zm-20-37c-2-6-6-12-10-18l-6-8-8-5-4-1 10 1c7 3 14 6 19 11 7 5 11 14 11 22l-1 8-2 2-5 1-1-5c-1-3-1-6-3-8zm39-4c9 9 20-3 19-14l5 3c0 5-2 10-5 14-6 7-13 9-22 8l-3-1c-3-5-4-11-4-18 0-4 2-8 4-12l2-5 9 4c-5 5-10 16-5 21zm11-18l2 1 1 1c2 3 1 6-1 9s-4 7-8 4c-4-1-2-6-1-9 1-1 6-7 7-6zm-87-27h1l2-1c11 2 21 7 32 11 10 4 21 7 32 9l-1 3c-2 4-4 8-4 13-1 6-1 13 2 19l-7-1c0-10-5-20-12-28-6-6-14-10-21-13-10-4-19-3-29-4 1-3 2-7 5-8zm10 23l7 4 6 7a71 71 0 0112 21l1 9-4 2-15 6 2-10-2-10-1-3-1-9-1-1c-2-6-6-11-11-16l-8-5v-1c6 1 10 3 15 6zm-29-3h2l5 1c3 1 6 1 8 3l4 2 7 10 2 4 2 7 1 2 2 10c1 5 0 11-2 16l-15 6 3-9c2-8 0-16-2-24l-6-12-5-6-11-8 5-2zm-15 6l3-1 1 1c3 0 5 2 7 3l7 5c4 5 7 10 9 16a41 41 0 01-1 30l-11-4c0-5-1-11-3-15-2-7-4-14-8-20l-8-7-7-3 11-5zm-16 8c4 2 10 4 13 8 5 5 7 11 10 18l3 15-14-4-6-1-2-8c-3-9-9-18-18-22l14-6zm-32 13l11-5c11 3 17 13 21 22l1 4-5-1-2-1c-5 0-9 2-12 4l-2 1c-3-9-8-18-16-23l4-1zM81 604l2 1c5-1 10 2 15 3l20 6c6 1 12 4 17 6l9 4-8 4-3 3-1 1h-1l-1 1h-1c-6-1-11-4-15-6-6-4-12-6-18-8l-20-4-11-3c5-3 10-8 16-8zm59 117l-14-4-12-2-11-5c-2 0-12-2-12-4l-2-3-2-6-3-12c-1-9-5-17-8-26l-9-26-4-11-3-6 16 4 20 5c11 3 21 11 32 13h1l2 9 5 12 8 29c0 9 2 17 5 25 1 3 3 6 3 10l1 2-13-4zm25 0l-3 3-3 2-1-2-1-2v-3l-4-10c-3-8-4-17-5-25-1-9-5-17-7-25l-4-11c-1-4-3-7-3-11v-1l2-2 12-6 1 3c2 3 2 7 3 11l1 6v3l1 2 4 13c3 8 4 17 5 25l6 21v5l-4 4zm9-17l-3-9-3-23a71 71 0 016 24v8zm16-7c-1 2-2 9-4 10l-2 1-7 2 1-2 1-9-3-19c-2-6-4-12-8-17l-4-7-2-2-1-4 6-2c5 3 11 7 14 12a52 52 0 019 27v10zm2-25c-1-5-3-9-6-14s-8-9-14-13l13-4 2-1h1c5 2 9 8 12 12l5 11h-1l-6 3h-1c-2 0-5 1-5 4v2zm1 33l1-4v-21-1l4 12 4 10-9 4zm105 84a446 446 0 01-61-19h-5c0-2-1-3-2-3l-2-6-3-12-3-15c1-1 0-4-2-4l-3-10-6-15-2-5v-2l-2-4v-1l-5-12-2-7 8 2a97 97 0 007 2l16 3 5 1 1 1 7 2 3 1 4 2v1h2c6 3 12 7 19 8h1c0 4 1 7 3 10l5 14 4 14 3 7 1 10c1 9 3 19 6 27l4 10h-1zm12-3l-3 3c0 1-1 2-3 2v-2l-1-3-5-12-2-11-3-15c0-10-4-18-7-27l-4-12c-2-4-4-8-4-12v-2l3-2c3-3 7-5 11-6l2 4c2 4 2 8 2 12l2 8 5 17c3 8 4 18 6 27l5 21v4c-3 0-6 3-4 6zm12-16l-1 3-4-15c-3-9-3-18-5-27l-2-6 8 16 4 20v9zm17-10c0 3-2 12-4 12l-2 2-9 2 2-2 1-9c1-7-1-14-3-21a72 72 0 00-14-27l-3-4-2-1 9-4 16 13a58 58 0 019 39zm16 3l-1 1-2 2-10 4 1-5c2-7 1-14 0-21a51 51 0 00-24-38l14-5 3-2 1 1c6 2 10 8 13 13 3 6 6 13 7 19 3 11 4 22-2 31zm30-26l-3 12-2 7c-2 2-5 2-7 3l-11 4h-1c5-10 4-21 1-32-2-12-9-27-20-34l4-2 13-5c11 3 19 14 22 25 3 7 4 15 4 22zm25-6c0 5-1 10-5 14v1l-19 7c2-4 3-9 3-14 1-9 0-19-4-28-3-10-10-19-19-24l15-6c5 3 11 5 15 9 5 5 7 11 10 18 2 8 4 15 4 23zm21-11c-1 5-3 12-7 16l-1 1h-1l-9 5c3-10 1-23-1-32-3-7-5-15-10-21l-9-8-7-3 11-5 4-2 2 1c3 0 6 2 9 4 3 1 5 4 7 6 5 5 8 11 9 17 3 7 4 14 3 21zm17 6l-16 7 3-11c2-8 0-16-2-25-2-7-6-14-11-19-4-4-8-8-13-10l5-2h3l6 1 8 3 5 3 8 11 2 4 2 7 1 3 2 11c0 6-1 12-3 17zm22-10l-16 8 2-13-2-12-1-2-2-9v-1c-3-6-6-12-11-17-3-3-7-5-10-6v-1c6 0 11 3 17 6l8 5 5 7c4 4 7 9 10 15l1 3 2 5 2 10-5 2zm18-8v1c-2 0-3 1-3 2l-5 1-1-6-3-8-11-20-7-8c-2-3-5-4-9-6l-5-2 12 2c7 2 15 6 21 11 7 6 13 16 13 25l-2 8zm17-5h-3l-5-1c0-11-5-22-12-29-6-7-15-11-23-15h-1l-14-4h-17c1-3 1-6 3-8l28 12 24 7a112 112 0 0120 7l-2 10c-1 7-1 15 2 21zm35-7c-6 8-15 11-24 9h-4c-4-6-5-13-5-20 0-4 1-7 3-11l7 1h3c-7 8-8 21 3 22 10 1 18-8 15-18-1-2-3-8-6-10l6-6c3 4 4 8 5 11 2 8 1 15-3 22zm-19-14c2-3 5-8 10-7l1 2 2 5c2 6-6 13-13 10-3-2-1-8 0-10zm37-54l-1 17v1l-2 1-5 2-9 3-3 2-6 5c-4 3-7 7-11 8h-1l-2-10c-2-7-2-14-2-20l-1-38c-1-6-2-12-1-18v-19l-6-36-1-18-2-22-1-17-2-18v-16l-1-14 7-5 8-5 15-10 14-10 6-4 4-3c2 4 1 11 1 15l-3 1-13 8c-5 4-8 9-12 14s-7 11-7 17c-1 1-2 3-1 4l1 1 6 5h-5c-3 0-3 5 0 5l10-1 5 4-13 2c-4-1-4 4 0 4 6 1 12-2 18-2l4 2h-4l-7 2-9 1c-3 0-3 5 0 5l8-1 10-2 8-1 3 3v2c-9 1-17 1-25 4-3 1-2 6 1 5 8-3 16-3 24-5v3l-4 1-17 4c-3 1-3 5 0 5l15-3 6-2v6c-5 2-10 4-15 4-4 0-4 5 0 5 5 0 10-2 15-4v9l-5 1-8 1c-3 0-3 5 0 5l8-1 5-1 3 33v86zm4-162l-4-3c1-1-1-3-3-2l-8-6v-5c1-5 3-9 6-13l9-11 7-5 4-3 15 10-3 4c-4 4-8 8-10 13l-7 15v9l-6-3zm35 12l1 4-17-6-6-3-2-2v-9c0-5 3-9 5-13l7-10 4-5 3-3 2 2 16 8-5 6c-3 4-6 8-7 13l-1 18zm33-28c-2 5-4 9-4 15 0 7 0 15 3 22-9 0-17-2-26-4l-1-7 1-14c0-4 2-7 5-10 1-2 4-7 7-9 5 3 10 4 15 5v2zm14 37h-10c-3-5-3-12-3-18l1-12 3-8 17 2a46 46 0 007 35l-15 1zm24-2h-3l-3-4-5-11v-19l21-3c0 7 3 13 6 19l8 13-24 5zm41-10l-11 3c-4-3-7-8-9-12-3-6-6-12-7-19l18-6c1 7 4 13 9 17s9 8 15 10l-15 7zm22-10h-3c-5-1-11-6-15-9-5-5-8-10-8-17l16-11c2 4 5 7 9 9a90 90 0 0023 11c-7 7-14 12-22 17zm30-28l-4 6h-3c-4 0-8-3-12-4l-11-7-7-7h1l5-6 7-10c3 3 8 4 12 5 7 2 14 5 21 3-2 7-5 14-9 20zm12-27l-1 2c-7 2-14-1-20-2-3-1-10-2-13-5l7-22c3 2 7 3 10 3l11 2c4 0 7-2 11-3l-5 25zm5-31c-6 3-12 4-19 3l-12-4 1-18h2l4-1 6-1 13-1 4-1 1 18v5zm-32-40l4-2 10-4 12-1 4 20h-1l-16 2-12 1-1-16zm34-7l-2-7h-8c-6 0-11 1-17 3l-8 4c-2 1-5 2-6 4v6h-23a53 53 0 01-25-14l7 4c8 4 16 3 24 0 16-5 32-16 42-30s17-33 13-50c-2-9-9-16-16-21h1l24 3c7 1 13 1 17 8 3 6 3 14 4 20v21l-5 21c-4 11-11 23-22 28zm23-9l-2-2 6-11a76 76 0 007-38l3 1c3 1 4 2 4 5v10c0 13-9 26-18 35zm29-26v1l-7 17-6 5h-4c5-6 9-13 12-21l2-13v-4l2 2c3 1 4 2 3 6v2c-2 1-2 3-2 5zm135 61l1 3-8-2-30-12-31-10-30-12-18-6-9-4-8-2c2-3 3-5 3-8l2-5c23 9 45 20 68 28l33 10 31 15c-2 1-4 3-4 5zm15 6h-7l-3-4 1-2 4-2a38 38 0 017 8h-2zM607 762c0-8-7-16-14-18-11-4-25-1-34 5-2 0-3 1-3 3-4 4-5 10-1 14l2 3h1c3 3 8 5 13 6 9 3 23 6 31-2 2-2 4-5 4-8l1-2v-1zm-50-3v-1 1zm36-10l4 3-4-1v-2zm-5-1v2l-7-1v-2l7 1zm-16 0h4v2l-4 1v-3zm-10 5l1-1 4-2v3l-2 1-3 1v-2zm35 18c-7 4-17 2-24 0l-10-4v-1c1-3 5-6 8-7 3-2 8-2 12-2 5 0 15 1 16 8l1 1c0 2-2 4-3 5z"/>
    <path d="M635 766l-9-1c-2 0 0-4 0-6l-1-7-6-8-3-2v-1-5l-1-4v-1c0-3-2-6-4-8-4-4-11-7-16-4-3 1-4 4-6 6-3 4-7 3-11 2l-12 1-4 3c-1 1-3 3-5 2l-5-5c-3-2-6-3-9-2-7 1-11 10-14 15v4l-10-2c-3 1-3 6 0 5l9 2-1 3 2 3 7 2v1l-8-2-16-3c-3 0-3 5 0 5l13 2 4 1 2 1 4 1v3l-1 1-2 2-9-3-11-2h-2c-3 0-3 5 0 5l12 2h3l-3 4v1l-8-2h-1c-3 0-4 4-1 5l10 2v5c1 3 0 6 2 8l6 3 9 2h3l6-2 4-3c2-1 5 3 6 3l10 2v8c0 2 2 4 4 4 6 0 13 1 19-1 4-1 4-5 4-8 6-1 11-2 16-5 2-1 6-5 8-4 3 0 5 2 8 3 1 0 3 0 4-2 7-1 7-15 7-20v-1-4c0-2-1-3-3-4zm-100-16v-2l5 2-1 1-4-1zm-1 41l-5-1 1-1-1-4v-2l1-1 2 1 4 3v1l1 5-3-1zm34-1v3l-7-1-7-5-6 2-3 2-1-4h1l6-3c5 3 10 5 16 6 2 0 2-2 1 0zm18 14l-11 1v-5h13v1c0 3 0 3-2 3zm37-16l-2-1c-3-1-6 0-9 1l-8 5c-3 2-6 2-8 2v-2l11-4a21 21 0 009-5h7v4zm2-11c-4 0-7-2-11-1l-4 3-5 4-12 3c-2 0-4 1-4 4l-1 3h-3l-7-1h-3l1-3c0-4-5-6-8-7-5 0-10-2-13-6h-5l-6 2-3 2h-1l-6-4 2-1c2 1 5 1 6-2v-2-1-2l2-11c0-3 4-5 5-8 0-2 0-4-2-5l-9-3c2-5 6-10 9-8 5 4 8 10 15 7 3-2 5-4 9-5 4-2 9 0 13 0 7 0 10-5 14-10 2-1 4 1 6 1l4 3-1 2-4 8c0 3 4 5 6 7 3 2 6 3 8 6 3 5 0 9 1 14 2 6 7 6 12 7-1 2-3 4-5 4zM672 681c2-4 1-9 3-13 0-1 0-3-2-3 2-6-1-12-4-16-4-6-11-10-18-12 0-1-1-2-3-2-7 1-15 3-22 7-6 3-11 10-11 17l-1 1-2 14c1 2 0 6 3 7l3 1 3 1 2 1 2 1 14 5c9 2 17 0 25-3 4-1 6-3 8-6zm-50-5h-1l-1-1v-2-4l2 2v5zm1-15c-3-5 4-11 7-13 5-4 12-5 18-5l1 1c5 2 10 4 14 9 3 3 5 8 2 12-1 3-6 4-9 4l-12 1c-7-1-18-2-21-9zm7 14v5l-4-2 1-5 3 1v1zm9 2v6l-5-2v-5l5 1zm22 3c-6 2-12 4-18 3v-6c7 0 16 0 23-3 0 3-1 5-5 6z"/>
    <path d="M654 659c0-5-3-10-8-9h-1c-5-1-10 3-11 8-2 6 5 8 9 8 5 0 11-2 11-7zm-15 0c0-3 4-5 7-4h2l1 3c0 3-3 3-5 3-1 0-6 0-5-2zM271 794l-25-6c-8-2-17-3-25-6-15-4-30-9-45-10-3 0-3 5 0 5 16 1 31 7 47 11l25 5c7 3 15 5 23 5 3 1 3-4 0-4zM126 727l-16-2c-6 0-11 0-17-2-3 0-4 4-1 5 5 2 10 1 15 2l18 2c3 1 4-4 1-5zM119 738c-14-2-27-2-41-6-3-1-4 4-1 5 13 4 27 3 41 6 3 1 4-4 1-5zM325 803l-13-2-13-2c-3-2-4 3-1 4 4 2 8 2 13 3l14 2c3 0 3-5 0-5zM550 617l1-22-2-2-4 1-7 1c-5 0-10 4-16 5l-2 2 3 18c1 7-1 14-1 22l1 1 2 3h1l2-1c4-3 10-4 15-5 3-1 7-2 8-5v-8l-1-10zm-13 19l-10 3 1-17-3-18 15-5 6-1v35c0 2-7 3-9 3zM30 684c1 0 1-1 0 0z"/>
    <path d="M42 660H25c-5 0-12 0-17 2-4 2-6 5-6 9l-2 17c0 2 2 3 4 3l17 1c4 0 12 1 14-3 2 0 5-1 5-4 0-7 6-14 5-22l-3-3zm-9 23c-2 0-4 1-4 3l1-2H8v-2h13l12-2v3zm3-10h-1l-12 1-14 1v-1c0-3 0-5 4-6 8-1 16-2 25-1l-2 6zM15 631l9 2 11 1h3c3-2 5-5 6-8 2-5-3-7-7-8s-9-3-13-1l-6 4c-2 1-4 2-5 5 0 1 0 4 2 5zm10-6c2-2 3-2 6-1l5 1v1l-1 1-8-1h-3l1-1zM716 717l-8-4-7-4c-4-2-8-3-12-1l-6 4-7 4-11 5h-2c-2-1-3 2-3 4l-1 2 1 13c0 2 1 4 4 4s8 3 10 5c3 3 7 3 11 5h2l3-1 11-6c3 0 7-1 9-3 3-3 4-6 4-9l2-12h1c1-2 1-5-1-6zm-32 20v3l-1 5h-1c-2 0-4-3-6-4l-9-4v-9l10 5 8 4h-1zm4-7l-11-6 5-2c2-1 5-2 6-4l4-3c3-2 4 0 6 1l6 4 4 1-8 5-5 4h-7zm20 2c-1 2-1 5-4 7l-8 3-5 2v-4l1-1v-1c4 0 8-3 11-6l5-2v2z"/>
  </g>
</svg>
