<svg xmlns="http://www.w3.org/2000/svg" id="Capa_1" x="0" y="0" version="1.1" viewBox="190 -235.5 512 512" xml:space="preserve">
  <defs/>
  <style>
    .st0{fill:#fc6}
  </style>
  <path id="XMLID_107_" d="M701.9-.9c1.9 24.2-15.2 45.7-38 48-17.5 1.8-33.3-8.3-40.6-23.9L602.5 25l-15.7 7.6c-3.6 1.7-6 5.1-6.5 9.1-1.5 10.6-4.2 20.8-7.9 30.5-1.3 3.3-1 7 .7 10l5.6 10 15.5 10.4c8.2-3.1 17.7-2.4 25.5 2.9 13.3 8.9 16.5 27.2 6.6 40.1-8.5 11.1-24.3 14.2-36.3 7-7.7-4.5-12.3-12.1-13.4-20.1L559.4 121l-10.8-1.3c-3.7-.5-7.4.8-10.1 3.4-9.1 8.7-19.4 16.2-30.7 22.1-3.8 2-6.2 5.9-6.5 10.1l-1.4 21.9 6.8 27c11.6 3.2 21.2 12.4 24.3 24.9 4.8 18.9-7 38-26.1 42.3-17.3 3.8-35-6.2-40.4-23-4.3-13.1-.3-26.7 8.7-35.6l-6.8-27.2-10.6-17c-2.8-4.6-7.8-7.2-13.2-7.2h-.1c-9.2 0-18.3-.9-27-2.6-5.2-1-10.6.6-14.2 4.5L387.2 178l-15.6 32.4c3.7 7.4 4 16.4.1 24.4-7 14.4-24.7 20.1-38.9 12.2-12.1-6.8-17.4-21.9-12.1-34.8 3.6-8.8 11.1-14.7 19.5-16.6L356 163l3.1-21.9c.6-4-1-8.1-4.2-10.7-12.5-10.1-23.2-22.4-31.6-36.2-2.1-3.4-5.8-5.5-9.8-5.5l-21.9-.2-23.8 7.5c-1.7 14.9-11.9 28.1-27.1 32.9-20.4 6.4-42.2-4.8-48.8-25.1-6.6-20.3 4.6-42.5 24.8-49.2 14.2-4.7 29.1-.8 39.2 8.8l25.4-8 18.5-13.2c2.8-2 4.2-5.2 4-8.6-.3-3.7-.5-7.5-.5-11.3 0-20.7 4.5-40.3 12.7-57.9 1.2-2.6 1.2-5.6-.1-8.1L310.4-55l-14.9-11.3c-8.3 2.7-17.8 1.4-25.3-4.3-12.8-9.6-14.9-28.1-4.4-40.4 9.1-10.6 25-12.8 36.7-5 7.4 5 11.6 12.7 12.3 20.9l16.5 12.5 16.7 3c12.1-11.3 26.2-20.4 41.8-26.8l3.9-23.8-4.9-24.5c-14.6-3.8-26.5-15-29.6-29.9-4.5-21.1 10-41.6 32.4-45.8 22.4-4.2 44.2 9.4 48.7 30.5 3.4 15.8-3.9 31.2-17.1 39.8l4.7 23.1 11.4 18.3c.8 1.2 2.1 1.9 3.5 1.9 26.2 0 50.7 7.3 71.7 19.9 1.2.7 2.6.8 3.8.2l17.9-8.3 20.9-22.6c-1.3-8.1 1.1-16.7 7.1-23.2 10.9-11.7 29.5-12 40.7-.3 9.8 10.3 10.2 26.7.9 37.5-6 7-14.7 10.2-23.2 9.5l-20.9 22.6-6.8 18.3c-.5 1.3-.3 2.7.5 3.8 8.3 11.3 14.8 23.9 19.4 37.5 1.3 3.7 4.2 6.6 8 7.7l17 4.8 22.1-2c5.4-15.6 19-27.5 35.6-29.1C680-42.8 700-25.1 701.9-.9z" class="st0"/>
  <circle id="XMLID_8_" cx="442.5" cy="22.3" r="103" fill="#f7dbb5"/>
  <path fill="#f4c47f" d="M370.8 22.3c0-51.6 37.9-94.3 87.3-101.9-5.1-.8-10.4-1.2-15.7-1.2-56.9 0-103 46.1-103 103s46.1 103 103 103c5.3 0 10.6-.4 15.7-1.2-49.4-7.4-87.3-50.1-87.3-101.7z"/>
  <circle cx="269.1" cy="-194.4" r="29.3" class="st0"/>
  <circle cx="261.1" cy="192.4" r="19.4" class="st0"/>
  <circle cx="616.9" cy="224.3" r="28.5" class="st0"/>
  <circle cx="410.8" cy="-6.1" r="26.6" class="st0"/>
  <circle cx="432.2" cy="76.6" r="18.1" class="st0"/>
  <circle cx="489.1" cy="22.3" r="15.2" class="st0"/>
</svg>
