          <svg
            class="w-6"
            xmlns="http://www.w3.org/2000/svg"
            viewBox="-32 0 384 384"
          >
            <g>
              <path
                d="m264 112c22.078125 0 40 17.921875 40 40 0 11.039062-4.480469 21.039062-11.679688 28.320312-7.28125 7.199219-17.28125 11.679688-28.320312 11.679688h-56v128c0 26.480469-21.519531 48-48 48-13.28125 0-25.28125-5.359375-33.921875-14.078125-8.71875-8.640625-14.078125-20.640625-14.078125-33.921875v-128h-56c-22.078125 0-40-17.921875-40-40s17.921875-40 40-40h56v-48c0-26.480469 21.519531-48 48-48s48 21.519531 48 48v48zm0 0"
                fill="#4dd0e1"
                data-original="#4DD0E1"
                class="active-path"
                style="fill:#FFFFFF"
                data-old_color="#4dd0e1"
              />
              <path
                d="m160 0c-35.289062 0-64 28.710938-64 64v32h-40c-30.878906 0-56 25.121094-56 56s25.121094 56 56 56h40v112c0 17.175781 6.679688 33.265625 18.710938 45.183594 12.023437 12.136718 28.113281 18.816406 45.289062 18.816406 35.289062 0 64-28.710938 64-64v-112h40c14.878906 0 28.9375-5.792969 39.695312-16.433594 10.511719-10.628906 16.304688-24.6875 16.304688-39.566406 0-30.878906-25.121094-56-56-56h-40v-32c0-35.289062-28.710938-64-64-64zm128 152c0 6.40625-2.503906 12.472656-6.929688 16.945312-4.597656 4.550782-10.664062 7.054688-17.070312 7.054688h-56c-8.832031 0-16 7.167969-16 16v128c0 17.648438-14.351562 32-32 32-8.574219 0-16.585938-3.320312-22.664062-9.441406-6.015626-5.972656-9.335938-13.984375-9.335938-22.558594v-128c0-8.832031-7.167969-16-16-16h-56c-13.230469 0-24-10.769531-24-24s10.769531-24 24-24h56c8.832031 0 16-7.167969 16-16v-48c0-17.648438 14.351562-32 32-32s32 14.351562 32 32v48c0 8.832031 7.167969 16 16 16h56c13.230469 0 24 10.769531 24 24zm0 0"
                fill="#012e52"
                data-original="#012E52"
                class=""
                style="fill:#FFFFFF"
                data-old_color="#012e52"
              />
            </g>
          </svg>