<svg xmlns="http://www.w3.org/2000/svg" class="w-6" viewBox="-32 0 384 384"><path fill="#fff" d="M264 112a40 40 0 0 1 0 80h-56v128a48 48 0 0 1-96 0V192H56a40 40 0 0 1 0-80h56V64a48 48 0 0 1 96 0v48zm0 0" class="active-path" data-old_color="#4dd0e1" data-original="#4DD0E1"/><path fill="#fff" d="M160 0c-35 0-64 29-64 64v32H56a56 56 0 0 0 0 112h40v112c0 17 7 33 19 45s28 19 45 19c35 0 64-29 64-64V208h40a56 56 0 1 0 0-112h-40V64c0-35-29-64-64-64zm128 152a24 24 0 0 1-24 24h-56c-9 0-16 7-16 16v128a32 32 0 0 1-64 0V192c0-9-7-16-16-16H56a24 24 0 0 1 0-48h56c9 0 16-7 16-16V64a32 32 0 0 1 64 0v48c0 9 7 16 16 16h56c13 0 24 11 24 24zm0 0" data-old_color="#012e52" data-original="#012E52"/></svg>