          <svg
            xmlns="http://www.w3.org/2000/svg"
            viewBox="0 0 512 512"
            class="w-5"
          >
            <defs />
            <path
              fill="#FFF"
              d="M439.463 61.867c-4.616-2.685-10.318-2.685-14.933 0-17.877 9.918-38.009 15.061-58.453 14.933-29.891.661-58.793-10.715-80.213-31.573-24.728-24.205-58.162-37.431-92.757-36.693-27.861-.241-55.101 8.232-77.909 24.235V25.6c0-14.138-11.461-25.6-25.6-25.6-14.139 0-25.6 11.461-25.6 25.6v460.8c0 14.138 11.461 25.6 25.6 25.6 14.138 0 25.6-11.461 25.6-25.6V264.533c2.828-.265 5.522-1.33 7.765-3.072 20.302-14.951 44.933-22.861 70.144-22.528 29.946-.688 58.911 10.689 80.384 31.573 24.681 24.17 58.049 37.394 92.587 36.693 26.469.308 52.431-7.266 74.581-21.76 4.74-3.285 7.501-8.742 7.339-14.507V76.8c.054-6.152-3.207-11.857-8.535-14.933z"
              class="active-path"
              data-old_color="#000000"
              data-original="#000000"
            />
          </svg>