          <svg
            xmlns="http://www.w3.org/2000/svg"
            class="w-5"
            viewBox="0 0 512 512"
          >
            <defs />
            <path
              style="fill:#FFFFFF"
              d="M105.046 168.773H0v309.512h105.046zM69.404 371.342H35.642v-30h33.762zm0-67.523H35.642v-30h33.762zm-33.762-67.523v-30h33.762v30zM406.954 478.286H512V168.773H406.954zm35.643-271.99h33.761v30h-33.761zm0 67.523h33.761v30h-33.761zm33.76 67.523v30h-33.761v-30zM203.477 438.865H241v39.421h-37.523zM271 438.865h37.522v39.421H271z"
            />
            <path
              style="fill:#FFFFFF"
              d="M135.046 478.286h38.431v-69.421h165.045v69.421h38.432V33.714H135.046zm137.835-106.944h-33.762v-30h33.762zm0-67.523h-33.762v-30h33.762zm0-67.523h-33.762v-30h33.762zm67.522 135.046h-33.761v-30h33.761zm0-67.523h-33.761v-30h33.761zm0-67.523h-33.761v-30h33.761zM205.358 105.052H241V69.41h30v35.642h35.643v30H271v35.643h-30v-35.643h-35.642zm-33.762 101.244h33.762v30h-33.762zm0 67.523h33.762v30h-33.762zm0 67.523h33.762v30h-33.762z"
            />
          </svg>