<svg xmlns="http://www.w3.org/2000/svg" class="w-5" viewBox="0 0 512 512"><path fill="#fff" d="M105 169H0v309h105zM69 371H36v-30h33zm0-67H36v-30h33zm-33-68v-30h33v30zm371 242h105V169H407zm36-272h33v30h-33zm0 68h33v30h-33zm33 67v30h-33v-30zm-273 98h38v39h-38zm68 0h38v39h-38z"/><path fill="#fff" d="M135 478h38v-69h166v69h38V34H135zm138-107h-34v-30h34zm0-67h-34v-30h34zm0-68h-34v-30h34zm67 135h-33v-30h33zm0-67h-33v-30h33zm0-68h-33v-30h33zM205 105h36V69h30v36h36v30h-36v36h-30v-36h-36zm-33 101h33v30h-33zm0 68h33v30h-33zm0 67h33v30h-33z"/></svg>