          <svg
            xmlns="http://www.w3.org/2000/svg"
            class="w-5"
            viewBox="0 0 512 512"
          >
            <defs />
            <path
              fill="#FFF"
              d="M498.195312 222.695312l-.035156-.035156L289.304688 13.8125C280.402344 4.90625 268.566406 0 255.976562 0c-12.589843 0-24.425781 4.902344-33.332031 13.808594L13.898438 222.550781c-.070313.070313-.140626.144531-.210938.214844-18.28125 18.386719-18.25 48.21875.089844 66.558594 8.378906 8.382812 19.445312 13.238281 31.277344 13.746093.480468.046876.964843.070313 1.453124.070313h8.324219v153.699219C54.832031 487.253906 79.578125 512 110 512h81.710938c8.28125 0 15-6.714844 15-15V376.5c0-13.878906 11.289062-25.167969 25.167968-25.167969h48.195313c13.878906 0 25.167969 11.289063 25.167969 25.167969V497c0 8.285156 6.714843 15 15 15h81.710937c30.421875 0 55.167969-24.746094 55.167969-55.160156V303.140625h7.71875c12.585937 0 24.421875-4.902344 33.332031-13.808594 18.359375-18.371093 18.367187-48.253906.023437-66.636719zm0 0"
              class="active-path"
              data-old_color="#000000"
              data-original="#000000"
            />
          </svg>