<svg xmlns="http://www.w3.org/2000/svg" class="w-6" viewBox="0 0 550 550"><path fill="#FFF" d="m463 210-17-9 1-20c0-73-45-138-113-163-6-1-12 1-14 6-2 6 0 12 5 14a110 110 0 0 1 53 138 160 160 0 0 0-206-1 110 110 0 0 1 53-137c5-2 7-8 5-14-3-5-9-7-14-5a173 173 0 0 0-113 182l-17 9C23 246-10 319 3 390c1 5 5 9 11 9s10-5 10-11v-2a110 110 0 0 1 91-113l-2 26c0 70 45 130 107 152a111 111 0 0 1-86 41c-21 0-42-6-60-18a11 11 0 0 0-13 18 173 173 0 0 0 214 7l16 10a173 173 0 0 0 198-17c4-4 5-11 1-15-3-5-9-6-14-3a110 110 0 0 1-146-23 161 161 0 0 0 104-178c13 2 25 7 37 14 36 20 57 59 55 101 0 5 4 10 9 11 6 1 11-3 12-9 13-71-21-144-84-180zm-117 10a110 110 0 0 1-143 0 106 106 0 0 1 143 0zm-179 79 3-21a111 111 0 0 1 72 123c-43-13-75-54-75-102zm140 102a109 109 0 0 1 72-123 107 107 0 0 1-72 123z" class="active-path" data-old_color="#000000" data-original="#000000"/></svg>