          <svg
            xmlns="http://www.w3.org/2000/svg"
            viewBox="0 0 549.983 549.983"
            class="w-6"
          >
            <defs />
            <path
              fill="#FFF"
              d="M463.497 210.158c-5.5-3.2-11.3-6.1-17.3-8.7.8-6.9 1.3-13.8 1.3-20.7 0-72.4-45.8-137.7-113.899-162.3-5.4-1.9-11.4.6-13.7 5.9-2.3 5.3-.1 11.4 5 14 37 18.9 60 56.5 60 98 0 13.5-2.5 26.8-7.3 39.3-28-23.5-64.101-37.6-103.401-37.6-38.8 0-74.5 13.8-102.4 36.8-4.6-12.3-7-25.3-7-38.4 0-41.5 23-79.1 60-98 5.1-2.6 7.3-8.7 5-14-2.3-5.3-8.3-7.8-13.7-5.9-68.1 24.6-113.9 89.8-113.9 162.3 0 6.8.4 13.7 1.2 20.6-6 2.6-11.8 5.5-17.4 8.8-62.5 36.1-96.1 108.3-83.3 179.701.9 5.299 5.5 9 10.9 9 6-.1 10.8-4.9 10.8-10.9 0-.6 0-1.1-.1-1.6-1.7-41.1 19.3-79.4 54.9-100 11.2-6.5 23.4-10.8 36.1-13-1.4 8.401-2.1 17.1-2.1 25.901 0 69.699 44.5 129.199 106.5 151.699-8.4 10.4-18.7 19.301-30.4 26.1-16.7 9.6-35.7 14.701-54.9 14.701-21.4 0-42.1-6.102-60-17.701-4.8-3.1-11.2-2-14.6 2.6-3.4 4.602-2.7 11.102 1.7 14.801 31.1 26.199 70.6 40.6 111.4 40.6 30.1 0 59.9-8 86.1-23.1 5.5-3.199 10.9-6.699 16.1-10.5 5.201 3.801 10.6 7.4 16.1 10.5 26.2 15.1 56 23.1 86.101 23.1 40.8 0 80.3-14.4 111.399-40.6 4.4-3.699 5.101-10.199 1.7-14.801-3.4-4.6-9.8-5.799-14.6-2.6-17.9 11.6-38.7 17.701-60 17.701-19.2 0-38.101-5.102-54.9-14.701-11.8-6.799-22.2-15.799-30.7-26.4 61.601-22.699 105.601-82 105.601-151.299 0-8.9-.801-17.6-2.101-26.101 13.101 2.1 25.7 6.601 37.3 13.2 36 20.801 57 59.5 54.9 101-.3 5.699 3.9 10.699 9.6 11.4 5.7.699 10.9-3.201 11.9-8.9 12.5-71.401-21.1-143.701-83.9-179.901zm-117.3 10.1c-14.7 12.5-32.6 21.1-52 24.5-12.899 2.3-25.8 2.3-38.7 0-19.7-3.5-37.7-12.2-52.5-25 18.9-17 43.9-27.3 71.3-27.3 27.7-.1 53 10.5 71.9 27.8zm-178.801 79.101c0-7.4.8-14.701 2.2-21.701 18.4 6.301 35.1 17.4 48 32.4 4.5 5.301 8.5 10.9 11.8 16.699 3.1 5.4 5.8 11.102 8 17.102 6.9 18.699 8.4 38.5 5 57.5-43.5-13.602-75-54.102-75-102zm140.001 101.599c-3.4-19-1.8-38.6 5-57.1 2.2-6 4.9-11.801 8-17.102 3.4-5.799 7.3-11.398 11.8-16.699 12.7-14.801 28.9-25.699 46.9-32 1.399 6.9 2.1 14 2.1 21.301 0 47.501-31 87.7-73.8 101.6z"
              class="active-path"
              data-old_color="#000000"
              data-original="#000000"
            />
          </svg>