          <svg
            xmlns="http://www.w3.org/2000/svg"
            viewBox="0 0 448 448"
            class="w-5"
          >
            <defs />
            <path
              fill="#FFF"
              d="M408 184H272c-4.417969 0-8-3.582031-8-8V40c0-22.089844-17.910156-40-40-40s-40 17.910156-40 40v136c0 4.417969-3.582031 8-8 8H40c-22.089844 0-40 17.910156-40 40s17.910156 40 40 40h136c4.417969 0 8 3.582031 8 8v136c0 22.089844 17.910156 40 40 40s40-17.910156 40-40V272c0-4.417969 3.582031-8 8-8h136c22.089844 0 40-17.910156 40-40s-17.910156-40-40-40zm0 0"
              class="active-path"
              data-old_color="#000000"
              data-original="#000000"
            />
          </svg>